NotoAmalgamated-CondensedLight.ufo
<glyph name="exclam.sans" format="2">
  <advance width="223"/>
  <unicode hex="0021"/>
  <outline>
    <contour>
      <point x="124" y="174" type="line"/>
      <point x="126" y="714" type="line"/>
      <point x="98" y="714" type="line"/>
      <point x="100" y="174" type="line"/>
    </contour>
    <contour>
      <point x="85" y="23" type="curve" smooth="yes"/>
      <point x="85" y="6"/>
      <point x="90" y="-8"/>
      <point x="110" y="-8" type="curve" smooth="yes"/>
      <point x="134" y="-8"/>
      <point x="137" y="6"/>
      <point x="137" y="23" type="curve" smooth="yes"/>
      <point x="137" y="39"/>
      <point x="134" y="54"/>
      <point x="110" y="54" type="curve" smooth="yes"/>
      <point x="90" y="54"/>
      <point x="85" y="39"/>
    </contour>
  </outline>
</glyph>
<glyph name="dollar.serif" format="2">
  <advance width="425"/>
  <unicode hex="0024"/>
  <outline>
    <contour>
      <point x="198" y="43" type="curve"/>
      <point x="198" y="-79" type="line"/>
      <point x="226" y="-79" type="line"/>
      <point x="226" y="43" type="line"/>
      <point x="304" y="51"/>
      <point x="358" y="99"/>
      <point x="358" y="191" type="curve" smooth="yes"/>
      <point x="358" y="253"/>
      <point x="342" y="317"/>
      <point x="226" y="379" type="curve"/>
      <point x="226" y="658" type="line"/>
      <point x="313" y="662"/>
      <point x="328" y="586"/>
      <point x="328" y="521" type="curve"/>
      <point x="341" y="521"/>
      <point x="349" y="537"/>
      <point x="349" y="567" type="curve" smooth="yes"/>
      <point x="349" y="632"/>
      <point x="311" y="684"/>
      <point x="226" y="683" type="curve"/>
      <point x="226" y="760" type="line"/>
      <point x="198" y="760" type="line"/>
      <point x="198" y="681" type="line"/>
      <point x="131" y="672"/>
      <point x="80" y="624"/>
      <point x="80" y="539" type="curve" smooth="yes"/>
      <point x="80" y="452"/>
      <point x="119" y="407"/>
      <point x="198" y="362" type="curve"/>
      <point x="198" y="69" type="line"/>
      <point x="125" y="69"/>
      <point x="76" y="112"/>
      <point x="78" y="215" type="curve"/>
      <point x="59" y="215"/>
      <point x="57" y="185"/>
      <point x="57" y="168" type="curve" smooth="yes"/>
      <point x="57" y="104"/>
      <point x="101" y="48"/>
    </contour>
    <contour>
      <point x="226" y="67" type="curve"/>
      <point x="226" y="347" type="line"/>
      <point x="297" y="310"/>
      <point x="330" y="264"/>
      <point x="330" y="195" type="curve" smooth="yes"/>
      <point x="330" y="124"/>
      <point x="296" y="76"/>
    </contour>
    <contour>
      <point x="198" y="656" type="curve"/>
      <point x="198" y="394" type="line"/>
      <point x="137" y="428"/>
      <point x="108" y="458"/>
      <point x="108" y="538" type="curve" smooth="yes"/>
      <point x="108" y="599"/>
      <point x="137" y="646"/>
    </contour>
  </outline>
</glyph>
<glyph name="ampersand.serif" format="2">
  <advance width="519"/>
  <unicode hex="0026"/>
  <outline>
    <contour>
      <point x="182" y="-10" type="curve" smooth="yes"/>
      <point x="269" y="-10"/>
      <point x="317" y="44"/>
      <point x="352" y="107" type="curve"/>
      <point x="431" y="0" type="line"/>
      <point x="515" y="0" type="line"/>
      <point x="515" y="20" type="line"/>
      <point x="507" y="20" type="line" smooth="yes"/>
      <point x="462" y="20"/>
      <point x="448" y="25"/>
      <point x="435" y="43" type="curve" smooth="yes"/>
      <point x="364" y="137" type="line"/>
      <point x="390" y="206"/>
      <point x="401" y="270"/>
      <point x="404" y="336" type="curve" smooth="yes"/>
      <point x="407" y="393"/>
      <point x="421" y="395"/>
      <point x="478" y="395" type="curve" smooth="yes"/>
      <point x="488" y="395" type="line"/>
      <point x="488" y="415" type="line"/>
      <point x="379" y="415" type="line"/>
      <point x="379" y="354" type="line" smooth="yes"/>
      <point x="379" y="291"/>
      <point x="370" y="220"/>
      <point x="349" y="161" type="curve"/>
      <point x="189" y="389" type="line"/>
      <point x="290" y="435"/>
      <point x="331" y="489"/>
      <point x="331" y="582" type="curve" smooth="yes"/>
      <point x="331" y="657"/>
      <point x="287" y="724"/>
      <point x="207" y="724" type="curve" smooth="yes"/>
      <point x="120" y="724"/>
      <point x="76" y="657"/>
      <point x="76" y="578" type="curve" smooth="yes"/>
      <point x="76" y="499"/>
      <point x="105" y="454"/>
      <point x="147" y="399" type="curve"/>
      <point x="65" y="359"/>
      <point x="21" y="301"/>
      <point x="21" y="196" type="curve" smooth="yes"/>
      <point x="21" y="80"/>
      <point x="78" y="-10"/>
    </contour>
    <contour>
      <point x="182" y="15" type="curve" smooth="yes"/>
      <point x="106" y="15"/>
      <point x="49" y="70"/>
      <point x="49" y="198" type="curve" smooth="yes"/>
      <point x="49" y="309"/>
      <point x="105" y="354"/>
      <point x="162" y="380" type="curve"/>
      <point x="337" y="131" type="line"/>
      <point x="303" y="61"/>
      <point x="254" y="15"/>
    </contour>
    <contour>
      <point x="175" y="409" type="curve"/>
      <point x="121" y="477"/>
      <point x="104" y="520"/>
      <point x="104" y="579" type="curve" smooth="yes"/>
      <point x="104" y="650"/>
      <point x="139" y="699"/>
      <point x="206" y="699" type="curve" smooth="yes"/>
      <point x="273" y="699"/>
      <point x="303" y="644"/>
      <point x="303" y="581" type="curve" smooth="yes"/>
      <point x="303" y="497"/>
      <point x="265" y="447"/>
    </contour>
  </outline>
</glyph>
<glyph name="parenleft.mono" format="2">
  <advance width="500"/>
  <unicode hex="0028"/>
  <outline>
    <contour>
      <point x="327" y="-158" type="curve"/>
      <point x="356" y="-158" type="line"/>
      <point x="255" y="-39"/>
      <point x="209" y="109"/>
      <point x="209" y="275" type="curve" smooth="yes"/>
      <point x="209" y="443"/>
      <point x="253" y="596"/>
      <point x="356" y="714" type="curve"/>
      <point x="327" y="714" type="line"/>
      <point x="236" y="606"/>
      <point x="182" y="451"/>
      <point x="182" y="274" type="curve" smooth="yes"/>
      <point x="182" y="99"/>
      <point x="236" y="-46"/>
    </contour>
  </outline>
</glyph>
<glyph name="asterisk.mono" format="2">
  <advance width="500"/>
  <unicode hex="002A"/>
  <outline>
    <contour>
      <point x="341" y="431" type="line"/>
      <point x="360" y="446" type="line"/>
      <point x="257" y="578" type="line"/>
      <point x="409" y="627" type="line"/>
      <point x="402" y="650" type="line"/>
      <point x="252" y="594" type="line"/>
      <point x="256" y="759" type="line"/>
      <point x="231" y="759" type="line"/>
      <point x="235" y="594" type="line"/>
      <point x="83" y="649" type="line"/>
      <point x="75" y="627" type="line"/>
      <point x="230" y="578" type="line"/>
      <point x="125" y="445" type="line"/>
      <point x="145" y="431" type="line"/>
      <point x="243" y="568" type="line"/>
    </contour>
  </outline>
</glyph>
<glyph name="comma.mono" format="2">
  <advance width="500"/>
  <unicode hex="002C"/>
  <outline>
    <contour>
      <point x="208" y="-129" type="curve"/>
      <point x="230" y="-129" type="line"/>
      <point x="258" y="-60"/>
      <point x="280" y="30"/>
      <point x="295" y="104" type="curve"/>
      <point x="292" y="116" type="line"/>
      <point x="264" y="116" type="line"/>
      <point x="253" y="40"/>
      <point x="237" y="-32"/>
    </contour>
  </outline>
</glyph>
<glyph name="hyphen.mono" format="2">
  <advance width="500"/>
  <unicode hex="002D"/>
  <outline>
    <contour>
      <point x="125" y="265" type="line"/>
      <point x="375" y="265" type="line"/>
      <point x="375" y="290" type="line"/>
      <point x="125" y="290" type="line"/>
    </contour>
  </outline>
</glyph>
<glyph name="period.mono" format="2">
  <advance width="500"/>
  <unicode hex="002E"/>
  <outline>
    <contour>
      <point x="251" y="-12" type="curve" smooth="yes"/>
      <point x="273" y="-12"/>
      <point x="279" y="4"/>
      <point x="279" y="23" type="curve" smooth="yes"/>
      <point x="279" y="41"/>
      <point x="273" y="58"/>
      <point x="251" y="58" type="curve" smooth="yes"/>
      <point x="227" y="58"/>
      <point x="221" y="41"/>
      <point x="221" y="23" type="curve" smooth="yes"/>
      <point x="221" y="4"/>
      <point x="227" y="-12"/>
    </contour>
  </outline>
</glyph>
<glyph name="slash.mono" format="2">
  <advance width="500"/>
  <unicode hex="002F"/>
  <outline>
    <contour>
      <point x="102" y="0" type="line"/>
      <point x="130" y="0" type="line"/>
      <point x="398" y="714" type="line"/>
      <point x="370" y="714" type="line"/>
    </contour>
  </outline>
</glyph>
<glyph name="zero.sans" format="2">
  <advance width="387"/>
  <unicode hex="0030"/>
  <outline>
    <contour>
      <point x="343" y="358" type="curve" smooth="yes"/>
      <point x="343" y="570"/>
      <point x="308" y="724"/>
      <point x="197" y="724" type="curve" smooth="yes"/>
      <point x="85" y="724"/>
      <point x="43" y="573"/>
      <point x="43" y="355" type="curve" smooth="yes"/>
      <point x="43" y="139"/>
      <point x="86" y="-6"/>
      <point x="197" y="-6" type="curve" smooth="yes"/>
      <point x="308" y="-6"/>
      <point x="343" y="142"/>
    </contour>
    <contour>
      <point x="69" y="358" type="curve" smooth="yes"/>
      <point x="69" y="559"/>
      <point x="104" y="699"/>
      <point x="197" y="699" type="curve" smooth="yes"/>
      <point x="288" y="699"/>
      <point x="317" y="554"/>
      <point x="317" y="357" type="curve" smooth="yes"/>
      <point x="317" y="160"/>
      <point x="289" y="19"/>
      <point x="198" y="19" type="curve" smooth="yes"/>
      <point x="106" y="19"/>
      <point x="69" y="157"/>
    </contour>
  </outline>
</glyph>
<glyph name="one.mono" format="2">
  <advance width="500"/>
  <unicode hex="0031"/>
  <outline>
    <contour>
      <point x="251" y="565" type="curve" smooth="yes"/>
      <point x="251" y="0" type="line"/>
      <point x="278" y="0" type="line"/>
      <point x="278" y="714" type="line"/>
      <point x="255" y="714" type="line"/>
      <point x="87" y="580" type="line"/>
      <point x="104" y="560" type="line"/>
      <point x="204" y="641" type="line" smooth="yes"/>
      <point x="224" y="658"/>
      <point x="237" y="668"/>
      <point x="252" y="683" type="curve"/>
      <point x="251" y="648"/>
      <point x="251" y="614"/>
    </contour>
    <contour>
      <point x="126" y="0" type="line"/>
      <point x="406" y="0" type="line"/>
      <point x="406" y="20" type="line"/>
      <point x="278" y="23" type="line"/>
      <point x="251" y="23" type="line"/>
      <point x="126" y="20" type="line"/>
    </contour>
  </outline>
</glyph>
<glyph name="one.sans" format="2">
  <advance width="387"/>
  <unicode hex="0031"/>
  <outline>
    <contour>
      <point x="236" y="0" type="line"/>
      <point x="236" y="714" type="line"/>
      <point x="214" y="714" type="line"/>
      <point x="74" y="588" type="line"/>
      <point x="91" y="569" type="line"/>
      <point x="170" y="640" type="line"/>
      <point x="186" y="654"/>
      <point x="197" y="664"/>
      <point x="210" y="681" type="curve"/>
      <point x="209" y="637"/>
      <point x="209" y="608"/>
      <point x="209" y="566" type="curve" smooth="yes"/>
      <point x="209" y="0" type="line"/>
    </contour>
  </outline>
</glyph>
<glyph name="two.sans" format="2">
  <advance width="387"/>
  <unicode hex="0032"/>
  <outline>
    <contour>
      <point x="343" y="0" type="line"/>
      <point x="343" y="24" type="line"/>
      <point x="70" y="24" type="line"/>
      <point x="70" y="27" type="line"/>
      <point x="203" y="220" type="line" smooth="yes"/>
      <point x="272" y="320"/>
      <point x="326" y="416"/>
      <point x="326" y="539" type="curve" smooth="yes"/>
      <point x="326" y="661"/>
      <point x="270" y="724"/>
      <point x="179" y="724" type="curve" smooth="yes"/>
      <point x="129" y="724"/>
      <point x="83" y="705"/>
      <point x="51" y="681" type="curve"/>
      <point x="66" y="660" type="line"/>
      <point x="95" y="682"/>
      <point x="136" y="699"/>
      <point x="179" y="699" type="curve" smooth="yes"/>
      <point x="250" y="699"/>
      <point x="299" y="652"/>
      <point x="299" y="538" type="curve" smooth="yes"/>
      <point x="299" y="426"/>
      <point x="251" y="334"/>
      <point x="183" y="234" type="curve" smooth="yes"/>
      <point x="36" y="19" type="line"/>
      <point x="36" y="0" type="line"/>
    </contour>
  </outline>
</glyph>
<glyph name="three.sans" format="2">
  <advance width="387"/>
  <unicode hex="0033"/>
  <outline>
    <contour>
      <point x="332" y="554" type="curve" smooth="yes"/>
      <point x="332" y="660"/>
      <point x="268" y="724"/>
      <point x="173" y="724" type="curve" smooth="yes"/>
      <point x="112" y="724"/>
      <point x="68" y="698"/>
      <point x="34" y="666" type="curve"/>
      <point x="50" y="647" type="line"/>
      <point x="83" y="678"/>
      <point x="122" y="700"/>
      <point x="173" y="700" type="curve" smooth="yes"/>
      <point x="252" y="700"/>
      <point x="305" y="647"/>
      <point x="305" y="554" type="curve" smooth="yes"/>
      <point x="305" y="447"/>
      <point x="236" y="383"/>
      <point x="154" y="383" type="curve" smooth="yes"/>
      <point x="110" y="383" type="line"/>
      <point x="110" y="358" type="line"/>
      <point x="152" y="358" type="line" smooth="yes"/>
      <point x="236" y="358"/>
      <point x="313" y="313"/>
      <point x="313" y="184" type="curve" smooth="yes"/>
      <point x="313" y="77"/>
      <point x="260" y="14"/>
      <point x="166" y="14" type="curve" smooth="yes"/>
      <point x="119" y="14"/>
      <point x="71" y="30"/>
      <point x="38" y="46" type="curve"/>
      <point x="38" y="19" type="line"/>
      <point x="76" y="1"/>
      <point x="121" y="-10"/>
      <point x="166" y="-10" type="curve" smooth="yes"/>
      <point x="285" y="-10"/>
      <point x="341" y="69"/>
      <point x="341" y="183" type="curve" smooth="yes"/>
      <point x="341" y="292"/>
      <point x="290" y="351"/>
      <point x="216" y="370" type="curve"/>
      <point x="216" y="373" type="line"/>
      <point x="273" y="394"/>
      <point x="332" y="453"/>
    </contour>
  </outline>
</glyph>
<glyph name="four.sans" format="2">
  <advance width="387"/>
  <unicode hex="0034"/>
  <outline>
    <contour>
      <point x="381" y="176" type="line"/>
      <point x="381" y="201" type="line"/>
      <point x="291" y="201" type="line"/>
      <point x="291" y="718" type="line"/>
      <point x="263" y="718" type="line"/>
      <point x="11" y="201" type="line"/>
      <point x="11" y="176" type="line"/>
      <point x="265" y="176" type="line"/>
      <point x="265" y="0" type="line"/>
      <point x="291" y="0" type="line"/>
      <point x="291" y="176" type="line"/>
    </contour>
    <contour>
      <point x="265" y="201" type="line"/>
      <point x="39" y="201" type="line"/>
      <point x="221" y="576" type="line" smooth="yes"/>
      <point x="236" y="607"/>
      <point x="253" y="642"/>
      <point x="265" y="677" type="curve"/>
      <point x="266" y="677" type="line"/>
      <point x="265" y="655"/>
      <point x="265" y="642"/>
      <point x="265" y="617" type="curve" smooth="yes"/>
    </contour>
  </outline>
</glyph>
<glyph name="five.sans" format="2">
  <advance width="387"/>
  <unicode hex="0035"/>
  <outline>
    <contour>
      <point x="178" y="425" type="curve" smooth="yes"/>
      <point x="137" y="425"/>
      <point x="100" y="415"/>
      <point x="77" y="407" type="curve"/>
      <point x="98" y="688" type="line"/>
      <point x="309" y="688" type="line"/>
      <point x="309" y="714" type="line"/>
      <point x="75" y="714" type="line"/>
      <point x="51" y="392" type="line"/>
      <point x="67" y="377" type="line"/>
      <point x="92" y="388"/>
      <point x="134" y="399"/>
      <point x="176" y="399" type="curve" smooth="yes"/>
      <point x="281" y="399"/>
      <point x="318" y="329"/>
      <point x="318" y="222" type="curve" smooth="yes"/>
      <point x="318" y="109"/>
      <point x="270" y="17"/>
      <point x="158" y="17" type="curve" smooth="yes"/>
      <point x="111" y="17"/>
      <point x="70" y="33"/>
      <point x="44" y="50" type="curve"/>
      <point x="44" y="19" type="line"/>
      <point x="71" y="3"/>
      <point x="113" y="-9"/>
      <point x="158" y="-9" type="curve" smooth="yes"/>
      <point x="288" y="-9"/>
      <point x="346" y="92"/>
      <point x="346" y="222" type="curve" smooth="yes"/>
      <point x="346" y="341"/>
      <point x="298" y="425"/>
    </contour>
  </outline>
</glyph>
<glyph name="six.sans" format="2">
  <advance width="387"/>
  <unicode hex="0036"/>
  <outline>
    <contour>
      <point x="46" y="307" type="curve" smooth="yes"/>
      <point x="46" y="91"/>
      <point x="89" y="-14"/>
      <point x="201" y="-14" type="curve" smooth="yes"/>
      <point x="295" y="-14"/>
      <point x="347" y="68"/>
      <point x="347" y="217" type="curve" smooth="yes"/>
      <point x="347" y="350"/>
      <point x="306" y="436"/>
      <point x="206" y="436" type="curve" smooth="yes"/>
      <point x="117" y="436"/>
      <point x="82" y="369"/>
      <point x="74" y="334" type="curve"/>
      <point x="73" y="334" type="line"/>
      <point x="73" y="567"/>
      <point x="133" y="694"/>
      <point x="245" y="694" type="curve" smooth="yes"/>
      <point x="270" y="694"/>
      <point x="298" y="688"/>
      <point x="317" y="681" type="curve"/>
      <point x="317" y="707" type="line"/>
      <point x="300" y="715"/>
      <point x="271" y="720"/>
      <point x="245" y="720" type="curve" smooth="yes"/>
      <point x="134" y="720"/>
      <point x="46" y="626"/>
    </contour>
    <contour>
      <point x="199" y="11" type="curve" smooth="yes"/>
      <point x="92" y="11"/>
      <point x="76" y="158"/>
      <point x="76" y="237" type="curve" smooth="yes"/>
      <point x="76" y="344"/>
      <point x="123" y="410"/>
      <point x="203" y="410" type="curve" smooth="yes"/>
      <point x="290" y="410"/>
      <point x="319" y="332"/>
      <point x="319" y="219" type="curve" smooth="yes"/>
      <point x="319" y="85"/>
      <point x="278" y="11"/>
    </contour>
  </outline>
</glyph>
<glyph name="seven.mono" format="2">
  <advance width="500"/>
  <unicode hex="0037"/>
  <outline>
    <contour>
      <point x="144" y="0" type="line"/>
      <point x="173" y="0" type="line"/>
      <point x="428" y="695" type="line"/>
      <point x="428" y="714" type="line"/>
      <point x="53" y="714" type="line"/>
      <point x="53" y="689" type="line"/>
      <point x="400" y="689" type="line"/>
    </contour>
  </outline>
</glyph>
<glyph name="seven.sans" format="2">
  <advance width="387"/>
  <unicode hex="0037"/>
  <outline>
    <contour>
      <point x="99" y="0" type="line"/>
      <point x="126" y="0" type="line"/>
      <point x="338" y="692" type="line"/>
      <point x="338" y="714" type="line"/>
      <point x="40" y="714" type="line"/>
      <point x="40" y="689" type="line"/>
      <point x="311" y="689" type="line"/>
    </contour>
  </outline>
</glyph>
<glyph name="eight.sans" format="2">
  <advance width="387"/>
  <unicode hex="0038"/>
  <outline>
    <contour>
      <point x="196" y="723" type="curve" smooth="yes"/>
      <point x="103" y="723"/>
      <point x="50" y="659"/>
      <point x="50" y="567" type="curve" smooth="yes"/>
      <point x="50" y="482"/>
      <point x="99" y="426"/>
      <point x="170" y="379" type="curve"/>
      <point x="96" y="335"/>
      <point x="33" y="275"/>
      <point x="33" y="170" type="curve" smooth="yes"/>
      <point x="33" y="64"/>
      <point x="94" y="-10"/>
      <point x="193" y="-10" type="curve" smooth="yes"/>
      <point x="296" y="-10"/>
      <point x="354" y="70"/>
      <point x="354" y="172" type="curve" smooth="yes"/>
      <point x="354" y="268"/>
      <point x="291" y="327"/>
      <point x="214" y="378" type="curve"/>
      <point x="283" y="421"/>
      <point x="339" y="467"/>
      <point x="339" y="565" type="curve" smooth="yes"/>
      <point x="339" y="661"/>
      <point x="287" y="723"/>
    </contour>
    <contour>
      <point x="61" y="169" type="curve" smooth="yes"/>
      <point x="61" y="268"/>
      <point x="122" y="326"/>
      <point x="192" y="365" type="curve"/>
      <point x="206" y="356" type="line" smooth="yes"/>
      <point x="295" y="299"/>
      <point x="326" y="237"/>
      <point x="326" y="170" type="curve" smooth="yes"/>
      <point x="326" y="85"/>
      <point x="277" y="16"/>
      <point x="194" y="16" type="curve" smooth="yes"/>
      <point x="117" y="16"/>
      <point x="61" y="75"/>
    </contour>
    <contour>
      <point x="196" y="697" type="curve" smooth="yes"/>
      <point x="267" y="697"/>
      <point x="311" y="647"/>
      <point x="311" y="564" type="curve" smooth="yes"/>
      <point x="311" y="474"/>
      <point x="260" y="432"/>
      <point x="193" y="390" type="curve"/>
      <point x="121" y="435"/>
      <point x="78" y="490"/>
      <point x="78" y="566" type="curve" smooth="yes"/>
      <point x="78" y="645"/>
      <point x="122" y="697"/>
    </contour>
  </outline>
</glyph>
<glyph name="nine.sans" format="2">
  <advance width="387"/>
  <unicode hex="0039"/>
  <outline>
    <contour>
      <point x="337" y="403" type="curve" smooth="yes"/>
      <point x="337" y="619"/>
      <point x="294" y="724"/>
      <point x="182" y="724" type="curve" smooth="yes"/>
      <point x="88" y="724"/>
      <point x="36" y="642"/>
      <point x="36" y="493" type="curve" smooth="yes"/>
      <point x="36" y="360"/>
      <point x="77" y="274"/>
      <point x="177" y="274" type="curve" smooth="yes"/>
      <point x="266" y="274"/>
      <point x="301" y="341"/>
      <point x="309" y="376" type="curve"/>
      <point x="310" y="376" type="line"/>
      <point x="310" y="143"/>
      <point x="250" y="16"/>
      <point x="138" y="16" type="curve" smooth="yes"/>
      <point x="113" y="16"/>
      <point x="85" y="22"/>
      <point x="66" y="29" type="curve"/>
      <point x="66" y="3" type="line"/>
      <point x="83" y="-5"/>
      <point x="112" y="-10"/>
      <point x="138" y="-10" type="curve" smooth="yes"/>
      <point x="249" y="-10"/>
      <point x="337" y="84"/>
    </contour>
    <contour>
      <point x="184" y="699" type="curve" smooth="yes"/>
      <point x="291" y="699"/>
      <point x="307" y="552"/>
      <point x="307" y="473" type="curve" smooth="yes"/>
      <point x="307" y="366"/>
      <point x="260" y="300"/>
      <point x="180" y="300" type="curve" smooth="yes"/>
      <point x="93" y="300"/>
      <point x="64" y="378"/>
      <point x="64" y="491" type="curve" smooth="yes"/>
      <point x="64" y="625"/>
      <point x="105" y="699"/>
    </contour>
  </outline>
</glyph>
<glyph name="colon.serif" format="2">
  <advance width="186"/>
  <unicode hex="003A"/>
  <outline>
    <contour>
      <point x="94" y="430" type="curve" smooth="yes"/>
      <point x="108" y="430"/>
      <point x="122" y="439"/>
      <point x="122" y="469" type="curve" smooth="yes"/>
      <point x="122" y="499"/>
      <point x="108" y="508"/>
      <point x="94" y="508" type="curve" smooth="yes"/>
      <point x="77" y="508"/>
      <point x="64" y="499"/>
      <point x="64" y="469" type="curve" smooth="yes"/>
      <point x="64" y="439"/>
      <point x="77" y="430"/>
    </contour>
    <contour>
      <point x="94" y="-5" type="curve" smooth="yes"/>
      <point x="108" y="-5"/>
      <point x="122" y="4"/>
      <point x="122" y="34" type="curve" smooth="yes"/>
      <point x="122" y="64"/>
      <point x="108" y="73"/>
      <point x="94" y="73" type="curve" smooth="yes"/>
      <point x="77" y="73"/>
      <point x="64" y="64"/>
      <point x="64" y="34" type="curve" smooth="yes"/>
      <point x="64" y="4"/>
      <point x="77" y="-5"/>
    </contour>
  </outline>
</glyph>
<glyph name="semicolon.mono" format="2">
  <advance width="500"/>
  <unicode hex="003B"/>
  <outline>
    <contour>
      <point x="188" y="-129" type="curve"/>
      <point x="210" y="-129" type="line"/>
      <point x="238" y="-59"/>
      <point x="260" y="28"/>
      <point x="273" y="96" type="curve"/>
      <point x="270" y="109" type="line"/>
      <point x="242" y="109" type="line"/>
      <point x="231" y="31"/>
      <point x="220" y="-23"/>
    </contour>
    <contour>
      <point x="253" y="466" type="curve" smooth="yes"/>
      <point x="274" y="466"/>
      <point x="279" y="479"/>
      <point x="279" y="499" type="curve" smooth="yes"/>
      <point x="279" y="519"/>
      <point x="274" y="532"/>
      <point x="253" y="532" type="curve" smooth="yes"/>
      <point x="233" y="532"/>
      <point x="228" y="517"/>
      <point x="228" y="499" type="curve" smooth="yes"/>
      <point x="228" y="480"/>
      <point x="233" y="466"/>
    </contour>
  </outline>
</glyph>
<glyph name="equal.mono" format="2">
  <advance width="500"/>
  <unicode hex="003D"/>
  <outline>
    <contour>
      <point x="50" y="445" type="line"/>
      <point x="450" y="445" type="line"/>
      <point x="450" y="470" type="line"/>
      <point x="50" y="470" type="line"/>
    </contour>
    <contour>
      <point x="50" y="236" type="line"/>
      <point x="450" y="236" type="line"/>
      <point x="450" y="261" type="line"/>
      <point x="50" y="261" type="line"/>
    </contour>
  </outline>
</glyph>
<glyph name="equal.serif" format="2">
  <advance width="425"/>
  <unicode hex="003D"/>
  <outline>
    <contour>
      <point x="51" y="443" type="line"/>
      <point x="373" y="443" type="line"/>
      <point x="373" y="471" type="line"/>
      <point x="51" y="471" type="line"/>
    </contour>
    <contour>
      <point x="51" y="244" type="line"/>
      <point x="373" y="244" type="line"/>
      <point x="373" y="272" type="line"/>
      <point x="51" y="272" type="line"/>
    </contour>
  </outline>
</glyph>
<glyph name="greater.mono" format="2">
  <advance width="500"/>
  <unicode hex="003E"/>
  <outline>
    <contour>
      <point x="50" y="143" type="line"/>
      <point x="449" y="354" type="line"/>
      <point x="449" y="374" type="line"/>
      <point x="50" y="572" type="line"/>
      <point x="50" y="545" type="line"/>
      <point x="418" y="364" type="line"/>
      <point x="50" y="170" type="line"/>
    </contour>
  </outline>
</glyph>
<glyph name="at.serif" format="2">
  <advance width="697"/>
  <unicode hex="0040"/>
  <outline>
    <contour>
      <point x="305" y="-142" type="curve" smooth="yes"/>
      <point x="393" y="-142"/>
      <point x="461" y="-90"/>
      <point x="509" y="-43" type="curve"/>
      <point x="494" y="-22" type="line"/>
      <point x="451" y="-65"/>
      <point x="392" y="-117"/>
      <point x="310" y="-117" type="curve" smooth="yes"/>
      <point x="173" y="-117"/>
      <point x="87" y="-25"/>
      <point x="87" y="197" type="curve" smooth="yes"/>
      <point x="87" y="479"/>
      <point x="221" y="689"/>
      <point x="398" y="689" type="curve" smooth="yes"/>
      <point x="555" y="689"/>
      <point x="621" y="558"/>
      <point x="621" y="392" type="curve" smooth="yes"/>
      <point x="621" y="216"/>
      <point x="556" y="102"/>
      <point x="499" y="102" type="curve" smooth="yes"/>
      <point x="456" y="102"/>
      <point x="446" y="137"/>
      <point x="446" y="194" type="curve" smooth="yes"/>
      <point x="446" y="219"/>
      <point x="448" y="245"/>
      <point x="454" y="279" type="curve" smooth="yes"/>
      <point x="496" y="520" type="line"/>
      <point x="486" y="520" type="line"/>
      <point x="466" y="495" type="line"/>
      <point x="453" y="508"/>
      <point x="429" y="529"/>
      <point x="391" y="529" type="curve" smooth="yes"/>
      <point x="265" y="529"/>
      <point x="207" y="373"/>
      <point x="207" y="248" type="curve" smooth="yes"/>
      <point x="207" y="129"/>
      <point x="248" y="77"/>
      <point x="310" y="77" type="curve" smooth="yes"/>
      <point x="369" y="77"/>
      <point x="397" y="120"/>
      <point x="418" y="168" type="curve"/>
      <point x="421" y="168" type="line"/>
      <point x="427" y="115"/>
      <point x="448" y="77"/>
      <point x="499" y="77" type="curve" smooth="yes"/>
      <point x="573" y="77"/>
      <point x="649" y="208"/>
      <point x="649" y="394" type="curve" smooth="yes"/>
      <point x="649" y="582"/>
      <point x="566" y="714"/>
      <point x="402" y="714" type="curve" smooth="yes"/>
      <point x="204" y="714"/>
      <point x="59" y="495"/>
      <point x="59" y="191" type="curve" smooth="yes"/>
      <point x="59" y="-32"/>
      <point x="151" y="-142"/>
    </contour>
    <contour>
      <point x="316" y="102" type="curve" smooth="yes"/>
      <point x="265" y="102"/>
      <point x="235" y="140"/>
      <point x="235" y="246" type="curve" smooth="yes"/>
      <point x="235" y="341"/>
      <point x="279" y="504"/>
      <point x="387" y="504" type="curve" smooth="yes"/>
      <point x="424" y="504"/>
      <point x="447" y="486"/>
      <point x="458" y="467" type="curve"/>
      <point x="420" y="245" type="line" smooth="yes"/>
      <point x="411" y="190"/>
      <point x="372" y="102"/>
    </contour>
  </outline>
</glyph>
<glyph name="A.serif" format="2">
  <advance width="499"/>
  <unicode hex="0041"/>
  <anchor x="428" y="0" name="bottom"/>
  <anchor x="250" y="714" name="top"/>
  <anchor x="399" y="714" name="topright"/>
  <outline>
    <contour>
      <point x="-2" y="0" type="line"/>
      <point x="165" y="0" type="line"/>
      <point x="165" y="20" type="line"/>
      <point x="143" y="20" type="line" smooth="yes"/>
      <point x="100" y="20"/>
      <point x="89" y="28"/>
      <point x="89" y="46" type="curve" smooth="yes"/>
      <point x="89" y="61"/>
      <point x="101" y="101"/>
      <point x="109" y="128" type="curve" smooth="yes"/>
      <point x="144" y="251" type="line"/>
      <point x="358" y="251" type="line"/>
      <point x="398" y="111" type="line" smooth="yes"/>
      <point x="405" y="86"/>
      <point x="414" y="58"/>
      <point x="414" y="48" type="curve" smooth="yes"/>
      <point x="414" y="27"/>
      <point x="406" y="20"/>
      <point x="362" y="20" type="curve" smooth="yes"/>
      <point x="342" y="20" type="line"/>
      <point x="342" y="0" type="line"/>
      <point x="499" y="0" type="line"/>
      <point x="499" y="20" type="line"/>
      <point x="492" y="20" type="line" smooth="yes"/>
      <point x="458" y="20"/>
      <point x="450" y="25"/>
      <point x="442" y="55" type="curve" smooth="yes"/>
      <point x="259" y="714" type="line"/>
      <point x="244" y="714" type="line"/>
      <point x="74" y="104" type="line" smooth="yes"/>
      <point x="54" y="32"/>
      <point x="47" y="20"/>
      <point x="13" y="20" type="curve" smooth="yes"/>
      <point x="-2" y="20" type="line"/>
    </contour>
    <contour>
      <point x="152" y="276" type="line"/>
      <point x="214" y="509" type="line" smooth="yes"/>
      <point x="229" y="567"/>
      <point x="245" y="619"/>
      <point x="251" y="653" type="curve"/>
      <point x="259" y="620"/>
      <point x="272" y="570"/>
      <point x="293" y="493" type="curve" smooth="yes"/>
      <point x="352" y="276" type="line"/>
    </contour>
  </outline>
</glyph>
<glyph name="B.serif" format="2">
  <advance width="474"/>
  <unicode hex="0042"/>
  <anchor x="237" y="0" name="bottom"/>
  <anchor x="237" y="714" name="top"/>
  <anchor x="454" y="714" name="topright"/>
  <outline>
    <contour>
      <point x="36" y="0" type="line"/>
      <point x="242" y="0" type="line" smooth="yes"/>
      <point x="359" y="0"/>
      <point x="414" y="62"/>
      <point x="414" y="189" type="curve" smooth="yes"/>
      <point x="414" y="319"/>
      <point x="362" y="366"/>
      <point x="300" y="379" type="curve"/>
      <point x="300" y="382" type="line"/>
      <point x="344" y="395"/>
      <point x="392" y="438"/>
      <point x="392" y="543" type="curve" smooth="yes"/>
      <point x="392" y="657"/>
      <point x="337" y="714"/>
      <point x="220" y="714" type="curve" smooth="yes"/>
      <point x="36" y="714" type="line"/>
      <point x="36" y="694" type="line"/>
      <point x="53" y="694" type="line" smooth="yes"/>
      <point x="103" y="694"/>
      <point x="109" y="684"/>
      <point x="109" y="607" type="curve" smooth="yes"/>
      <point x="109" y="110" type="line" smooth="yes"/>
      <point x="109" y="31"/>
      <point x="103" y="20"/>
      <point x="53" y="20" type="curve" smooth="yes"/>
      <point x="36" y="20" type="line"/>
    </contour>
    <contour>
      <point x="240" y="25" type="curve" smooth="yes"/>
      <point x="137" y="25" type="line"/>
      <point x="137" y="362" type="line"/>
      <point x="241" y="362" type="line" smooth="yes"/>
      <point x="354" y="362"/>
      <point x="387" y="304"/>
      <point x="387" y="192" type="curve" smooth="yes"/>
      <point x="387" y="80"/>
      <point x="350" y="25"/>
    </contour>
    <contour>
      <point x="219" y="387" type="curve" smooth="yes"/>
      <point x="137" y="387" type="line"/>
      <point x="137" y="689" type="line"/>
      <point x="224" y="689" type="line" smooth="yes"/>
      <point x="328" y="689"/>
      <point x="365" y="634"/>
      <point x="365" y="542" type="curve" smooth="yes"/>
      <point x="365" y="452"/>
      <point x="331" y="387"/>
    </contour>
  </outline>
</glyph>
<glyph name="C.serif" format="2">
  <advance width="427"/>
  <unicode hex="0043"/>
  <anchor x="254" y="0" name="bottom"/>
  <anchor x="257" y="714" name="top"/>
  <anchor x="407" y="714" name="topright"/>
  <outline>
    <contour>
      <point x="254" y="-10" type="curve" smooth="yes"/>
      <point x="339" y="-10"/>
      <point x="399" y="48"/>
      <point x="399" y="84" type="curve" smooth="yes"/>
      <point x="399" y="99"/>
      <point x="394" y="107"/>
      <point x="386" y="112" type="curve"/>
      <point x="364" y="55"/>
      <point x="328" y="15"/>
      <point x="254" y="15" type="curve" smooth="yes"/>
      <point x="131" y="15"/>
      <point x="72" y="162"/>
      <point x="72" y="358" type="curve" smooth="yes"/>
      <point x="72" y="553"/>
      <point x="130" y="699"/>
      <point x="256" y="699" type="curve" smooth="yes"/>
      <point x="345" y="699"/>
      <point x="382" y="650"/>
      <point x="382" y="566" type="curve"/>
      <point x="395" y="566"/>
      <point x="403" y="582"/>
      <point x="403" y="612" type="curve" smooth="yes"/>
      <point x="403" y="671"/>
      <point x="348" y="724"/>
      <point x="257" y="724" type="curve" smooth="yes"/>
      <point x="118" y="724"/>
      <point x="44" y="583"/>
      <point x="44" y="358" type="curve" smooth="yes"/>
      <point x="44" y="137"/>
      <point x="117" y="-10"/>
    </contour>
  </outline>
</glyph>
<glyph name="D.mono" format="2">
  <advance width="500"/>
  <unicode hex="0044"/>
  <anchor x="189" y="0" name="bottom"/>
  <anchor x="248" y="357" name="center"/>
  <anchor x="233" y="714" name="top"/>
  <anchor x="500" y="714" name="topright"/>
  <outline>
    <contour>
      <point x="65" y="0" type="line"/>
      <point x="189" y="0" type="line" smooth="yes"/>
      <point x="370" y="0"/>
      <point x="450" y="123"/>
      <point x="450" y="362" type="curve" smooth="yes"/>
      <point x="450" y="595"/>
      <point x="370" y="714"/>
      <point x="190" y="714" type="curve" smooth="yes"/>
      <point x="65" y="714" type="line"/>
    </contour>
    <contour>
      <point x="184" y="25" type="curve" smooth="yes"/>
      <point x="91" y="25" type="line"/>
      <point x="91" y="689" type="line"/>
      <point x="185" y="689" type="line" smooth="yes"/>
      <point x="362" y="689"/>
      <point x="423" y="569"/>
      <point x="423" y="360" type="curve" smooth="yes"/>
      <point x="423" y="140"/>
      <point x="353" y="25"/>
    </contour>
  </outline>
</glyph>
<glyph name="D.serif" format="2">
  <advance width="522"/>
  <unicode hex="0044"/>
  <anchor x="250" y="0" name="bottom"/>
  <anchor x="261" y="357" name="center"/>
  <anchor x="253" y="714" name="top"/>
  <anchor x="502" y="714" name="topright"/>
  <outline>
    <contour>
      <point x="36" y="0" type="line"/>
      <point x="234" y="0" type="line" smooth="yes"/>
      <point x="403" y="0"/>
      <point x="477" y="124"/>
      <point x="477" y="343" type="curve" smooth="yes"/>
      <point x="477" y="576"/>
      <point x="395" y="714"/>
      <point x="235" y="714" type="curve" smooth="yes"/>
      <point x="36" y="714" type="line"/>
      <point x="36" y="694" type="line"/>
      <point x="49" y="694" type="line" smooth="yes"/>
      <point x="102" y="694"/>
      <point x="110" y="686"/>
      <point x="110" y="609" type="curve" smooth="yes"/>
      <point x="110" y="110" type="line" smooth="yes"/>
      <point x="110" y="27"/>
      <point x="102" y="20"/>
      <point x="48" y="20" type="curve" smooth="yes"/>
      <point x="36" y="20" type="line"/>
    </contour>
    <contour>
      <point x="234" y="25" type="curve" smooth="yes"/>
      <point x="138" y="25" type="line"/>
      <point x="138" y="689" type="line"/>
      <point x="235" y="689" type="line" smooth="yes"/>
      <point x="378" y="689"/>
      <point x="449" y="557"/>
      <point x="449" y="343" type="curve" smooth="yes"/>
      <point x="449" y="128"/>
      <point x="378" y="25"/>
    </contour>
  </outline>
</glyph>
<glyph name="E.display" format="2">
  <advance width="370"/>
  <unicode hex="0045"/>
  <anchor x="196" y="0" name="bottom"/>
  <anchor x="210" y="714" name="top"/>
  <anchor x="351" y="714" name="topright"/>
  <outline>
    <contour>
      <point x="324" y="0" type="line"/>
      <point x="324" y="25" type="line"/>
      <point x="102" y="25" type="line"/>
      <point x="102" y="363" type="line"/>
      <point x="311" y="363" type="line"/>
      <point x="311" y="388" type="line"/>
      <point x="102" y="388" type="line"/>
      <point x="102" y="689" type="line"/>
      <point x="324" y="689" type="line"/>
      <point x="324" y="714" type="line"/>
      <point x="76" y="714" type="line"/>
      <point x="76" y="0" type="line"/>
    </contour>
  </outline>
</glyph>
<glyph name="E.serif" format="2">
  <advance width="449"/>
  <unicode hex="0045"/>
  <anchor x="225" y="0" name="bottom"/>
  <anchor x="225" y="714" name="top"/>
  <anchor x="429" y="714" name="topright"/>
  <outline>
    <contour>
      <point x="36" y="0" type="line"/>
      <point x="406" y="0" type="line"/>
      <point x="410" y="164" type="line"/>
      <point x="390" y="164" type="line"/>
      <point x="386" y="94" type="line" smooth="yes"/>
      <point x="382" y="33"/>
      <point x="379" y="25"/>
      <point x="314" y="25" type="curve" smooth="yes"/>
      <point x="135" y="25" type="line"/>
      <point x="137" y="362" type="line"/>
      <point x="327" y="362" type="line"/>
      <point x="327" y="387" type="line"/>
      <point x="137" y="387" type="line"/>
      <point x="137" y="689" type="line"/>
      <point x="287" y="689" type="line" smooth="yes"/>
      <point x="355" y="689"/>
      <point x="359" y="682"/>
      <point x="363" y="600" type="curve" smooth="yes"/>
      <point x="365" y="550" type="line"/>
      <point x="385" y="550" type="line"/>
      <point x="380" y="714" type="line"/>
      <point x="36" y="714" type="line"/>
      <point x="36" y="694" type="line"/>
      <point x="53" y="694" type="line" smooth="yes"/>
      <point x="103" y="694"/>
      <point x="109" y="683"/>
      <point x="109" y="606" type="curve" smooth="yes"/>
      <point x="109" y="108" type="line" smooth="yes"/>
      <point x="109" y="31"/>
      <point x="103" y="20"/>
      <point x="53" y="20" type="curve" smooth="yes"/>
      <point x="36" y="20" type="line"/>
    </contour>
  </outline>
</glyph>
<glyph name="H.serif" format="2">
  <advance width="583"/>
  <unicode hex="0048"/>
  <anchor x="292" y="0" name="bottom"/>
  <anchor x="292" y="370" name="center"/>
  <anchor x="292" y="714" name="top"/>
  <anchor x="563" y="714" name="topright"/>
  <outline>
    <contour>
      <point x="37" y="0" type="line"/>
      <point x="219" y="0" type="line"/>
      <point x="219" y="20" type="line"/>
      <point x="194" y="20" type="line" smooth="yes"/>
      <point x="144" y="20"/>
      <point x="138" y="31"/>
      <point x="138" y="108" type="curve" smooth="yes"/>
      <point x="138" y="361" type="line"/>
      <point x="444" y="361" type="line"/>
      <point x="444" y="108" type="line" smooth="yes"/>
      <point x="444" y="31"/>
      <point x="438" y="20"/>
      <point x="388" y="20" type="curve" smooth="yes"/>
      <point x="363" y="20" type="line"/>
      <point x="363" y="0" type="line"/>
      <point x="547" y="0" type="line"/>
      <point x="547" y="20" type="line"/>
      <point x="528" y="20" type="line" smooth="yes"/>
      <point x="478" y="20"/>
      <point x="472" y="31"/>
      <point x="472" y="108" type="curve" smooth="yes"/>
      <point x="472" y="606" type="line" smooth="yes"/>
      <point x="472" y="683"/>
      <point x="478" y="694"/>
      <point x="528" y="694" type="curve" smooth="yes"/>
      <point x="547" y="694" type="line"/>
      <point x="547" y="714" type="line"/>
      <point x="363" y="714" type="line"/>
      <point x="363" y="694" type="line"/>
      <point x="388" y="694" type="line" smooth="yes"/>
      <point x="438" y="694"/>
      <point x="444" y="683"/>
      <point x="444" y="606" type="curve" smooth="yes"/>
      <point x="444" y="386" type="line"/>
      <point x="138" y="386" type="line"/>
      <point x="138" y="606" type="line" smooth="yes"/>
      <point x="138" y="683"/>
      <point x="144" y="694"/>
      <point x="194" y="694" type="curve" smooth="yes"/>
      <point x="219" y="694" type="line"/>
      <point x="219" y="714" type="line"/>
      <point x="37" y="714" type="line"/>
      <point x="37" y="694" type="line"/>
      <point x="54" y="694" type="line" smooth="yes"/>
      <point x="104" y="694"/>
      <point x="110" y="683"/>
      <point x="110" y="606" type="curve" smooth="yes"/>
      <point x="110" y="108" type="line" smooth="yes"/>
      <point x="110" y="31"/>
      <point x="104" y="20"/>
      <point x="54" y="20" type="curve" smooth="yes"/>
      <point x="37" y="20" type="line"/>
    </contour>
  </outline>
</glyph>
<glyph name="I.serif" format="2">
  <advance width="253"/>
  <unicode hex="0049"/>
  <anchor x="127" y="0" name="bottom"/>
  <anchor x="127" y="714" name="top"/>
  <anchor x="233" y="714" name="topright"/>
  <outline>
    <contour>
      <point x="36" y="0" type="line"/>
      <point x="216" y="0" type="line"/>
      <point x="216" y="20" type="line"/>
      <point x="196" y="20" type="line" smooth="yes"/>
      <point x="146" y="20"/>
      <point x="140" y="31"/>
      <point x="140" y="108" type="curve" smooth="yes"/>
      <point x="140" y="606" type="line" smooth="yes"/>
      <point x="140" y="683"/>
      <point x="146" y="694"/>
      <point x="196" y="694" type="curve" smooth="yes"/>
      <point x="216" y="694" type="line"/>
      <point x="216" y="714" type="line"/>
      <point x="36" y="714" type="line"/>
      <point x="36" y="694" type="line"/>
      <point x="56" y="694" type="line" smooth="yes"/>
      <point x="106" y="694"/>
      <point x="112" y="683"/>
      <point x="112" y="606" type="curve" smooth="yes"/>
      <point x="112" y="108" type="line" smooth="yes"/>
      <point x="112" y="31"/>
      <point x="106" y="20"/>
      <point x="56" y="20" type="curve" smooth="yes"/>
      <point x="36" y="20" type="line"/>
    </contour>
  </outline>
</glyph>
<glyph name="J.serif" format="2">
  <advance width="257"/>
  <unicode hex="004A"/>
  <anchor x="87" y="-240" name="bottom"/>
  <anchor x="135" y="714" name="top"/>
  <anchor x="237" y="714" name="topright"/>
  <outline>
    <contour>
      <point x="8" y="-240" type="line"/>
      <point x="10" y="-240" type="line" smooth="yes"/>
      <point x="97" y="-239"/>
      <point x="148" y="-190"/>
      <point x="148" y="-15" type="curve" smooth="yes"/>
      <point x="148" y="606" type="line" smooth="yes"/>
      <point x="148" y="683"/>
      <point x="154" y="694"/>
      <point x="204" y="694" type="curve" smooth="yes"/>
      <point x="224" y="694" type="line"/>
      <point x="224" y="714" type="line"/>
      <point x="44" y="714" type="line"/>
      <point x="44" y="694" type="line"/>
      <point x="64" y="694" type="line" smooth="yes"/>
      <point x="114" y="694"/>
      <point x="120" y="683"/>
      <point x="120" y="606" type="curve" smooth="yes"/>
      <point x="120" y="-16" type="line" smooth="yes"/>
      <point x="120" y="-165"/>
      <point x="91" y="-215"/>
      <point x="9" y="-215" type="curve" smooth="yes"/>
      <point x="8" y="-215" type="line"/>
    </contour>
  </outline>
</glyph>
<glyph name="K.serif" format="2">
  <advance width="503"/>
  <unicode hex="004B"/>
  <anchor x="272" y="0" name="bottom"/>
  <anchor x="272" y="714" name="top"/>
  <anchor x="483" y="714" name="topright"/>
  <outline>
    <contour>
      <point x="36" y="0" type="line"/>
      <point x="219" y="0" type="line"/>
      <point x="219" y="20" type="line"/>
      <point x="194" y="20" type="line" smooth="yes"/>
      <point x="143" y="20"/>
      <point x="138" y="31"/>
      <point x="138" y="112" type="curve" smooth="yes"/>
      <point x="138" y="234" type="line"/>
      <point x="238" y="383" type="line"/>
      <point x="410" y="89" type="line" smooth="yes"/>
      <point x="456" y="11"/>
      <point x="471" y="0"/>
      <point x="514" y="0" type="curve" smooth="yes"/>
      <point x="520" y="0" type="line"/>
      <point x="520" y="20" type="line"/>
      <point x="515" y="20" type="line" smooth="yes"/>
      <point x="486" y="20"/>
      <point x="474" y="37"/>
      <point x="433" y="106" type="curve" smooth="yes"/>
      <point x="255" y="409" type="line"/>
      <point x="376" y="589" type="line" smooth="yes"/>
      <point x="435" y="676"/>
      <point x="437" y="694"/>
      <point x="480" y="694" type="curve"/>
      <point x="480" y="714" type="line"/>
      <point x="350" y="714" type="line"/>
      <point x="350" y="694" type="line"/>
      <point x="387" y="694"/>
      <point x="400" y="690"/>
      <point x="400" y="680" type="curve" smooth="yes"/>
      <point x="400" y="667"/>
      <point x="387" y="650"/>
      <point x="345" y="587" type="curve" smooth="yes"/>
      <point x="138" y="278" type="line"/>
      <point x="138" y="607" type="line" smooth="yes"/>
      <point x="138" y="683"/>
      <point x="144" y="694"/>
      <point x="194" y="694" type="curve" smooth="yes"/>
      <point x="219" y="694" type="line"/>
      <point x="219" y="714" type="line"/>
      <point x="36" y="714" type="line"/>
      <point x="36" y="694" type="line"/>
      <point x="54" y="694" type="line" smooth="yes"/>
      <point x="104" y="694"/>
      <point x="110" y="683"/>
      <point x="110" y="607" type="curve" smooth="yes"/>
      <point x="110" y="108" type="line" smooth="yes"/>
      <point x="110" y="31"/>
      <point x="104" y="20"/>
      <point x="54" y="20" type="curve" smooth="yes"/>
      <point x="36" y="20" type="line"/>
    </contour>
  </outline>
</glyph>
<glyph name="L.serif" format="2">
  <advance width="448"/>
  <unicode hex="004C"/>
  <anchor x="224" y="0" name="bottom"/>
  <anchor x="124" y="357" name="center"/>
  <anchor x="126" y="714" name="top"/>
  <anchor x="428" y="714" name="topright"/>
  <outline>
    <contour>
      <point x="36" y="0" type="line"/>
      <point x="406" y="0" type="line"/>
      <point x="410" y="205" type="line"/>
      <point x="390" y="205" type="line"/>
      <point x="387" y="94" type="line" smooth="yes"/>
      <point x="386" y="39"/>
      <point x="380" y="25"/>
      <point x="328" y="25" type="curve" smooth="yes"/>
      <point x="138" y="25" type="line"/>
      <point x="138" y="606" type="line" smooth="yes"/>
      <point x="138" y="683"/>
      <point x="144" y="694"/>
      <point x="194" y="694" type="curve" smooth="yes"/>
      <point x="216" y="694" type="line"/>
      <point x="216" y="714" type="line"/>
      <point x="36" y="714" type="line"/>
      <point x="36" y="694" type="line"/>
      <point x="54" y="694" type="line" smooth="yes"/>
      <point x="104" y="694"/>
      <point x="110" y="683"/>
      <point x="110" y="606" type="curve" smooth="yes"/>
      <point x="110" y="108" type="line" smooth="yes"/>
      <point x="110" y="31"/>
      <point x="104" y="20"/>
      <point x="54" y="20" type="curve" smooth="yes"/>
      <point x="36" y="20" type="line"/>
    </contour>
  </outline>
</glyph>
<glyph name="M.serif" format="2">
  <advance width="701"/>
  <unicode hex="004D"/>
  <anchor x="354" y="0" name="bottom"/>
  <anchor x="351" y="714" name="top"/>
  <anchor x="681" y="714" name="topright"/>
  <outline>
    <contour>
      <point x="36" y="0" type="line"/>
      <point x="208" y="0" type="line"/>
      <point x="208" y="20" type="line"/>
      <point x="191" y="20" type="line" smooth="yes"/>
      <point x="141" y="20"/>
      <point x="135" y="31"/>
      <point x="135" y="108" type="curve" smooth="yes"/>
      <point x="135" y="663" type="line"/>
      <point x="342" y="0" type="line"/>
      <point x="365" y="0" type="line"/>
      <point x="563" y="669" type="line"/>
      <point x="563" y="108" type="line" smooth="yes"/>
      <point x="563" y="31"/>
      <point x="557" y="20"/>
      <point x="507" y="20" type="curve" smooth="yes"/>
      <point x="488" y="20" type="line"/>
      <point x="488" y="0" type="line"/>
      <point x="665" y="0" type="line"/>
      <point x="665" y="20" type="line"/>
      <point x="647" y="20" type="line" smooth="yes"/>
      <point x="597" y="20"/>
      <point x="591" y="31"/>
      <point x="591" y="108" type="curve" smooth="yes"/>
      <point x="591" y="606" type="line" smooth="yes"/>
      <point x="591" y="683"/>
      <point x="597" y="694"/>
      <point x="647" y="694" type="curve" smooth="yes"/>
      <point x="665" y="694" type="line"/>
      <point x="665" y="714" type="line"/>
      <point x="551" y="714" type="line"/>
      <point x="355" y="52" type="line"/>
      <point x="145" y="714" type="line"/>
      <point x="36" y="714" type="line"/>
      <point x="36" y="694" type="line"/>
      <point x="54" y="694" type="line" smooth="yes"/>
      <point x="104" y="694"/>
      <point x="110" y="683"/>
      <point x="110" y="606" type="curve" smooth="yes"/>
      <point x="110" y="108" type="line" smooth="yes"/>
      <point x="110" y="31"/>
      <point x="104" y="20"/>
      <point x="54" y="20" type="curve" smooth="yes"/>
      <point x="36" y="20" type="line"/>
    </contour>
  </outline>
</glyph>
<glyph name="N.serif" format="2">
  <advance width="559"/>
  <unicode hex="004E"/>
  <anchor x="290" y="0" name="bottom"/>
  <anchor x="280" y="714" name="top"/>
  <anchor x="539" y="714" name="topright"/>
  <outline>
    <contour>
      <point x="36" y="0" type="line"/>
      <point x="219" y="0" type="line"/>
      <point x="219" y="20" type="line"/>
      <point x="191" y="20" type="line" smooth="yes"/>
      <point x="141" y="20"/>
      <point x="135" y="31"/>
      <point x="135" y="108" type="curve" smooth="yes"/>
      <point x="135" y="639" type="line"/>
      <point x="432" y="0" type="line"/>
      <point x="457" y="0" type="line"/>
      <point x="457" y="606" type="line" smooth="yes"/>
      <point x="457" y="683"/>
      <point x="463" y="694"/>
      <point x="513" y="694" type="curve" smooth="yes"/>
      <point x="531" y="694" type="line"/>
      <point x="531" y="714" type="line"/>
      <point x="348" y="714" type="line"/>
      <point x="348" y="694" type="line"/>
      <point x="376" y="694" type="line" smooth="yes"/>
      <point x="426" y="694"/>
      <point x="432" y="683"/>
      <point x="432" y="606" type="curve" smooth="yes"/>
      <point x="432" y="67" type="line"/>
      <point x="131" y="714" type="line"/>
      <point x="36" y="714" type="line"/>
      <point x="36" y="694" type="line"/>
      <point x="54" y="694" type="line" smooth="yes"/>
      <point x="104" y="694"/>
      <point x="110" y="683"/>
      <point x="110" y="606" type="curve" smooth="yes"/>
      <point x="110" y="108" type="line" smooth="yes"/>
      <point x="110" y="31"/>
      <point x="104" y="20"/>
      <point x="54" y="20" type="curve" smooth="yes"/>
      <point x="36" y="20" type="line"/>
    </contour>
  </outline>
</glyph>
<glyph name="P.serif" format="2">
  <advance width="433"/>
  <unicode hex="0050"/>
  <anchor x="123" y="0" name="bottom"/>
  <anchor x="217" y="714" name="top"/>
  <anchor x="418" y="714" name="topright"/>
  <outline>
    <contour>
      <point x="36" y="0" type="line"/>
      <point x="222" y="0" type="line"/>
      <point x="222" y="20" type="line"/>
      <point x="193" y="20" type="line" smooth="yes"/>
      <point x="143" y="20"/>
      <point x="137" y="31"/>
      <point x="137" y="108" type="curve" smooth="yes"/>
      <point x="137" y="284" type="line"/>
      <point x="207" y="284" type="line" smooth="yes"/>
      <point x="349" y="284"/>
      <point x="393" y="399"/>
      <point x="393" y="509" type="curve" smooth="yes"/>
      <point x="393" y="647"/>
      <point x="339" y="714"/>
      <point x="217" y="714" type="curve" smooth="yes"/>
      <point x="36" y="714" type="line"/>
      <point x="36" y="694" type="line"/>
      <point x="53" y="694" type="line" smooth="yes"/>
      <point x="103" y="694"/>
      <point x="109" y="683"/>
      <point x="109" y="606" type="curve" smooth="yes"/>
      <point x="109" y="109" type="line" smooth="yes"/>
      <point x="109" y="31"/>
      <point x="103" y="20"/>
      <point x="53" y="20" type="curve" smooth="yes"/>
      <point x="36" y="20" type="line"/>
    </contour>
    <contour>
      <point x="210" y="309" type="curve" smooth="yes"/>
      <point x="137" y="309" type="line"/>
      <point x="137" y="689" type="line"/>
      <point x="217" y="689" type="line" smooth="yes"/>
      <point x="325" y="689"/>
      <point x="365" y="629"/>
      <point x="365" y="509" type="curve" smooth="yes"/>
      <point x="365" y="420"/>
      <point x="333" y="309"/>
    </contour>
  </outline>
</glyph>
<glyph name="Q.serif" format="2">
  <advance width="530"/>
  <unicode hex="0051"/>
  <anchor x="265" y="-220" name="bottom"/>
  <anchor x="265" y="714" name="top"/>
  <anchor x="510" y="714" name="topright"/>
  <outline>
    <contour>
      <point x="411" y="-220" type="curve" smooth="yes"/>
      <point x="423" y="-220" type="line"/>
      <point x="423" y="-195" type="line"/>
      <point x="410" y="-195" type="line" smooth="yes"/>
      <point x="347" y="-195"/>
      <point x="300" y="-168"/>
      <point x="288" y="-9" type="curve"/>
      <point x="413" y="6"/>
      <point x="485" y="138"/>
      <point x="485" y="358" type="curve" smooth="yes"/>
      <point x="485" y="610"/>
      <point x="414" y="725"/>
      <point x="265" y="725" type="curve" smooth="yes"/>
      <point x="118" y="725"/>
      <point x="44" y="596"/>
      <point x="44" y="359" type="curve" smooth="yes"/>
      <point x="44" y="139"/>
      <point x="115" y="-7"/>
      <point x="259" y="-10" type="curve"/>
      <point x="269" y="-185"/>
      <point x="341" y="-220"/>
    </contour>
    <contour>
      <point x="264" y="15" type="curve" smooth="yes"/>
      <point x="137" y="15"/>
      <point x="72" y="153"/>
      <point x="72" y="358" type="curve" smooth="yes"/>
      <point x="72" y="574"/>
      <point x="131" y="700"/>
      <point x="265" y="700" type="curve" smooth="yes"/>
      <point x="406" y="700"/>
      <point x="457" y="574"/>
      <point x="457" y="358" type="curve" smooth="yes"/>
      <point x="457" y="146"/>
      <point x="392" y="15"/>
    </contour>
  </outline>
</glyph>
<glyph name="R.serif" format="2">
  <advance width="457"/>
  <unicode hex="0052"/>
  <anchor x="239" y="0" name="bottom"/>
  <anchor x="229" y="714" name="top"/>
  <anchor x="437" y="714" name="topright"/>
  <outline>
    <contour>
      <point x="36" y="0" type="line"/>
      <point x="219" y="0" type="line"/>
      <point x="219" y="20" type="line"/>
      <point x="194" y="20" type="line" smooth="yes"/>
      <point x="144" y="20"/>
      <point x="138" y="31"/>
      <point x="138" y="108" type="curve" smooth="yes"/>
      <point x="138" y="321" type="line"/>
      <point x="233" y="321" type="line"/>
      <point x="347" y="93" type="line" smooth="yes"/>
      <point x="385" y="21"/>
      <point x="408" y="0"/>
      <point x="461" y="0" type="curve" smooth="yes"/>
      <point x="464" y="0" type="line"/>
      <point x="464" y="20" type="line"/>
      <point x="459" y="20" type="line" smooth="yes"/>
      <point x="423" y="20"/>
      <point x="402" y="47"/>
      <point x="372" y="106" type="curve" smooth="yes"/>
      <point x="259" y="330" type="line"/>
      <point x="317" y="349"/>
      <point x="380" y="393"/>
      <point x="380" y="528" type="curve" smooth="yes"/>
      <point x="380" y="649"/>
      <point x="329" y="714"/>
      <point x="200" y="714" type="curve" smooth="yes"/>
      <point x="36" y="714" type="line"/>
      <point x="36" y="694" type="line"/>
      <point x="54" y="694" type="line" smooth="yes"/>
      <point x="104" y="694"/>
      <point x="110" y="683"/>
      <point x="110" y="606" type="curve" smooth="yes"/>
      <point x="110" y="108" type="line" smooth="yes"/>
      <point x="110" y="31"/>
      <point x="104" y="20"/>
      <point x="54" y="20" type="curve" smooth="yes"/>
      <point x="36" y="20" type="line"/>
    </contour>
    <contour>
      <point x="189" y="346" type="curve" smooth="yes"/>
      <point x="138" y="346" type="line"/>
      <point x="138" y="689" type="line"/>
      <point x="206" y="689" type="line" smooth="yes"/>
      <point x="313" y="689"/>
      <point x="352" y="629"/>
      <point x="352" y="528" type="curve" smooth="yes"/>
      <point x="352" y="410"/>
      <point x="301" y="346"/>
    </contour>
  </outline>
</glyph>
<glyph name="T.mono" format="2">
  <advance width="500"/>
  <unicode hex="0054"/>
  <anchor x="250" y="0" name="bottom"/>
  <anchor x="250" y="357" name="center"/>
  <anchor x="250" y="714" name="top"/>
  <anchor x="480" y="714" name="topright"/>
  <outline>
    <contour>
      <point x="236" y="0" type="line"/>
      <point x="262" y="0" type="line"/>
      <point x="262" y="689" type="line"/>
      <point x="455" y="689" type="line"/>
      <point x="455" y="714" type="line"/>
      <point x="45" y="714" type="line"/>
      <point x="45" y="689" type="line"/>
      <point x="236" y="689" type="line"/>
    </contour>
  </outline>
</glyph>
<glyph name="T.serif" format="2">
  <advance width="436"/>
  <unicode hex="0054"/>
  <anchor x="218" y="0" name="bottom"/>
  <anchor x="218" y="357" name="center"/>
  <anchor x="218" y="714" name="top"/>
  <anchor x="416" y="714" name="topright"/>
  <outline>
    <contour>
      <point x="112" y="0" type="line"/>
      <point x="319" y="0" type="line"/>
      <point x="319" y="20" type="line"/>
      <point x="286" y="20" type="line" smooth="yes"/>
      <point x="236" y="20"/>
      <point x="230" y="31"/>
      <point x="230" y="108" type="curve" smooth="yes"/>
      <point x="230" y="689" type="line"/>
      <point x="330" y="689" type="line" smooth="yes"/>
      <point x="382" y="689"/>
      <point x="388" y="675"/>
      <point x="390" y="620" type="curve" smooth="yes"/>
      <point x="392" y="563" type="line"/>
      <point x="412" y="563" type="line"/>
      <point x="408" y="714" type="line"/>
      <point x="27" y="714" type="line"/>
      <point x="23" y="563" type="line"/>
      <point x="43" y="563" type="line"/>
      <point x="45" y="620" type="line" smooth="yes"/>
      <point x="47" y="675"/>
      <point x="53" y="689"/>
      <point x="105" y="689" type="curve" smooth="yes"/>
      <point x="202" y="689" type="line"/>
      <point x="202" y="108" type="line" smooth="yes"/>
      <point x="202" y="31"/>
      <point x="196" y="20"/>
      <point x="146" y="20" type="curve" smooth="yes"/>
      <point x="112" y="20" type="line"/>
    </contour>
  </outline>
</glyph>
<glyph name="U.serif" format="2">
  <advance width="520"/>
  <unicode hex="0055"/>
  <anchor x="260" y="0" name="bottom"/>
  <anchor x="260" y="714" name="top"/>
  <anchor x="505" y="714" name="topright"/>
  <outline>
    <contour>
      <point x="256" y="-10" type="curve" smooth="yes"/>
      <point x="379" y="-10"/>
      <point x="436" y="89"/>
      <point x="436" y="200" type="curve" smooth="yes"/>
      <point x="436" y="607" type="line" smooth="yes"/>
      <point x="436" y="683"/>
      <point x="442" y="694"/>
      <point x="492" y="694" type="curve" smooth="yes"/>
      <point x="509" y="694" type="line"/>
      <point x="509" y="714" type="line"/>
      <point x="328" y="714" type="line"/>
      <point x="328" y="694" type="line"/>
      <point x="352" y="694" type="line" smooth="yes"/>
      <point x="402" y="694"/>
      <point x="408" y="683"/>
      <point x="408" y="607" type="curve" smooth="yes"/>
      <point x="408" y="202" type="line" smooth="yes"/>
      <point x="408" y="114"/>
      <point x="369" y="15"/>
      <point x="257" y="15" type="curve" smooth="yes"/>
      <point x="169" y="15"/>
      <point x="111" y="74"/>
      <point x="111" y="210" type="curve" smooth="yes"/>
      <point x="111" y="606" type="line" smooth="yes"/>
      <point x="111" y="684"/>
      <point x="118" y="694"/>
      <point x="167" y="694" type="curve" smooth="yes"/>
      <point x="190" y="694" type="line"/>
      <point x="190" y="714" type="line"/>
      <point x="10" y="714" type="line"/>
      <point x="10" y="694" type="line"/>
      <point x="27" y="694" type="line" smooth="yes"/>
      <point x="77" y="694"/>
      <point x="83" y="683"/>
      <point x="83" y="609" type="curve" smooth="yes"/>
      <point x="83" y="214" type="line" smooth="yes"/>
      <point x="83" y="55"/>
      <point x="153" y="-10"/>
    </contour>
  </outline>
</glyph>
<glyph name="V.serif" format="2">
  <advance width="494"/>
  <unicode hex="0056"/>
  <anchor x="247" y="0" name="bottom"/>
  <anchor x="247" y="714" name="top"/>
  <anchor x="474" y="714" name="topright"/>
  <outline>
    <contour>
      <point x="65" y="646" type="curve" smooth="yes"/>
      <point x="232" y="0" type="line"/>
      <point x="261" y="0" type="line"/>
      <point x="428" y="646" type="line" smooth="yes"/>
      <point x="440" y="691"/>
      <point x="447" y="694"/>
      <point x="491" y="694" type="curve" smooth="yes"/>
      <point x="494" y="694" type="line"/>
      <point x="494" y="714" type="line"/>
      <point x="319" y="714" type="line"/>
      <point x="319" y="694" type="line"/>
      <point x="344" y="694" type="line" smooth="yes"/>
      <point x="394" y="694"/>
      <point x="399" y="685"/>
      <point x="399" y="666" type="curve" smooth="yes"/>
      <point x="399" y="643"/>
      <point x="384" y="587"/>
      <point x="379" y="567" type="curve" smooth="yes"/>
      <point x="295" y="244" type="line" smooth="yes"/>
      <point x="271" y="150"/>
      <point x="262" y="102"/>
      <point x="247" y="35" type="curve"/>
      <point x="231" y="98"/>
      <point x="222" y="152"/>
      <point x="198" y="244" type="curve" smooth="yes"/>
      <point x="114" y="567" type="line" smooth="yes"/>
      <point x="109" y="588"/>
      <point x="94" y="643"/>
      <point x="94" y="666" type="curve" smooth="yes"/>
      <point x="94" y="685"/>
      <point x="99" y="694"/>
      <point x="149" y="694" type="curve" smooth="yes"/>
      <point x="168" y="694" type="line"/>
      <point x="168" y="714" type="line"/>
      <point x="0" y="714" type="line"/>
      <point x="0" y="694" type="line"/>
      <point x="4" y="694" type="line" smooth="yes"/>
      <point x="46" y="694"/>
      <point x="54" y="690"/>
    </contour>
  </outline>
</glyph>
<glyph name="W.serif" format="2">
  <advance width="778"/>
  <unicode hex="0057"/>
  <anchor x="389" y="0" name="bottom"/>
  <anchor x="389" y="714" name="top"/>
  <anchor x="758" y="714" name="topright"/>
  <outline>
    <contour>
      <point x="80" y="646" type="curve" smooth="yes"/>
      <point x="205" y="0" type="line"/>
      <point x="233" y="0" type="line"/>
      <point x="387" y="660" type="line"/>
      <point x="529" y="0" type="line"/>
      <point x="557" y="0" type="line"/>
      <point x="698" y="645" type="line" smooth="yes"/>
      <point x="708" y="691"/>
      <point x="718" y="694"/>
      <point x="762" y="694" type="curve" smooth="yes"/>
      <point x="765" y="694" type="line"/>
      <point x="765" y="714" type="line"/>
      <point x="593" y="714" type="line"/>
      <point x="593" y="694" type="line"/>
      <point x="619" y="694" type="line" smooth="yes"/>
      <point x="669" y="694"/>
      <point x="674" y="685"/>
      <point x="674" y="666" type="curve" smooth="yes"/>
      <point x="674" y="652"/>
      <point x="669" y="631"/>
      <point x="661" y="593" type="curve" smooth="yes"/>
      <point x="578" y="213" type="line" smooth="yes"/>
      <point x="566" y="158"/>
      <point x="553" y="92"/>
      <point x="543" y="52" type="curve"/>
      <point x="533" y="100"/>
      <point x="524" y="148"/>
      <point x="511" y="210" type="curve" smooth="yes"/>
      <point x="402" y="714" type="line"/>
      <point x="374" y="714" type="line"/>
      <point x="252" y="191" type="line" smooth="yes"/>
      <point x="240" y="139"/>
      <point x="231" y="100"/>
      <point x="220" y="46" type="curve"/>
      <point x="211" y="104"/>
      <point x="208" y="133"/>
      <point x="196" y="195" type="curve" smooth="yes"/>
      <point x="119" y="591" type="line" smooth="yes"/>
      <point x="112" y="629"/>
      <point x="106" y="653"/>
      <point x="106" y="666" type="curve" smooth="yes"/>
      <point x="106" y="685"/>
      <point x="111" y="694"/>
      <point x="161" y="694" type="curve" smooth="yes"/>
      <point x="178" y="694" type="line"/>
      <point x="178" y="714" type="line"/>
      <point x="14" y="714" type="line"/>
      <point x="14" y="694" type="line"/>
      <point x="17" y="694" type="line" smooth="yes"/>
      <point x="60" y="694"/>
      <point x="71" y="690"/>
    </contour>
  </outline>
</glyph>
<glyph name="X.serif" format="2">
  <advance width="447"/>
  <unicode hex="0058"/>
  <anchor x="224" y="0" name="bottom"/>
  <anchor x="224" y="714" name="top"/>
  <anchor x="427" y="714" name="topright"/>
  <outline>
    <contour>
      <point x="4" y="0" type="line"/>
      <point x="175" y="0" type="line"/>
      <point x="175" y="20" type="line"/>
      <point x="145" y="20" type="line" smooth="yes"/>
      <point x="105" y="20"/>
      <point x="101" y="27"/>
      <point x="101" y="40" type="curve" smooth="yes"/>
      <point x="101" y="53"/>
      <point x="107" y="70"/>
      <point x="141" y="143" type="curve" smooth="yes"/>
      <point x="222" y="337" type="line"/>
      <point x="321" y="121" type="line" smooth="yes"/>
      <point x="345" y="68"/>
      <point x="355" y="47"/>
      <point x="355" y="36" type="curve" smooth="yes"/>
      <point x="355" y="26"/>
      <point x="351" y="20"/>
      <point x="313" y="20" type="curve" smooth="yes"/>
      <point x="283" y="20" type="line"/>
      <point x="283" y="0" type="line"/>
      <point x="441" y="0" type="line"/>
      <point x="441" y="20" type="line"/>
      <point x="437" y="20" type="line" smooth="yes"/>
      <point x="401" y="20"/>
      <point x="394" y="23"/>
      <point x="374" y="68" type="curve" smooth="yes"/>
      <point x="236" y="371" type="line"/>
      <point x="352" y="648" type="line" smooth="yes"/>
      <point x="370" y="692"/>
      <point x="379" y="694"/>
      <point x="417" y="694" type="curve" smooth="yes"/>
      <point x="423" y="694" type="line"/>
      <point x="423" y="714" type="line"/>
      <point x="270" y="714" type="line"/>
      <point x="270" y="694" type="line"/>
      <point x="295" y="694" type="line" smooth="yes"/>
      <point x="329" y="694"/>
      <point x="332" y="686"/>
      <point x="332" y="674" type="curve" smooth="yes"/>
      <point x="332" y="658"/>
      <point x="320" y="637"/>
      <point x="308" y="607" type="curve" smooth="yes"/>
      <point x="222" y="402" type="line"/>
      <point x="128" y="608" type="line" smooth="yes"/>
      <point x="114" y="640"/>
      <point x="101" y="667"/>
      <point x="101" y="676" type="curve" smooth="yes"/>
      <point x="101" y="688"/>
      <point x="104" y="694"/>
      <point x="140" y="694" type="curve" smooth="yes"/>
      <point x="168" y="694" type="line"/>
      <point x="168" y="714" type="line"/>
      <point x="9" y="714" type="line"/>
      <point x="9" y="694" type="line"/>
      <point x="13" y="694" type="line" smooth="yes"/>
      <point x="54" y="694"/>
      <point x="61" y="691"/>
      <point x="81" y="647" type="curve" smooth="yes"/>
      <point x="208" y="368" type="line"/>
      <point x="82" y="67" type="line" smooth="yes"/>
      <point x="63" y="22"/>
      <point x="54" y="20"/>
      <point x="10" y="20" type="curve" smooth="yes"/>
      <point x="4" y="20" type="line"/>
    </contour>
  </outline>
</glyph>
<glyph name="Y.serif" format="2">
  <advance width="422"/>
  <unicode hex="0059"/>
  <anchor x="211" y="0" name="bottom"/>
  <anchor x="211" y="714" name="top"/>
  <anchor x="402" y="714" name="topright"/>
  <outline>
    <contour>
      <point x="116" y="0" type="line"/>
      <point x="308" y="0" type="line"/>
      <point x="308" y="20" type="line"/>
      <point x="282" y="20" type="line" smooth="yes"/>
      <point x="232" y="20"/>
      <point x="226" y="31"/>
      <point x="226" y="108" type="curve" smooth="yes"/>
      <point x="226" y="356" type="line"/>
      <point x="370" y="652" type="line" smooth="yes"/>
      <point x="390" y="692"/>
      <point x="399" y="694"/>
      <point x="425" y="694" type="curve" smooth="yes"/>
      <point x="427" y="694" type="line"/>
      <point x="427" y="714" type="line"/>
      <point x="264" y="714" type="line"/>
      <point x="264" y="694" type="line"/>
      <point x="307" y="694" type="line" smooth="yes"/>
      <point x="343" y="694"/>
      <point x="348" y="688"/>
      <point x="348" y="677" type="curve" smooth="yes"/>
      <point x="348" y="667"/>
      <point x="347" y="660"/>
      <point x="333" y="631" type="curve" smooth="yes"/>
      <point x="256" y="474" type="line" smooth="yes"/>
      <point x="235" y="431"/>
      <point x="221" y="402"/>
      <point x="211" y="382" type="curve"/>
      <point x="191" y="425"/>
      <point x="172" y="466"/>
      <point x="151" y="510" type="curve" smooth="yes"/>
      <point x="97" y="625" type="line" smooth="yes"/>
      <point x="84" y="652"/>
      <point x="74" y="668"/>
      <point x="74" y="678" type="curve" smooth="yes"/>
      <point x="74" y="689"/>
      <point x="78" y="694"/>
      <point x="115" y="694" type="curve" smooth="yes"/>
      <point x="146" y="694" type="line"/>
      <point x="146" y="714" type="line"/>
      <point x="-8" y="714" type="line"/>
      <point x="-8" y="694" type="line"/>
      <point x="-6" y="694" type="line" smooth="yes"/>
      <point x="23" y="694"/>
      <point x="33" y="692"/>
      <point x="53" y="651" type="curve" smooth="yes"/>
      <point x="198" y="354" type="line"/>
      <point x="198" y="108" type="line" smooth="yes"/>
      <point x="198" y="31"/>
      <point x="192" y="20"/>
      <point x="142" y="20" type="curve" smooth="yes"/>
      <point x="116" y="20" type="line"/>
    </contour>
  </outline>
</glyph>
<glyph name="Z.mono" format="2">
  <advance width="500"/>
  <unicode hex="005A"/>
  <anchor x="277" y="0" name="bottom"/>
  <anchor x="265" y="714" name="top"/>
  <anchor x="480" y="714" name="topright"/>
  <outline>
    <contour>
      <point x="95" y="0" type="line"/>
      <point x="431" y="0" type="line"/>
      <point x="431" y="25" type="line"/>
      <point x="125" y="25" type="line"/>
      <point x="421" y="693" type="line"/>
      <point x="421" y="714" type="line"/>
      <point x="115" y="714" type="line"/>
      <point x="115" y="689" type="line"/>
      <point x="392" y="689" type="line"/>
      <point x="95" y="21" type="line"/>
    </contour>
  </outline>
</glyph>
<glyph name="bracketleft.mono" format="2">
  <advance width="500"/>
  <unicode hex="005B"/>
  <outline>
    <contour>
      <point x="206" y="-158" type="line"/>
      <point x="399" y="-158" type="line"/>
      <point x="399" y="-134" type="line"/>
      <point x="231" y="-134" type="line"/>
      <point x="231" y="690" type="line"/>
      <point x="399" y="690" type="line"/>
      <point x="399" y="714" type="line"/>
      <point x="206" y="714" type="line"/>
    </contour>
  </outline>
</glyph>
<glyph name="asciicircum.mono" format="2">
  <advance width="500"/>
  <unicode hex="005E"/>
  <outline>
    <contour>
      <point x="41" y="325" type="line"/>
      <point x="71" y="325" type="line"/>
      <point x="257" y="684" type="line"/>
      <point x="430" y="325" type="line"/>
      <point x="460" y="325" type="line"/>
      <point x="270" y="716" type="line"/>
      <point x="247" y="716" type="line"/>
    </contour>
  </outline>
</glyph>
<glyph name="grave.serif" format="2">
  <advance width="191"/>
  <unicode hex="0060"/>
  <outline>
    <contour>
      <point x="144" y="606" type="curve"/>
      <point x="151" y="606" type="line"/>
      <point x="151" y="619" type="line"/>
      <point x="128" y="657"/>
      <point x="99" y="721"/>
      <point x="83" y="766" type="curve"/>
      <point x="40" y="766" type="line"/>
      <point x="40" y="756" type="line"/>
      <point x="58" y="721"/>
      <point x="111" y="642"/>
    </contour>
  </outline>
</glyph>
<glyph name="a.serif" format="2">
  <advance width="400"/>
  <unicode hex="0061"/>
  <anchor x="313" y="0" name="bottom"/>
  <anchor x="200" y="536" name="top"/>
  <anchor x="380" y="536" name="topright"/>
  <outline>
    <contour>
      <point x="153" y="-10" type="curve" smooth="yes"/>
      <point x="224" y="-10"/>
      <point x="256" y="33"/>
      <point x="281" y="91" type="curve"/>
      <point x="283" y="91" type="line"/>
      <point x="288" y="0" type="line"/>
      <point x="360" y="0" type="line"/>
      <point x="360" y="20" type="line"/>
      <point x="358" y="20" type="line" smooth="yes"/>
      <point x="320" y="20"/>
      <point x="309" y="29"/>
      <point x="309" y="103" type="curve" smooth="yes"/>
      <point x="309" y="366" type="line" smooth="yes"/>
      <point x="309" y="495"/>
      <point x="269" y="542"/>
      <point x="191" y="542" type="curve" smooth="yes"/>
      <point x="117" y="542"/>
      <point x="73" y="496"/>
      <point x="73" y="438" type="curve" smooth="yes"/>
      <point x="73" y="411"/>
      <point x="81" y="395"/>
      <point x="94" y="395" type="curve"/>
      <point x="94" y="482"/>
      <point x="127" y="517"/>
      <point x="190" y="517" type="curve" smooth="yes"/>
      <point x="254" y="517"/>
      <point x="281" y="477"/>
      <point x="281" y="371" type="curve" smooth="yes"/>
      <point x="281" y="306" type="line"/>
      <point x="218" y="303" type="line" smooth="yes"/>
      <point x="99" y="298"/>
      <point x="42" y="250"/>
      <point x="42" y="146" type="curve" smooth="yes"/>
      <point x="42" y="41"/>
      <point x="86" y="-10"/>
    </contour>
    <contour>
      <point x="155" y="15" type="curve" smooth="yes"/>
      <point x="96" y="15"/>
      <point x="70" y="69"/>
      <point x="70" y="146" type="curve" smooth="yes"/>
      <point x="70" y="228"/>
      <point x="112" y="276"/>
      <point x="219" y="280" type="curve" smooth="yes"/>
      <point x="281" y="283" type="line"/>
      <point x="281" y="191" type="line" smooth="yes"/>
      <point x="281" y="92"/>
      <point x="230" y="15"/>
    </contour>
  </outline>
</glyph>
<glyph name="b.serif" format="2">
  <advance width="439"/>
  <unicode hex="0062"/>
  <anchor x="220" y="0" name="bottom"/>
  <anchor x="101" y="760" name="top"/>
  <anchor x="399" y="760" name="topright"/>
  <outline>
    <contour>
      <point x="249" y="-10" type="curve" smooth="yes"/>
      <point x="332" y="-10"/>
      <point x="391" y="56"/>
      <point x="391" y="267" type="curve" smooth="yes"/>
      <point x="391" y="466"/>
      <point x="343" y="544"/>
      <point x="248" y="544" type="curve" smooth="yes"/>
      <point x="176" y="544"/>
      <point x="134" y="498"/>
      <point x="114" y="432" type="curve"/>
      <point x="113" y="432" type="line"/>
      <point x="115" y="475"/>
      <point x="116" y="526"/>
      <point x="116" y="561" type="curve" smooth="yes"/>
      <point x="116" y="760" type="line"/>
      <point x="14" y="760" type="line"/>
      <point x="14" y="740" type="line"/>
      <point x="23" y="740" type="line" smooth="yes"/>
      <point x="81" y="740"/>
      <point x="88" y="735"/>
      <point x="88" y="661" type="curve" smooth="yes"/>
      <point x="88" y="87" type="line" smooth="yes"/>
      <point x="88" y="28"/>
      <point x="81" y="20"/>
      <point x="24" y="20" type="curve" smooth="yes"/>
      <point x="14" y="20" type="line"/>
      <point x="14" y="0" type="line"/>
      <point x="113" y="0" type="line"/>
      <point x="115" y="91" type="line"/>
      <point x="119" y="91" type="line"/>
      <point x="142" y="31"/>
      <point x="178" y="-10"/>
    </contour>
    <contour>
      <point x="249" y="15" type="curve" smooth="yes"/>
      <point x="162" y="15"/>
      <point x="115" y="91"/>
      <point x="115" y="268" type="curve" smooth="yes"/>
      <point x="115" y="445"/>
      <point x="162" y="519"/>
      <point x="249" y="519" type="curve" smooth="yes"/>
      <point x="330" y="519"/>
      <point x="363" y="441"/>
      <point x="363" y="269" type="curve" smooth="yes"/>
      <point x="363" y="84"/>
      <point x="320" y="15"/>
    </contour>
  </outline>
</glyph>
<glyph name="c.serif" format="2">
  <advance width="347"/>
  <unicode hex="0063"/>
  <anchor x="191" y="0" name="bottom"/>
  <anchor x="197" y="536" name="top"/>
  <anchor x="327" y="536" name="topright"/>
  <outline>
    <contour>
      <point x="203" y="-10" type="curve" smooth="yes"/>
      <point x="276" y="-10"/>
      <point x="318" y="46"/>
      <point x="318" y="83" type="curve" smooth="yes"/>
      <point x="318" y="98"/>
      <point x="315" y="105"/>
      <point x="310" y="110" type="curve"/>
      <point x="295" y="65"/>
      <point x="262" y="15"/>
      <point x="203" y="15" type="curve" smooth="yes"/>
      <point x="122" y="15"/>
      <point x="76" y="86"/>
      <point x="76" y="264" type="curve" smooth="yes"/>
      <point x="76" y="462"/>
      <point x="125" y="517"/>
      <point x="200" y="517" type="curve" smooth="yes"/>
      <point x="266" y="517"/>
      <point x="290" y="480"/>
      <point x="290" y="406" type="curve"/>
      <point x="302" y="406"/>
      <point x="315" y="414"/>
      <point x="315" y="437" type="curve" smooth="yes"/>
      <point x="315" y="495"/>
      <point x="276" y="542"/>
      <point x="200" y="542" type="curve" smooth="yes"/>
      <point x="108" y="542"/>
      <point x="48" y="479"/>
      <point x="48" y="263" type="curve" smooth="yes"/>
      <point x="48" y="55"/>
      <point x="114" y="-10"/>
    </contour>
  </outline>
</glyph>
<glyph name="e.serif" format="2">
  <advance width="379"/>
  <unicode hex="0065"/>
  <anchor x="200" y="0" name="bottom"/>
  <anchor x="200" y="536" name="top"/>
  <anchor x="359" y="536" name="topright"/>
  <outline>
    <contour>
      <point x="205" y="-10" type="curve" smooth="yes"/>
      <point x="280" y="-10"/>
      <point x="321" y="46"/>
      <point x="321" y="77" type="curve" smooth="yes"/>
      <point x="321" y="90"/>
      <point x="317" y="96"/>
      <point x="312" y="99" type="curve"/>
      <point x="296" y="57"/>
      <point x="263" y="15"/>
      <point x="205" y="15" type="curve" smooth="yes"/>
      <point x="125" y="15"/>
      <point x="76" y="97"/>
      <point x="76" y="270" type="curve"/>
      <point x="336" y="270" type="line"/>
      <point x="336" y="291" type="line" smooth="yes"/>
      <point x="336" y="445"/>
      <point x="289" y="542"/>
      <point x="197" y="542" type="curve" smooth="yes"/>
      <point x="102" y="542"/>
      <point x="48" y="450"/>
      <point x="48" y="262" type="curve" smooth="yes"/>
      <point x="48" y="88"/>
      <point x="109" y="-10"/>
    </contour>
    <contour>
      <point x="308" y="295" type="curve"/>
      <point x="76" y="295" type="line"/>
      <point x="80" y="431"/>
      <point x="119" y="517"/>
      <point x="197" y="517" type="curve" smooth="yes"/>
      <point x="276" y="517"/>
      <point x="306" y="427"/>
    </contour>
  </outline>
</glyph>
<glyph name="f.serif" format="2">
  <advance width="250"/>
  <unicode hex="0066"/>
  <anchor x="115" y="0" name="bottom"/>
  <anchor x="203" y="772" name="top"/>
  <anchor x="290" y="772" name="topright"/>
  <outline>
    <contour>
      <point x="27" y="0" type="line"/>
      <point x="221" y="0" type="line"/>
      <point x="221" y="20" type="line"/>
      <point x="184" y="20" type="line" smooth="yes"/>
      <point x="134" y="20"/>
      <point x="128" y="29"/>
      <point x="128" y="103" type="curve" smooth="yes"/>
      <point x="128" y="511" type="line"/>
      <point x="238" y="511" type="line"/>
      <point x="238" y="536" type="line"/>
      <point x="128" y="536" type="line"/>
      <point x="128" y="600" type="line" smooth="yes"/>
      <point x="128" y="684"/>
      <point x="151" y="747"/>
      <point x="221" y="747" type="curve" smooth="yes"/>
      <point x="269" y="747"/>
      <point x="280" y="715"/>
      <point x="280" y="658" type="curve"/>
      <point x="291" y="658"/>
      <point x="301" y="674"/>
      <point x="301" y="697" type="curve" smooth="yes"/>
      <point x="301" y="748"/>
      <point x="269" y="772"/>
      <point x="221" y="772" type="curve" smooth="yes"/>
      <point x="144" y="772"/>
      <point x="100" y="717"/>
      <point x="100" y="601" type="curve" smooth="yes"/>
      <point x="100" y="536" type="line"/>
      <point x="30" y="536" type="line"/>
      <point x="30" y="511" type="line"/>
      <point x="100" y="511" type="line"/>
      <point x="100" y="103" type="line" smooth="yes"/>
      <point x="100" y="29"/>
      <point x="94" y="20"/>
      <point x="44" y="20" type="curve" smooth="yes"/>
      <point x="27" y="20" type="line"/>
    </contour>
  </outline>
</glyph>
<glyph name="g.serif" format="2">
  <advance width="391"/>
  <unicode hex="0067"/>
  <anchor x="189" y="-242" name="bottom"/>
  <anchor x="189" y="536" name="top"/>
  <anchor x="371" y="536" name="topright"/>
  <outline>
    <contour>
      <point x="186" y="-242" type="curve" smooth="yes"/>
      <point x="292" y="-242"/>
      <point x="353" y="-173"/>
      <point x="353" y="-67" type="curve" smooth="yes"/>
      <point x="353" y="13"/>
      <point x="322" y="71"/>
      <point x="234" y="71" type="curve" smooth="yes"/>
      <point x="177" y="71" type="line" smooth="yes"/>
      <point x="136" y="71"/>
      <point x="113" y="86"/>
      <point x="113" y="126" type="curve" smooth="yes"/>
      <point x="113" y="162"/>
      <point x="128" y="183"/>
      <point x="144" y="202" type="curve"/>
      <point x="155" y="198"/>
      <point x="177" y="196"/>
      <point x="191" y="196" type="curve" smooth="yes"/>
      <point x="270" y="196"/>
      <point x="310" y="257"/>
      <point x="310" y="362" type="curve" smooth="yes"/>
      <point x="310" y="426"/>
      <point x="301" y="459"/>
      <point x="288" y="485" type="curve"/>
      <point x="308" y="518"/>
      <point x="321" y="529"/>
      <point x="333" y="529" type="curve" smooth="yes"/>
      <point x="353" y="529"/>
      <point x="354" y="513"/>
      <point x="354" y="476" type="curve"/>
      <point x="368" y="476"/>
      <point x="375" y="489"/>
      <point x="375" y="512" type="curve" smooth="yes"/>
      <point x="375" y="536"/>
      <point x="362" y="557"/>
      <point x="337" y="557" type="curve" smooth="yes"/>
      <point x="308" y="557"/>
      <point x="291" y="531"/>
      <point x="273" y="506" type="curve"/>
      <point x="258" y="525"/>
      <point x="227" y="542"/>
      <point x="191" y="542" type="curve" smooth="yes"/>
      <point x="111" y="542"/>
      <point x="64" y="489"/>
      <point x="64" y="357" type="curve" smooth="yes"/>
      <point x="64" y="288"/>
      <point x="90" y="234"/>
      <point x="124" y="213" type="curve"/>
      <point x="106" y="193"/>
      <point x="88" y="165"/>
      <point x="88" y="130" type="curve" smooth="yes"/>
      <point x="88" y="91"/>
      <point x="104" y="71"/>
      <point x="120" y="61" type="curve"/>
      <point x="84" y="43"/>
      <point x="33" y="1"/>
      <point x="33" y="-87" type="curve" smooth="yes"/>
      <point x="33" y="-180"/>
      <point x="78" y="-242"/>
    </contour>
    <contour>
      <point x="187" y="-217" type="curve" smooth="yes"/>
      <point x="89" y="-217"/>
      <point x="61" y="-158"/>
      <point x="61" y="-86" type="curve" smooth="yes"/>
      <point x="61" y="-15"/>
      <point x="105" y="46"/>
      <point x="165" y="46" type="curve" smooth="yes"/>
      <point x="222" y="46" type="line" smooth="yes"/>
      <point x="304" y="46"/>
      <point x="325" y="4"/>
      <point x="325" y="-67" type="curve" smooth="yes"/>
      <point x="325" y="-153"/>
      <point x="286" y="-217"/>
    </contour>
    <contour>
      <point x="188" y="220" type="curve" smooth="yes"/>
      <point x="123" y="220"/>
      <point x="92" y="271"/>
      <point x="92" y="364" type="curve" smooth="yes"/>
      <point x="92" y="472"/>
      <point x="129" y="517"/>
      <point x="186" y="517" type="curve" smooth="yes"/>
      <point x="249" y="517"/>
      <point x="282" y="479"/>
      <point x="282" y="365" type="curve" smooth="yes"/>
      <point x="282" y="268"/>
      <point x="252" y="220"/>
    </contour>
  </outline>
</glyph>
<glyph name="i.serif" format="2">
  <advance width="219"/>
  <unicode hex="0069"/>
  <anchor x="119" y="0" name="bottom"/>
  <anchor x="114" y="738" name="top"/>
  <anchor x="179" y="738" name="topright"/>
  <outline>
    <contour>
      <point x="22" y="0" type="line"/>
      <point x="212" y="0" type="line"/>
      <point x="212" y="20" type="line"/>
      <point x="199" y="20" type="line" smooth="yes"/>
      <point x="139" y="20"/>
      <point x="133" y="26"/>
      <point x="133" y="96" type="curve" smooth="yes"/>
      <point x="133" y="536" type="line"/>
      <point x="37" y="536" type="line"/>
      <point x="37" y="516" type="line"/>
      <point x="43" y="516" type="line" smooth="yes"/>
      <point x="101" y="516"/>
      <point x="105" y="508"/>
      <point x="105" y="437" type="curve" smooth="yes"/>
      <point x="105" y="96" type="line" smooth="yes"/>
      <point x="105" y="26"/>
      <point x="99" y="20"/>
      <point x="38" y="20" type="curve" smooth="yes"/>
      <point x="22" y="20" type="line"/>
    </contour>
    <contour>
      <point x="114" y="658" type="curve" smooth="yes"/>
      <point x="127" y="658"/>
      <point x="137" y="666"/>
      <point x="137" y="698" type="curve" smooth="yes"/>
      <point x="137" y="729"/>
      <point x="127" y="738"/>
      <point x="114" y="738" type="curve" smooth="yes"/>
      <point x="100" y="738"/>
      <point x="92" y="729"/>
      <point x="92" y="698" type="curve" smooth="yes"/>
      <point x="92" y="666"/>
      <point x="100" y="658"/>
    </contour>
  </outline>
</glyph>
<glyph name="j.serif" format="2">
  <advance width="211"/>
  <unicode hex="006A"/>
  <anchor x="76" y="-240" name="bottom"/>
  <anchor x="111" y="738" name="top"/>
  <anchor x="176" y="738" name="topright"/>
  <outline>
    <contour>
      <point x="12" y="-240" type="line"/>
      <point x="21" y="-240" type="line" smooth="yes"/>
      <point x="81" y="-240"/>
      <point x="131" y="-201"/>
      <point x="131" y="-18" type="curve" smooth="yes"/>
      <point x="131" y="536" type="line"/>
      <point x="36" y="536" type="line"/>
      <point x="36" y="516" type="line"/>
      <point x="47" y="516" type="line" smooth="yes"/>
      <point x="97" y="516"/>
      <point x="103" y="506"/>
      <point x="103" y="440" type="curve" smooth="yes"/>
      <point x="103" y="-20" type="line" smooth="yes"/>
      <point x="103" y="-171"/>
      <point x="70" y="-215"/>
      <point x="17" y="-215" type="curve" smooth="yes"/>
      <point x="12" y="-215" type="line"/>
    </contour>
    <contour>
      <point x="112" y="658" type="curve" smooth="yes"/>
      <point x="125" y="658"/>
      <point x="135" y="666"/>
      <point x="135" y="698" type="curve" smooth="yes"/>
      <point x="135" y="729"/>
      <point x="125" y="738"/>
      <point x="112" y="738" type="curve" smooth="yes"/>
      <point x="100" y="738"/>
      <point x="89" y="729"/>
      <point x="89" y="698" type="curve" smooth="yes"/>
      <point x="89" y="666"/>
      <point x="100" y="658"/>
    </contour>
  </outline>
</glyph>
<glyph name="k.serif" format="2">
  <advance width="405"/>
  <unicode hex="006B"/>
  <anchor x="203" y="0" name="bottom"/>
  <anchor x="94" y="760" name="top"/>
  <anchor x="315" y="830" name="topright"/>
  <outline>
    <contour>
      <point x="14" y="0" type="line"/>
      <point x="181" y="0" type="line"/>
      <point x="181" y="20" type="line"/>
      <point x="178" y="20" type="line" smooth="yes"/>
      <point x="122" y="20"/>
      <point x="116" y="26"/>
      <point x="116" y="96" type="curve" smooth="yes"/>
      <point x="116" y="188" type="line"/>
      <point x="192" y="295" type="line"/>
      <point x="287" y="101" type="line" smooth="yes"/>
      <point x="331" y="10"/>
      <point x="348" y="0"/>
      <point x="402" y="0" type="curve" smooth="yes"/>
      <point x="408" y="0" type="line"/>
      <point x="408" y="20" type="line"/>
      <point x="401" y="20" type="line" smooth="yes"/>
      <point x="359" y="20"/>
      <point x="343" y="43"/>
      <point x="311" y="114" type="curve" smooth="yes"/>
      <point x="210" y="322" type="line"/>
      <point x="268" y="403" type="line" smooth="yes"/>
      <point x="336" y="500"/>
      <point x="343" y="516"/>
      <point x="379" y="516" type="curve"/>
      <point x="379" y="536" type="line"/>
      <point x="243" y="536" type="line"/>
      <point x="243" y="516" type="line"/>
      <point x="285" y="516"/>
      <point x="295" y="512"/>
      <point x="295" y="496" type="curve" smooth="yes"/>
      <point x="295" y="481"/>
      <point x="277" y="454"/>
      <point x="211" y="362" type="curve" smooth="yes"/>
      <point x="112" y="222" type="line"/>
      <point x="117" y="266"/>
      <point x="116" y="336"/>
      <point x="116" y="373" type="curve" smooth="yes"/>
      <point x="116" y="760" type="line"/>
      <point x="14" y="760" type="line"/>
      <point x="14" y="740" type="line"/>
      <point x="21" y="740" type="line" smooth="yes"/>
      <point x="82" y="740"/>
      <point x="88" y="734"/>
      <point x="88" y="664" type="curve" smooth="yes"/>
      <point x="88" y="96" type="line" smooth="yes"/>
      <point x="88" y="26"/>
      <point x="82" y="20"/>
      <point x="21" y="20" type="curve" smooth="yes"/>
      <point x="14" y="20" type="line"/>
    </contour>
  </outline>
</glyph>
<glyph name="l.mono" format="2">
  <advance width="500"/>
  <unicode hex="006C"/>
  <anchor x="255" y="0" name="bottom"/>
  <anchor x="255" y="376" name="center"/>
  <anchor x="250" y="760" name="top"/>
  <anchor x="396" y="760" name="topright"/>
  <outline>
    <contour>
      <point x="82" y="0" type="line"/>
      <point x="432" y="0" type="line"/>
      <point x="432" y="21" type="line"/>
      <point x="269" y="25" type="line"/>
      <point x="269" y="760" type="line"/>
      <point x="94" y="760" type="line"/>
      <point x="94" y="739" type="line"/>
      <point x="243" y="735" type="line"/>
      <point x="243" y="25" type="line"/>
      <point x="82" y="21" type="line"/>
    </contour>
  </outline>
</glyph>
<glyph name="l.serif" format="2">
  <advance width="203"/>
  <unicode hex="006C"/>
  <anchor x="102" y="0" name="bottom"/>
  <anchor x="102" y="268" name="center"/>
  <anchor x="102" y="760" name="top"/>
  <anchor x="173" y="760" name="topright"/>
  <outline>
    <contour>
      <point x="7" y="0" type="line"/>
      <point x="196" y="0" type="line"/>
      <point x="196" y="20" type="line"/>
      <point x="192" y="20" type="line" smooth="yes"/>
      <point x="119" y="20"/>
      <point x="115" y="24"/>
      <point x="115" y="94" type="curve" smooth="yes"/>
      <point x="115" y="760" type="line"/>
      <point x="7" y="760" type="line"/>
      <point x="7" y="740" type="line"/>
      <point x="20" y="740" type="line" smooth="yes"/>
      <point x="80" y="740"/>
      <point x="87" y="736"/>
      <point x="87" y="662" type="curve" smooth="yes"/>
      <point x="87" y="94" type="line" smooth="yes"/>
      <point x="87" y="24"/>
      <point x="83" y="20"/>
      <point x="10" y="20" type="curve" smooth="yes"/>
      <point x="7" y="20" type="line"/>
    </contour>
  </outline>
</glyph>
<glyph name="m.serif" format="2">
  <advance width="684"/>
  <unicode hex="006D"/>
  <anchor x="382" y="0" name="bottom"/>
  <anchor x="351" y="536" name="top"/>
  <anchor x="663" y="536" name="topright"/>
  <outline>
    <contour>
      <point x="28" y="0" type="line"/>
      <point x="203" y="0" type="line"/>
      <point x="203" y="20" type="line"/>
      <point x="201" y="20" type="line" smooth="yes"/>
      <point x="135" y="20"/>
      <point x="131" y="26"/>
      <point x="131" y="98" type="curve" smooth="yes"/>
      <point x="131" y="333" type="line" smooth="yes"/>
      <point x="131" y="430"/>
      <point x="164" y="517"/>
      <point x="247" y="517" type="curve" smooth="yes"/>
      <point x="309" y="517"/>
      <point x="335" y="472"/>
      <point x="335" y="364" type="curve" smooth="yes"/>
      <point x="335" y="0" type="line"/>
      <point x="430" y="0" type="line"/>
      <point x="430" y="20" type="line"/>
      <point x="427" y="20" type="line" smooth="yes"/>
      <point x="369" y="20"/>
      <point x="363" y="26"/>
      <point x="363" y="96" type="curve" smooth="yes"/>
      <point x="363" y="348" type="line" smooth="yes"/>
      <point x="363" y="440"/>
      <point x="390" y="517"/>
      <point x="476" y="517" type="curve" smooth="yes"/>
      <point x="542" y="517"/>
      <point x="567" y="462"/>
      <point x="567" y="364" type="curve" smooth="yes"/>
      <point x="567" y="0" type="line"/>
      <point x="663" y="0" type="line"/>
      <point x="663" y="20" type="line"/>
      <point x="661" y="20" type="line" smooth="yes"/>
      <point x="603" y="20"/>
      <point x="595" y="25"/>
      <point x="595" y="91" type="curve" smooth="yes"/>
      <point x="595" y="364" type="line" smooth="yes"/>
      <point x="595" y="484"/>
      <point x="555" y="542"/>
      <point x="478" y="542" type="curve" smooth="yes"/>
      <point x="423" y="542"/>
      <point x="378" y="512"/>
      <point x="357" y="446" type="curve"/>
      <point x="355" y="446" type="line"/>
      <point x="342" y="509"/>
      <point x="308" y="542"/>
      <point x="249" y="542" type="curve" smooth="yes"/>
      <point x="192" y="542"/>
      <point x="154" y="513"/>
      <point x="132" y="451" type="curve"/>
      <point x="130" y="451" type="line"/>
      <point x="127" y="536" type="line"/>
      <point x="39" y="536" type="line"/>
      <point x="39" y="516" type="line"/>
      <point x="41" y="516" type="line" smooth="yes"/>
      <point x="100" y="516"/>
      <point x="103" y="507"/>
      <point x="103" y="432" type="curve" smooth="yes"/>
      <point x="103" y="98" type="line" smooth="yes"/>
      <point x="103" y="26"/>
      <point x="99" y="20"/>
      <point x="37" y="20" type="curve" smooth="yes"/>
      <point x="28" y="20" type="line"/>
    </contour>
  </outline>
</glyph>
<glyph name="n.serif" format="2">
  <advance width="473"/>
  <unicode hex="006E"/>
  <anchor x="252" y="0" name="bottom"/>
  <anchor x="248" y="536" name="top"/>
  <anchor x="453" y="536" name="topright"/>
  <outline>
    <contour>
      <point x="28" y="0" type="line"/>
      <point x="203" y="0" type="line"/>
      <point x="203" y="20" type="line"/>
      <point x="197" y="20" type="line" smooth="yes"/>
      <point x="137" y="20"/>
      <point x="131" y="26"/>
      <point x="131" y="96" type="curve" smooth="yes"/>
      <point x="131" y="333" type="line" smooth="yes"/>
      <point x="131" y="467"/>
      <point x="186" y="517"/>
      <point x="254" y="517" type="curve" smooth="yes"/>
      <point x="326" y="517"/>
      <point x="353" y="457"/>
      <point x="353" y="364" type="curve" smooth="yes"/>
      <point x="353" y="0" type="line"/>
      <point x="449" y="0" type="line"/>
      <point x="449" y="20" type="line"/>
      <point x="445" y="20" type="line" smooth="yes"/>
      <point x="387" y="20"/>
      <point x="381" y="26"/>
      <point x="381" y="96" type="curve" smooth="yes"/>
      <point x="381" y="363" type="line" smooth="yes"/>
      <point x="381" y="486"/>
      <point x="343" y="542"/>
      <point x="252" y="542" type="curve" smooth="yes"/>
      <point x="189" y="542"/>
      <point x="157" y="508"/>
      <point x="132" y="459" type="curve"/>
      <point x="130" y="459" type="line"/>
      <point x="127" y="536" type="line"/>
      <point x="31" y="536" type="line"/>
      <point x="31" y="516" type="line"/>
      <point x="36" y="516" type="line" smooth="yes"/>
      <point x="97" y="516"/>
      <point x="103" y="511"/>
      <point x="103" y="441" type="curve" smooth="yes"/>
      <point x="103" y="96" type="line" smooth="yes"/>
      <point x="103" y="26"/>
      <point x="97" y="20"/>
      <point x="36" y="20" type="curve" smooth="yes"/>
      <point x="28" y="20" type="line"/>
    </contour>
  </outline>
</glyph>
<glyph name="o.serif" format="2">
  <advance width="410"/>
  <unicode hex="006F"/>
  <anchor x="205" y="0" name="bottom"/>
  <anchor x="205" y="268" name="center"/>
  <anchor x="205" y="536" name="top"/>
  <anchor x="390" y="536" name="topright"/>
  <outline>
    <contour>
      <point x="205" y="-10" type="curve" smooth="yes"/>
      <point x="308" y="-10"/>
      <point x="362" y="73"/>
      <point x="362" y="267" type="curve" smooth="yes"/>
      <point x="362" y="449"/>
      <point x="314" y="542"/>
      <point x="207" y="542" type="curve" smooth="yes"/>
      <point x="97" y="542"/>
      <point x="48" y="451"/>
      <point x="48" y="267" type="curve" smooth="yes"/>
      <point x="48" y="76"/>
      <point x="105" y="-10"/>
    </contour>
    <contour>
      <point x="206" y="15" type="curve" smooth="yes"/>
      <point x="117" y="15"/>
      <point x="76" y="102"/>
      <point x="76" y="267" type="curve" smooth="yes"/>
      <point x="76" y="434"/>
      <point x="110" y="517"/>
      <point x="205" y="517" type="curve" smooth="yes"/>
      <point x="301" y="517"/>
      <point x="334" y="434"/>
      <point x="334" y="267" type="curve" smooth="yes"/>
      <point x="334" y="103"/>
      <point x="301" y="15"/>
    </contour>
  </outline>
</glyph>
<glyph name="q.serif" format="2">
  <advance width="439"/>
  <unicode hex="0071"/>
  <anchor x="340" y="-240" name="bottom"/>
  <anchor x="220" y="536" name="top"/>
  <anchor x="419" y="536" name="topright"/>
  <outline>
    <contour>
      <point x="245" y="-240" type="line"/>
      <point x="417" y="-240" type="line"/>
      <point x="417" y="-220" type="line"/>
      <point x="416" y="-220" type="line" smooth="yes"/>
      <point x="359" y="-220"/>
      <point x="353" y="-214"/>
      <point x="353" y="-144" type="curve" smooth="yes"/>
      <point x="353" y="440" type="line" smooth="yes"/>
      <point x="353" y="510"/>
      <point x="359" y="516"/>
      <point x="419" y="516" type="curve" smooth="yes"/>
      <point x="422" y="516" type="line"/>
      <point x="422" y="536" type="line"/>
      <point x="329" y="536" type="line"/>
      <point x="326" y="431" type="line"/>
      <point x="324" y="431" type="line"/>
      <point x="307" y="499"/>
      <point x="265" y="546"/>
      <point x="202" y="546" type="curve" smooth="yes"/>
      <point x="113" y="546"/>
      <point x="49" y="479"/>
      <point x="49" y="265" type="curve" smooth="yes"/>
      <point x="49" y="69"/>
      <point x="102" y="-10"/>
      <point x="196" y="-10" type="curve" smooth="yes"/>
      <point x="261" y="-10"/>
      <point x="301" y="36"/>
      <point x="325" y="103" type="curve"/>
      <point x="327" y="103" type="line"/>
      <point x="327" y="82"/>
      <point x="325" y="19"/>
      <point x="325" y="-26" type="curve" smooth="yes"/>
      <point x="325" y="-144" type="line" smooth="yes"/>
      <point x="325" y="-214"/>
      <point x="319" y="-220"/>
      <point x="258" y="-220" type="curve" smooth="yes"/>
      <point x="245" y="-220" type="line"/>
    </contour>
    <contour>
      <point x="196" y="15" type="curve" smooth="yes"/>
      <point x="112" y="15"/>
      <point x="77" y="92"/>
      <point x="77" y="264" type="curve" smooth="yes"/>
      <point x="77" y="459"/>
      <point x="124" y="521"/>
      <point x="202" y="521" type="curve" smooth="yes"/>
      <point x="289" y="521"/>
      <point x="325" y="419"/>
      <point x="325" y="267" type="curve" smooth="yes"/>
      <point x="325" y="88"/>
      <point x="272" y="15"/>
    </contour>
  </outline>
</glyph>
<glyph name="r.serif" format="2">
  <advance width="318"/>
  <unicode hex="0072"/>
  <anchor x="119" y="0" name="bottom"/>
  <anchor x="189" y="536" name="top"/>
  <anchor x="298" y="536" name="topright"/>
  <outline>
    <contour>
      <point x="36" y="0" type="line"/>
      <point x="212" y="0" type="line"/>
      <point x="212" y="20" type="line"/>
      <point x="201" y="20" type="line" smooth="yes"/>
      <point x="138" y="20"/>
      <point x="132" y="25"/>
      <point x="132" y="96" type="curve" smooth="yes"/>
      <point x="132" y="274" type="line" smooth="yes"/>
      <point x="132" y="382"/>
      <point x="168" y="519"/>
      <point x="239" y="519" type="curve" smooth="yes"/>
      <point x="284" y="519"/>
      <point x="286" y="480"/>
      <point x="286" y="443" type="curve"/>
      <point x="302" y="443"/>
      <point x="307" y="460"/>
      <point x="307" y="483" type="curve" smooth="yes"/>
      <point x="307" y="517"/>
      <point x="288" y="544"/>
      <point x="243" y="544" type="curve" smooth="yes"/>
      <point x="178" y="544"/>
      <point x="151" y="483"/>
      <point x="133" y="435" type="curve"/>
      <point x="131" y="435" type="line"/>
      <point x="128" y="536" type="line"/>
      <point x="31" y="536" type="line"/>
      <point x="31" y="516" type="line"/>
      <point x="34" y="516" type="line" smooth="yes"/>
      <point x="98" y="516"/>
      <point x="104" y="511"/>
      <point x="104" y="440" type="curve" smooth="yes"/>
      <point x="104" y="96" type="line" smooth="yes"/>
      <point x="104" y="25"/>
      <point x="98" y="20"/>
      <point x="37" y="20" type="curve" smooth="yes"/>
      <point x="36" y="20" type="line"/>
    </contour>
  </outline>
</glyph>
<glyph name="s.serif" format="2">
  <advance width="315"/>
  <unicode hex="0073"/>
  <anchor x="158" y="0" name="bottom"/>
  <anchor x="164" y="541" name="top"/>
  <anchor x="285" y="536" name="topright"/>
  <outline>
    <contour>
      <point x="151" y="-10" type="curve" smooth="yes"/>
      <point x="229" y="-10"/>
      <point x="276" y="41"/>
      <point x="276" y="126" type="curve" smooth="yes"/>
      <point x="276" y="185"/>
      <point x="256" y="234"/>
      <point x="178" y="283" type="curve" smooth="yes"/>
      <point x="114" y="326"/>
      <point x="84" y="365"/>
      <point x="84" y="420" type="curve" smooth="yes"/>
      <point x="84" y="473"/>
      <point x="107" y="516"/>
      <point x="164" y="516" type="curve" smooth="yes"/>
      <point x="221" y="516"/>
      <point x="247" y="478"/>
      <point x="247" y="405" type="curve"/>
      <point x="262" y="405"/>
      <point x="268" y="421"/>
      <point x="268" y="450" type="curve" smooth="yes"/>
      <point x="268" y="504"/>
      <point x="226" y="541"/>
      <point x="164" y="541" type="curve" smooth="yes"/>
      <point x="97" y="541"/>
      <point x="56" y="493"/>
      <point x="56" y="421" type="curve" smooth="yes"/>
      <point x="56" y="355"/>
      <point x="83" y="317"/>
      <point x="164" y="259" type="curve" smooth="yes"/>
      <point x="234" y="213"/>
      <point x="248" y="174"/>
      <point x="248" y="129" type="curve" smooth="yes"/>
      <point x="248" y="52"/>
      <point x="213" y="15"/>
      <point x="152" y="15" type="curve" smooth="yes"/>
      <point x="88" y="15"/>
      <point x="59" y="60"/>
      <point x="59" y="139" type="curve"/>
      <point x="46" y="139"/>
      <point x="38" y="125"/>
      <point x="38" y="93" type="curve" smooth="yes"/>
      <point x="38" y="50"/>
      <point x="70" y="-10"/>
    </contour>
  </outline>
</glyph>
<glyph name="t.serif" format="2">
  <advance width="229"/>
  <unicode hex="0074"/>
  <anchor x="155" y="0" name="bottom"/>
  <anchor x="90" y="268" name="center"/>
  <anchor x="91" y="657" name="top"/>
  <anchor x="129" y="930" name="topright"/>
  <outline>
    <contour>
      <point x="167" y="-10" type="curve" smooth="yes"/>
      <point x="178" y="-10"/>
      <point x="194" y="-8"/>
      <point x="209" y="-5" type="curve"/>
      <point x="209" y="20" type="line"/>
      <point x="192" y="17"/>
      <point x="181" y="15"/>
      <point x="165" y="15" type="curve" smooth="yes"/>
      <point x="123" y="15"/>
      <point x="101" y="40"/>
      <point x="101" y="140" type="curve" smooth="yes"/>
      <point x="101" y="511" type="line"/>
      <point x="201" y="511" type="line"/>
      <point x="201" y="536" type="line"/>
      <point x="101" y="536" type="line"/>
      <point x="101" y="657" type="line"/>
      <point x="81" y="657" type="line"/>
      <point x="80" y="610"/>
      <point x="80" y="575"/>
      <point x="63" y="553" type="curve" smooth="yes"/>
      <point x="54" y="540"/>
      <point x="38" y="532"/>
      <point x="13" y="530" type="curve"/>
      <point x="13" y="511" type="line"/>
      <point x="73" y="511" type="line"/>
      <point x="73" y="141" type="line" smooth="yes"/>
      <point x="73" y="26"/>
      <point x="99" y="-10"/>
    </contour>
  </outline>
</glyph>
<glyph name="u.serif" format="2">
  <advance width="458"/>
  <unicode hex="0075"/>
  <anchor x="389" y="0" name="bottom"/>
  <anchor x="219" y="536" name="top"/>
  <anchor x="418" y="536" name="topright"/>
  <outline>
    <contour>
      <point x="215" y="-10" type="curve" smooth="yes"/>
      <point x="276" y="-10"/>
      <point x="313" y="26"/>
      <point x="337" y="77" type="curve"/>
      <point x="341" y="77" type="line"/>
      <point x="343" y="0" type="line"/>
      <point x="440" y="0" type="line"/>
      <point x="440" y="20" type="line"/>
      <point x="438" y="20" type="line"/>
      <point x="372" y="20"/>
      <point x="367" y="24"/>
      <point x="367" y="101" type="curve" smooth="yes"/>
      <point x="367" y="536" type="line"/>
      <point x="266" y="536" type="line"/>
      <point x="266" y="516" type="line"/>
      <point x="269" y="516" type="line" smooth="yes"/>
      <point x="339" y="516"/>
      <point x="339" y="510"/>
      <point x="339" y="426" type="curve" smooth="yes"/>
      <point x="339" y="203" type="line" smooth="yes"/>
      <point x="339" y="104"/>
      <point x="301" y="15"/>
      <point x="217" y="15" type="curve" smooth="yes"/>
      <point x="147" y="15"/>
      <point x="115" y="70"/>
      <point x="115" y="183" type="curve" smooth="yes"/>
      <point x="115" y="536" type="line"/>
      <point x="12" y="536" type="line"/>
      <point x="12" y="516" type="line"/>
      <point x="16" y="516" type="line" smooth="yes"/>
      <point x="81" y="516"/>
      <point x="87" y="511"/>
      <point x="87" y="443" type="curve" smooth="yes"/>
      <point x="87" y="184" type="line" smooth="yes"/>
      <point x="87" y="44"/>
      <point x="135" y="-10"/>
    </contour>
  </outline>
</glyph>
<glyph name="w.serif" format="2">
  <advance width="658"/>
  <unicode hex="0077"/>
  <anchor x="329" y="0" name="bottom"/>
  <anchor x="329" y="536" name="top"/>
  <anchor x="648" y="536" name="topright"/>
  <outline>
    <contour>
      <point x="64" y="463" type="curve" smooth="yes"/>
      <point x="166" y="0" type="line"/>
      <point x="199" y="0" type="line"/>
      <point x="327" y="502" type="line"/>
      <point x="454" y="0" type="line"/>
      <point x="490" y="0" type="line"/>
      <point x="595" y="467" type="line" smooth="yes"/>
      <point x="605" y="513"/>
      <point x="612" y="516"/>
      <point x="653" y="516" type="curve" smooth="yes"/>
      <point x="656" y="516" type="line"/>
      <point x="656" y="536" type="line"/>
      <point x="513" y="536" type="line"/>
      <point x="513" y="516" type="line"/>
      <point x="536" y="516" type="line" smooth="yes"/>
      <point x="570" y="516"/>
      <point x="574" y="509"/>
      <point x="574" y="496" type="curve" smooth="yes"/>
      <point x="574" y="484"/>
      <point x="567" y="459"/>
      <point x="560" y="428" type="curve" smooth="yes"/>
      <point x="510" y="208" type="line" smooth="yes"/>
      <point x="491" y="125"/>
      <point x="478" y="67"/>
      <point x="473" y="23" type="curve"/>
      <point x="470" y="23" type="line"/>
      <point x="464" y="69"/>
      <point x="439" y="173"/>
      <point x="426" y="223" type="curve" smooth="yes"/>
      <point x="344" y="536" type="line"/>
      <point x="309" y="536" type="line"/>
      <point x="226" y="207" type="line" smooth="yes"/>
      <point x="214" y="158"/>
      <point x="187" y="63"/>
      <point x="185" y="27" type="curve"/>
      <point x="182" y="27" type="line"/>
      <point x="178" y="64"/>
      <point x="158" y="158"/>
      <point x="148" y="206" type="curve" smooth="yes"/>
      <point x="101" y="425" type="line" smooth="yes"/>
      <point x="96" y="446"/>
      <point x="87" y="487"/>
      <point x="87" y="496" type="curve" smooth="yes"/>
      <point x="87" y="509"/>
      <point x="91" y="516"/>
      <point x="125" y="516" type="curve" smooth="yes"/>
      <point x="145" y="516" type="line"/>
      <point x="145" y="536" type="line"/>
      <point x="5" y="536" type="line"/>
      <point x="5" y="516" type="line"/>
      <point x="6" y="516" type="line" smooth="yes"/>
      <point x="46" y="516"/>
      <point x="54" y="511"/>
    </contour>
  </outline>
</glyph>
<glyph name="y.serif" format="2">
  <advance width="417"/>
  <unicode hex="0079"/>
  <anchor x="109" y="-240" name="bottom"/>
  <anchor x="212" y="536" name="top"/>
  <anchor x="407" y="536" name="topright"/>
  <outline>
    <contour>
      <point x="38" y="-215" type="curve"/>
      <point x="38" y="-240" type="line"/>
      <point x="39" y="-240" type="line" smooth="yes"/>
      <point x="141" y="-240"/>
      <point x="181" y="-208"/>
      <point x="229" y="-30" type="curve" smooth="yes"/>
      <point x="354" y="432" type="line" smooth="yes"/>
      <point x="374" y="506"/>
      <point x="377" y="516"/>
      <point x="413" y="516" type="curve" smooth="yes"/>
      <point x="418" y="516" type="line"/>
      <point x="418" y="536" type="line"/>
      <point x="272" y="536" type="line"/>
      <point x="272" y="516" type="line"/>
      <point x="290" y="516" type="line" smooth="yes"/>
      <point x="338" y="516"/>
      <point x="341" y="508"/>
      <point x="341" y="494" type="curve" smooth="yes"/>
      <point x="341" y="479"/>
      <point x="334" y="454"/>
      <point x="326" y="424" type="curve" smooth="yes"/>
      <point x="265" y="201" type="line" smooth="yes"/>
      <point x="249" y="134"/>
      <point x="233" y="78"/>
      <point x="224" y="41" type="curve"/>
      <point x="216" y="77"/>
      <point x="196" y="143"/>
      <point x="171" y="225" type="curve" smooth="yes"/>
      <point x="111" y="423" type="line" smooth="yes"/>
      <point x="100" y="459"/>
      <point x="92" y="484"/>
      <point x="92" y="495" type="curve" smooth="yes"/>
      <point x="92" y="512"/>
      <point x="101" y="516"/>
      <point x="147" y="516" type="curve" smooth="yes"/>
      <point x="150" y="516" type="line"/>
      <point x="150" y="536" type="line"/>
      <point x="7" y="536" type="line"/>
      <point x="7" y="516" type="line"/>
      <point x="8" y="516" type="line" smooth="yes"/>
      <point x="53" y="516"/>
      <point x="55" y="511"/>
      <point x="73" y="453" type="curve" smooth="yes"/>
      <point x="211" y="0" type="line"/>
      <point x="160" y="-169"/>
      <point x="153" y="-215"/>
    </contour>
  </outline>
</glyph>
<glyph name="bar.mono" format="2">
  <advance width="500"/>
  <unicode hex="007C"/>
  <outline>
    <contour>
      <point x="215" y="-240" type="line"/>
      <point x="240" y="-240" type="line"/>
      <point x="240" y="760" type="line"/>
      <point x="215" y="760" type="line"/>
    </contour>
  </outline>
</glyph>
<glyph name="asciitilde.mono" format="2">
  <advance width="500"/>
  <unicode hex="007E"/>
  <outline>
    <contour>
      <point x="87" y="309" type="curve"/>
      <point x="115" y="309" type="line"/>
      <point x="125" y="386"/>
      <point x="135" y="441"/>
      <point x="174" y="441" type="curve" smooth="yes"/>
      <point x="195" y="441"/>
      <point x="208" y="426"/>
      <point x="243" y="377" type="curve" smooth="yes"/>
      <point x="276" y="330"/>
      <point x="297" y="310"/>
      <point x="330" y="310" type="curve" smooth="yes"/>
      <point x="397" y="310"/>
      <point x="410" y="400"/>
      <point x="418" y="467" type="curve"/>
      <point x="390" y="467" type="line"/>
      <point x="380" y="390"/>
      <point x="369" y="337"/>
      <point x="330" y="337" type="curve" smooth="yes"/>
      <point x="309" y="337"/>
      <point x="295" y="350"/>
      <point x="261" y="399" type="curve" smooth="yes"/>
      <point x="228" y="447"/>
      <point x="207" y="468"/>
      <point x="174" y="468" type="curve" smooth="yes"/>
      <point x="107" y="468"/>
      <point x="95" y="376"/>
    </contour>
  </outline>
</glyph>
<glyph name="cent.serif" format="2">
  <advance width="423"/>
  <unicode hex="00A2"/>
  <outline>
    <contour>
      <point x="221" y="94" type="curve"/>
      <point x="221" y="0" type="line"/>
      <point x="246" y="0" type="line"/>
      <point x="246" y="92" type="line"/>
      <point x="318" y="93"/>
      <point x="359" y="148"/>
      <point x="359" y="185" type="curve" smooth="yes"/>
      <point x="359" y="200"/>
      <point x="356" y="207"/>
      <point x="351" y="212" type="curve"/>
      <point x="336" y="168"/>
      <point x="304" y="118"/>
      <point x="246" y="117" type="curve"/>
      <point x="246" y="619" type="line"/>
      <point x="308" y="617"/>
      <point x="331" y="580"/>
      <point x="331" y="508" type="curve"/>
      <point x="343" y="508"/>
      <point x="356" y="516"/>
      <point x="356" y="539" type="curve" smooth="yes"/>
      <point x="356" y="596"/>
      <point x="319" y="642"/>
      <point x="246" y="644" type="curve"/>
      <point x="246" y="714" type="line"/>
      <point x="221" y="714" type="line"/>
      <point x="221" y="643" type="line"/>
      <point x="140" y="634"/>
      <point x="89" y="565"/>
      <point x="89" y="365" type="curve" smooth="yes"/>
      <point x="89" y="175"/>
      <point x="144" y="105"/>
    </contour>
    <contour>
      <point x="221" y="618" type="curve"/>
      <point x="221" y="119" type="line"/>
      <point x="154" y="132"/>
      <point x="117" y="206"/>
      <point x="117" y="366" type="curve" smooth="yes"/>
      <point x="117" y="546"/>
      <point x="157" y="608"/>
    </contour>
  </outline>
</glyph>
<glyph name="sterling.serif" format="2">
  <advance width="423"/>
  <unicode hex="00A3"/>
  <outline>
    <contour>
      <point x="319" y="-10" type="curve" smooth="yes"/>
      <point x="361" y="-10"/>
      <point x="388" y="23"/>
      <point x="400" y="35" type="curve"/>
      <point x="400" y="72" type="line"/>
      <point x="377" y="46"/>
      <point x="356" y="18"/>
      <point x="322" y="18" type="curve" smooth="yes"/>
      <point x="305" y="18"/>
      <point x="283" y="23"/>
      <point x="256" y="35" type="curve" smooth="yes"/>
      <point x="237" y="44"/>
      <point x="204" y="62"/>
      <point x="172" y="62" type="curve" smooth="yes"/>
      <point x="160" y="62"/>
      <point x="148" y="62"/>
      <point x="129" y="58" type="curve"/>
      <point x="129" y="61" type="line"/>
      <point x="162" y="94"/>
      <point x="181" y="159"/>
      <point x="181" y="212" type="curve" smooth="yes"/>
      <point x="181" y="252"/>
      <point x="175" y="292"/>
      <point x="166" y="327" type="curve"/>
      <point x="285" y="327" type="line"/>
      <point x="285" y="352" type="line"/>
      <point x="158" y="352" type="line"/>
      <point x="144" y="399"/>
      <point x="120" y="472"/>
      <point x="120" y="543" type="curve" smooth="yes"/>
      <point x="120" y="639"/>
      <point x="153" y="699"/>
      <point x="235" y="699" type="curve" smooth="yes"/>
      <point x="309" y="699"/>
      <point x="337" y="656"/>
      <point x="337" y="571" type="curve"/>
      <point x="348" y="571"/>
      <point x="356" y="579"/>
      <point x="356" y="613" type="curve" smooth="yes"/>
      <point x="356" y="680"/>
      <point x="321" y="724"/>
      <point x="232" y="724" type="curve" smooth="yes"/>
      <point x="144" y="724"/>
      <point x="92" y="661"/>
      <point x="92" y="546" type="curve" smooth="yes"/>
      <point x="92" y="486"/>
      <point x="111" y="410"/>
      <point x="129" y="352" type="curve"/>
      <point x="57" y="352" type="line"/>
      <point x="57" y="327" type="line"/>
      <point x="137" y="327" type="line"/>
      <point x="146" y="289"/>
      <point x="153" y="245"/>
      <point x="153" y="204" type="curve" smooth="yes"/>
      <point x="153" y="127"/>
      <point x="114" y="68"/>
      <point x="80" y="40" type="curve" smooth="yes"/>
      <point x="68" y="31" type="line"/>
      <point x="68" y="2" type="line"/>
      <point x="78" y="9" type="line" smooth="yes"/>
      <point x="104" y="27"/>
      <point x="124" y="37"/>
      <point x="158" y="37" type="curve" smooth="yes"/>
      <point x="188" y="37"/>
      <point x="209" y="26"/>
      <point x="230" y="16" type="curve" smooth="yes"/>
      <point x="259" y="3"/>
      <point x="284" y="-10"/>
    </contour>
  </outline>
</glyph>
<glyph name="yen.mono" format="2">
  <advance width="500"/>
  <unicode hex="00A5"/>
  <outline>
    <contour>
      <point x="237" y="0" type="line"/>
      <point x="263" y="0" type="line"/>
      <point x="263" y="159" type="line"/>
      <point x="410" y="159" type="line"/>
      <point x="410" y="183" type="line"/>
      <point x="263" y="183" type="line"/>
      <point x="263" y="295" type="line"/>
      <point x="410" y="295" type="line"/>
      <point x="410" y="319" type="line"/>
      <point x="268" y="319" type="line"/>
      <point x="452" y="714" type="line"/>
      <point x="424" y="714" type="line"/>
      <point x="250" y="338" type="line"/>
      <point x="76" y="714" type="line"/>
      <point x="47" y="714" type="line"/>
      <point x="232" y="319" type="line"/>
      <point x="91" y="319" type="line"/>
      <point x="91" y="295" type="line"/>
      <point x="237" y="295" type="line"/>
      <point x="237" y="183" type="line"/>
      <point x="91" y="183" type="line"/>
      <point x="91" y="159" type="line"/>
      <point x="237" y="159" type="line"/>
    </contour>
  </outline>
</glyph>
<glyph name="yen.serif" format="2">
  <advance width="423"/>
  <unicode hex="00A5"/>
  <outline>
    <contour>
      <point x="114" y="0" type="line"/>
      <point x="312" y="0" type="line"/>
      <point x="312" y="20" type="line"/>
      <point x="283" y="20" type="line" smooth="yes"/>
      <point x="233" y="20"/>
      <point x="227" y="31"/>
      <point x="227" y="107" type="curve" smooth="yes"/>
      <point x="227" y="196" type="line"/>
      <point x="337" y="196" type="line"/>
      <point x="337" y="221" type="line"/>
      <point x="227" y="221" type="line"/>
      <point x="227" y="315" type="line"/>
      <point x="337" y="315" type="line"/>
      <point x="337" y="340" type="line"/>
      <point x="236" y="340" type="line"/>
      <point x="363" y="636" type="line" smooth="yes"/>
      <point x="383" y="682"/>
      <point x="390" y="694"/>
      <point x="418" y="694" type="curve" smooth="yes"/>
      <point x="420" y="694" type="line"/>
      <point x="420" y="714" type="line"/>
      <point x="276" y="714" type="line"/>
      <point x="276" y="694" type="line"/>
      <point x="303" y="694" type="line" smooth="yes"/>
      <point x="347" y="694"/>
      <point x="348" y="687"/>
      <point x="348" y="677" type="curve" smooth="yes"/>
      <point x="348" y="662"/>
      <point x="331" y="628"/>
      <point x="307" y="569" type="curve" smooth="yes"/>
      <point x="246" y="424" type="line" smooth="yes"/>
      <point x="234" y="396"/>
      <point x="223" y="366"/>
      <point x="212" y="335" type="curve"/>
      <point x="202" y="366"/>
      <point x="181" y="419"/>
      <point x="164" y="463" type="curve" smooth="yes"/>
      <point x="110" y="601" type="line" smooth="yes"/>
      <point x="95" y="638"/>
      <point x="83" y="665"/>
      <point x="83" y="680" type="curve" smooth="yes"/>
      <point x="83" y="690"/>
      <point x="90" y="694"/>
      <point x="121" y="694" type="curve" smooth="yes"/>
      <point x="155" y="694" type="line"/>
      <point x="155" y="714" type="line"/>
      <point x="3" y="714" type="line"/>
      <point x="3" y="694" type="line"/>
      <point x="5" y="694" type="line" smooth="yes"/>
      <point x="39" y="694"/>
      <point x="46" y="685"/>
      <point x="67" y="634" type="curve" smooth="yes"/>
      <point x="188" y="340" type="line"/>
      <point x="90" y="340" type="line"/>
      <point x="90" y="315" type="line"/>
      <point x="199" y="315" type="line"/>
      <point x="199" y="221" type="line"/>
      <point x="90" y="221" type="line"/>
      <point x="90" y="196" type="line"/>
      <point x="199" y="196" type="line"/>
      <point x="199" y="108" type="line" smooth="yes"/>
      <point x="199" y="31"/>
      <point x="193" y="20"/>
      <point x="143" y="20" type="curve" smooth="yes"/>
      <point x="114" y="20" type="line"/>
    </contour>
  </outline>
</glyph>
<glyph name="dieresis.serif" format="2">
  <advance width="438"/>
  <unicode hex="00A8"/>
  <outline>
    <contour>
      <point x="285" y="662" type="curve" smooth="yes"/>
      <point x="301" y="662"/>
      <point x="308" y="670"/>
      <point x="308" y="698" type="curve" smooth="yes"/>
      <point x="308" y="728"/>
      <point x="301" y="736"/>
      <point x="285" y="736" type="curve" smooth="yes"/>
      <point x="269" y="736"/>
      <point x="262" y="728"/>
      <point x="262" y="698" type="curve" smooth="yes"/>
      <point x="262" y="670"/>
      <point x="269" y="662"/>
    </contour>
    <contour>
      <point x="152" y="662" type="curve" smooth="yes"/>
      <point x="168" y="662"/>
      <point x="175" y="670"/>
      <point x="175" y="698" type="curve" smooth="yes"/>
      <point x="175" y="728"/>
      <point x="168" y="736"/>
      <point x="152" y="736" type="curve" smooth="yes"/>
      <point x="135" y="736"/>
      <point x="130" y="728"/>
      <point x="130" y="698" type="curve" smooth="yes"/>
      <point x="130" y="670"/>
      <point x="135" y="662"/>
    </contour>
  </outline>
</glyph>
<glyph name="ordfeminine.serif" format="2">
  <advance width="261"/>
  <unicode hex="00AA"/>
  <anchor x="127" y="386" name="bottom"/>
  <anchor x="133" y="719" name="top"/>
  <outline>
    <contour>
      <point x="108" y="380" type="curve" smooth="yes"/>
      <point x="148" y="380"/>
      <point x="171" y="402"/>
      <point x="185" y="430" type="curve"/>
      <point x="189" y="430" type="line"/>
      <point x="192" y="386" type="line"/>
      <point x="244" y="386" type="line"/>
      <point x="244" y="406" type="line"/>
      <point x="216" y="406"/>
      <point x="213" y="411"/>
      <point x="213" y="448" type="curve" smooth="yes"/>
      <point x="213" y="622" type="line" smooth="yes"/>
      <point x="213" y="690"/>
      <point x="181" y="719"/>
      <point x="129" y="719" type="curve" smooth="yes"/>
      <point x="79" y="719"/>
      <point x="52" y="689"/>
      <point x="52" y="656" type="curve" smooth="yes"/>
      <point x="52" y="632"/>
      <point x="61" y="620"/>
      <point x="77" y="620" type="curve"/>
      <point x="77" y="662"/>
      <point x="83" y="694"/>
      <point x="130" y="694" type="curve" smooth="yes"/>
      <point x="170" y="694"/>
      <point x="185" y="662"/>
      <point x="185" y="616" type="curve" smooth="yes"/>
      <point x="185" y="580" type="line"/>
      <point x="143" y="578" type="line" smooth="yes"/>
      <point x="66" y="574"/>
      <point x="31" y="528"/>
      <point x="31" y="470" type="curve" smooth="yes"/>
      <point x="31" y="419"/>
      <point x="53" y="380"/>
    </contour>
    <contour>
      <point x="112" y="405" type="curve" smooth="yes"/>
      <point x="79" y="405"/>
      <point x="59" y="425"/>
      <point x="59" y="468" type="curve" smooth="yes"/>
      <point x="59" y="510"/>
      <point x="75" y="552"/>
      <point x="146" y="555" type="curve" smooth="yes"/>
      <point x="185" y="557" type="line"/>
      <point x="185" y="508" type="line" smooth="yes"/>
      <point x="185" y="439"/>
      <point x="154" y="405"/>
    </contour>
  </outline>
</glyph>
<glyph name="guillemetleft.display" format="2">
  <advance width="397"/>
  <unicode hex="00AB"/>
  <outline>
    <contour>
      <point x="39" y="284" type="line"/>
      <point x="39" y="271" type="line"/>
      <point x="176" y="98" type="line"/>
      <point x="194" y="108" type="line"/>
      <point x="74" y="278" type="line"/>
      <point x="193" y="449" type="line"/>
      <point x="176" y="459" type="line"/>
    </contour>
    <contour>
      <point x="204" y="284" type="line"/>
      <point x="204" y="271" type="line"/>
      <point x="341" y="98" type="line"/>
      <point x="359" y="108" type="line"/>
      <point x="240" y="278" type="line"/>
      <point x="359" y="449" type="line"/>
      <point x="341" y="459" type="line"/>
    </contour>
  </outline>
</glyph>
<glyph name="guillemetleft.mono" format="2">
  <advance width="500"/>
  <unicode hex="00AB"/>
  <outline>
    <contour>
      <point x="399" y="82" type="line"/>
      <point x="416" y="92" type="line"/>
      <point x="286" y="268" type="line"/>
      <point x="416" y="444" type="line"/>
      <point x="399" y="455" type="line"/>
      <point x="253" y="274" type="line"/>
      <point x="253" y="261" type="line"/>
    </contour>
    <contour>
      <point x="230" y="82" type="line"/>
      <point x="247" y="92" type="line"/>
      <point x="116" y="268" type="line"/>
      <point x="246" y="444" type="line"/>
      <point x="230" y="455" type="line"/>
      <point x="83" y="274" type="line"/>
      <point x="83" y="261" type="line"/>
    </contour>
  </outline>
</glyph>
<glyph name="guillemetleft.serif" format="2">
  <advance width="359"/>
  <unicode hex="00AB"/>
  <outline>
    <contour>
      <point x="293" y="91" type="line"/>
      <point x="306" y="91" type="line"/>
      <point x="222" y="270" type="line"/>
      <point x="306" y="449" type="line"/>
      <point x="293" y="449" type="line"/>
      <point x="177" y="275" type="line"/>
      <point x="177" y="265" type="line"/>
    </contour>
    <contour>
      <point x="178" y="91" type="line"/>
      <point x="192" y="91" type="line"/>
      <point x="107" y="270" type="line"/>
      <point x="192" y="449" type="line"/>
      <point x="178" y="449" type="line"/>
      <point x="63" y="275" type="line"/>
      <point x="63" y="265" type="line"/>
    </contour>
  </outline>
</glyph>
<glyph name="logicalnot.mono" format="2">
  <advance width="500"/>
  <unicode hex="00AC"/>
  <outline>
    <contour>
      <point x="401" y="126" type="line"/>
      <point x="426" y="126" type="line"/>
      <point x="426" y="364" type="line"/>
      <point x="42" y="364" type="line"/>
      <point x="42" y="340" type="line"/>
      <point x="401" y="340" type="line"/>
    </contour>
  </outline>
</glyph>
<glyph name="registered.display" format="2">
  <advance width="806"/>
  <unicode hex="00AE"/>
  <outline>
    <contour>
      <point x="398" y="348" type="curve" smooth="yes"/>
      <point x="313" y="348" type="line"/>
      <point x="313" y="545" type="line"/>
      <point x="400" y="545" type="line" smooth="yes"/>
      <point x="466" y="545"/>
      <point x="513" y="517"/>
      <point x="513" y="449" type="curve" smooth="yes"/>
      <point x="513" y="377"/>
      <point x="463" y="348"/>
    </contour>
    <contour>
      <point x="539" y="448" type="curve" smooth="yes"/>
      <point x="539" y="533"/>
      <point x="483" y="569"/>
      <point x="403" y="569" type="curve" smooth="yes"/>
      <point x="287" y="569" type="line"/>
      <point x="287" y="143" type="line"/>
      <point x="314" y="143" type="line"/>
      <point x="314" y="324" type="line"/>
      <point x="423" y="324" type="line"/>
      <point x="512" y="143" type="line"/>
      <point x="542" y="143" type="line"/>
      <point x="449" y="330" type="line"/>
      <point x="499" y="344"/>
      <point x="539" y="376"/>
    </contour>
    <contour>
      <point x="48" y="357" type="curve" smooth="yes"/>
      <point x="48" y="147"/>
      <point x="186" y="-8"/>
      <point x="400" y="-8" type="curve" smooth="yes"/>
      <point x="614" y="-8"/>
      <point x="758" y="146"/>
      <point x="758" y="355" type="curve" smooth="yes"/>
      <point x="758" y="562"/>
      <point x="618" y="722"/>
      <point x="404" y="722" type="curve" smooth="yes"/>
      <point x="201" y="722"/>
      <point x="48" y="577"/>
    </contour>
    <contour>
      <point x="74" y="357" type="curve" smooth="yes"/>
      <point x="74" y="555"/>
      <point x="209" y="697"/>
      <point x="402" y="697" type="curve" smooth="yes"/>
      <point x="601" y="697"/>
      <point x="732" y="547"/>
      <point x="732" y="357" type="curve" smooth="yes"/>
      <point x="732" y="166"/>
      <point x="600" y="17"/>
      <point x="400" y="17" type="curve" smooth="yes"/>
      <point x="201" y="17"/>
      <point x="74" y="164"/>
    </contour>
  </outline>
</glyph>
<glyph name="overscore.serif" format="2">
  <advance width="347"/>
  <unicode hex="00AF"/>
  <outline>
    <contour>
      <point x="-3" y="760" type="line"/>
      <point x="351" y="760" type="line"/>
      <point x="351" y="819" type="line"/>
      <point x="-3" y="819" type="line"/>
    </contour>
  </outline>
</glyph>
<glyph name="degree.serif" format="2">
  <advance width="303"/>
  <unicode hex="00B0"/>
  <outline>
    <contour>
      <point x="152" y="441" type="curve" smooth="yes"/>
      <point x="222" y="441"/>
      <point x="264" y="499"/>
      <point x="264" y="582" type="curve" smooth="yes"/>
      <point x="264" y="665"/>
      <point x="222" y="724"/>
      <point x="152" y="724" type="curve" smooth="yes"/>
      <point x="81" y="724"/>
      <point x="41" y="665"/>
      <point x="41" y="582" type="curve" smooth="yes"/>
      <point x="41" y="499"/>
      <point x="81" y="441"/>
    </contour>
    <contour>
      <point x="154" y="464" type="curve" smooth="yes"/>
      <point x="96" y="464"/>
      <point x="66" y="515"/>
      <point x="66" y="584" type="curve" smooth="yes"/>
      <point x="66" y="653"/>
      <point x="97" y="701"/>
      <point x="154" y="701" type="curve" smooth="yes"/>
      <point x="209" y="701"/>
      <point x="239" y="653"/>
      <point x="239" y="584" type="curve" smooth="yes"/>
      <point x="239" y="515"/>
      <point x="210" y="464"/>
    </contour>
  </outline>
</glyph>
<glyph name="plusminus.serif" format="2">
  <advance width="425"/>
  <unicode hex="00B1"/>
  <outline>
    <contour>
      <point x="50" y="-1" type="line"/>
      <point x="375" y="-1" type="line"/>
      <point x="375" y="27" type="line"/>
      <point x="50" y="27" type="line"/>
    </contour>
    <component base="plus"/>
  </outline>
</glyph>
<glyph name="acute.serif" format="2">
  <advance width="191"/>
  <unicode hex="00B4"/>
  <outline>
    <contour>
      <point x="40" y="619" type="curve"/>
      <point x="40" y="606" type="line"/>
      <point x="45" y="606" type="line"/>
      <point x="83" y="653"/>
      <point x="132" y="721"/>
      <point x="151" y="756" type="curve"/>
      <point x="151" y="766" type="line"/>
      <point x="106" y="766" type="line"/>
      <point x="92" y="721"/>
      <point x="70" y="678"/>
    </contour>
  </outline>
</glyph>
<glyph name="micro.serif" format="2">
  <advance width="428"/>
  <unicode hex="00B5"/>
  <outline>
    <contour>
      <point x="128" y="-240" type="curve" smooth="yes"/>
      <point x="147" y="-240"/>
      <point x="156" y="-230"/>
      <point x="156" y="-222" type="curve"/>
      <point x="89" y="-222"/>
      <point x="98" y="-192"/>
      <point x="100" y="66" type="curve"/>
      <point x="113" y="18"/>
      <point x="146" y="-10"/>
      <point x="200" y="-10" type="curve" smooth="yes"/>
      <point x="254" y="-10"/>
      <point x="297" y="32"/>
      <point x="314" y="84" type="curve"/>
      <point x="316" y="84" type="line"/>
      <point x="318" y="27"/>
      <point x="344" y="0"/>
      <point x="386" y="0" type="curve" smooth="yes"/>
      <point x="396" y="0" type="line"/>
      <point x="396" y="20" type="line"/>
      <point x="391" y="20" type="line" smooth="yes"/>
      <point x="362" y="20"/>
      <point x="341" y="42"/>
      <point x="341" y="104" type="curve" smooth="yes"/>
      <point x="341" y="536" type="line"/>
      <point x="313" y="536" type="line"/>
      <point x="313" y="199" type="line" smooth="yes"/>
      <point x="313" y="89"/>
      <point x="269" y="15"/>
      <point x="200" y="15" type="curve" smooth="yes"/>
      <point x="139" y="15"/>
      <point x="106" y="61"/>
      <point x="106" y="170" type="curve" smooth="yes"/>
      <point x="106" y="536" type="line"/>
      <point x="78" y="536" type="line"/>
      <point x="78" y="225" type="line" smooth="yes"/>
      <point x="78" y="58"/>
      <point x="72" y="-62"/>
      <point x="72" y="-142" type="curve" smooth="yes"/>
      <point x="72" y="-219"/>
      <point x="95" y="-240"/>
    </contour>
  </outline>
</glyph>
<glyph name="paragraph.mono" format="2">
  <advance width="500"/>
  <unicode hex="00B6"/>
  <outline>
    <contour>
      <point x="237" y="355" type="curve"/>
      <point x="237" y="-127" type="line"/>
      <point x="262" y="-127" type="line"/>
      <point x="262" y="734" type="line"/>
      <point x="375" y="734" type="line"/>
      <point x="375" y="-127" type="line"/>
      <point x="400" y="-127" type="line"/>
      <point x="400" y="760" type="line"/>
      <point x="206" y="760" type="line" smooth="yes"/>
      <point x="107" y="760"/>
      <point x="64" y="684"/>
      <point x="64" y="556" type="curve" smooth="yes"/>
      <point x="64" y="438"/>
      <point x="101" y="346"/>
      <point x="190" y="346" type="curve" smooth="yes"/>
      <point x="206" y="346"/>
      <point x="220" y="349"/>
    </contour>
  </outline>
</glyph>
<glyph name="paragraph.serif" format="2">
  <advance width="451"/>
  <unicode hex="00B6"/>
  <outline>
    <contour>
      <point x="128" y="-111" type="line"/>
      <point x="228" y="-111" type="line"/>
      <point x="228" y="735" type="line"/>
      <point x="308" y="735" type="line"/>
      <point x="308" y="-111" type="line"/>
      <point x="408" y="-111" type="line"/>
      <point x="408" y="-91" type="line"/>
      <point x="402" y="-91" type="line" smooth="yes"/>
      <point x="342" y="-91"/>
      <point x="336" y="-85"/>
      <point x="336" y="-17" type="curve" smooth="yes"/>
      <point x="336" y="664" type="line" smooth="yes"/>
      <point x="336" y="734"/>
      <point x="342" y="740"/>
      <point x="402" y="740" type="curve" smooth="yes"/>
      <point x="408" y="740" type="line"/>
      <point x="408" y="760" type="line"/>
      <point x="170" y="760" type="line" smooth="yes"/>
      <point x="61" y="760"/>
      <point x="30" y="689"/>
      <point x="30" y="582" type="curve" smooth="yes"/>
      <point x="30" y="478"/>
      <point x="57" y="386"/>
      <point x="168" y="386" type="curve" smooth="yes"/>
      <point x="200" y="386" type="line"/>
      <point x="200" y="-15" type="line" smooth="yes"/>
      <point x="200" y="-86"/>
      <point x="194" y="-91"/>
      <point x="133" y="-91" type="curve" smooth="yes"/>
      <point x="128" y="-91" type="line"/>
    </contour>
  </outline>
</glyph>
<glyph name="periodcentered.serif" format="2">
  <advance width="157"/>
  <unicode hex="00B7"/>
  <outline>
    <contour>
      <point x="80" y="316" type="curve" smooth="yes"/>
      <point x="94" y="316"/>
      <point x="107" y="326"/>
      <point x="107" y="358" type="curve" smooth="yes"/>
      <point x="107" y="388"/>
      <point x="94" y="398"/>
      <point x="80" y="398" type="curve" smooth="yes"/>
      <point x="63" y="398"/>
      <point x="50" y="388"/>
      <point x="50" y="358" type="curve" smooth="yes"/>
      <point x="50" y="326"/>
      <point x="63" y="316"/>
    </contour>
  </outline>
</glyph>
<glyph name="cedilla.serif" format="2">
  <advance width="252"/>
  <unicode hex="00B8"/>
  <outline>
    <contour>
      <point x="101" y="-222" type="curve" smooth="yes"/>
      <point x="156" y="-222"/>
      <point x="187" y="-189"/>
      <point x="187" y="-130" type="curve" smooth="yes"/>
      <point x="187" y="-76"/>
      <point x="154" y="-52"/>
      <point x="121" y="-44" type="curve"/>
      <point x="133" y="9" type="line"/>
      <point x="108" y="9" type="line"/>
      <point x="94" y="-63" type="line"/>
      <point x="136" y="-69"/>
      <point x="159" y="-90"/>
      <point x="159" y="-130" type="curve" smooth="yes"/>
      <point x="159" y="-176"/>
      <point x="135" y="-197"/>
      <point x="98" y="-197" type="curve" smooth="yes"/>
      <point x="86" y="-197"/>
      <point x="70" y="-194"/>
      <point x="53" y="-189" type="curve"/>
      <point x="53" y="-212" type="line"/>
      <point x="70" y="-219"/>
      <point x="85" y="-222"/>
    </contour>
  </outline>
</glyph>
<glyph name="onesuperior.mono" format="2">
  <advance width="500"/>
  <unicode hex="00B9"/>
  <outline>
    <contour>
      <point x="248" y="708" type="curve" smooth="yes"/>
      <point x="248" y="416" type="line"/>
      <point x="274" y="416" type="line"/>
      <point x="274" y="843" type="line"/>
      <point x="255" y="843" type="line"/>
      <point x="129" y="768" type="line"/>
      <point x="140" y="748" type="line"/>
      <point x="199" y="783" type="line" smooth="yes"/>
      <point x="220" y="795"/>
      <point x="233" y="802"/>
      <point x="250" y="814" type="curve"/>
      <point x="249" y="784"/>
      <point x="248" y="742"/>
    </contour>
    <contour>
      <point x="142" y="416" type="line"/>
      <point x="377" y="416" type="line"/>
      <point x="377" y="435" type="line"/>
      <point x="274" y="440" type="line"/>
      <point x="249" y="440" type="line"/>
      <point x="142" y="435" type="line"/>
    </contour>
  </outline>
</glyph>
<glyph name="onesuperior.serif" format="2">
  <advance width="303"/>
  <unicode hex="00B9"/>
  <outline>
    <contour>
      <point x="60" y="386" type="line"/>
      <point x="243" y="386" type="line"/>
      <point x="243" y="406" type="line"/>
      <point x="204" y="406" type="line" smooth="yes"/>
      <point x="177" y="406"/>
      <point x="171" y="414"/>
      <point x="171" y="459" type="curve" smooth="yes"/>
      <point x="171" y="818" type="line"/>
      <point x="150" y="818" type="line"/>
      <point x="146" y="813" type="line" smooth="yes"/>
      <point x="111" y="769"/>
      <point x="91" y="746"/>
      <point x="48" y="742" type="curve"/>
      <point x="48" y="726"/>
      <point x="60" y="721"/>
      <point x="75" y="721" type="curve" smooth="yes"/>
      <point x="93" y="721"/>
      <point x="122" y="739"/>
      <point x="143" y="771" type="curve"/>
      <point x="143" y="459" type="line" smooth="yes"/>
      <point x="143" y="414"/>
      <point x="137" y="406"/>
      <point x="109" y="406" type="curve" smooth="yes"/>
      <point x="60" y="406" type="line"/>
    </contour>
  </outline>
</glyph>
<glyph name="ordmasculine.serif" format="2">
  <advance width="270"/>
  <unicode hex="00BA"/>
  <anchor x="135" y="383" name="bottom"/>
  <anchor x="137" y="719" name="top"/>
  <outline>
    <contour>
      <point x="134" y="380" type="curve" smooth="yes"/>
      <point x="201" y="380"/>
      <point x="236" y="436"/>
      <point x="236" y="550" type="curve" smooth="yes"/>
      <point x="236" y="662"/>
      <point x="201" y="719"/>
      <point x="136" y="719" type="curve" smooth="yes"/>
      <point x="70" y="719"/>
      <point x="35" y="664"/>
      <point x="35" y="550" type="curve" smooth="yes"/>
      <point x="35" y="437"/>
      <point x="68" y="380"/>
    </contour>
    <contour>
      <point x="136" y="405" type="curve" smooth="yes"/>
      <point x="81" y="405"/>
      <point x="63" y="455"/>
      <point x="63" y="550" type="curve" smooth="yes"/>
      <point x="63" y="645"/>
      <point x="81" y="694"/>
      <point x="135" y="694" type="curve" smooth="yes"/>
      <point x="188" y="694"/>
      <point x="208" y="645"/>
      <point x="208" y="550" type="curve" smooth="yes"/>
      <point x="208" y="455"/>
      <point x="189" y="405"/>
    </contour>
  </outline>
</glyph>
<glyph name="guillemetright.display" format="2">
  <advance width="387"/>
  <unicode hex="00BB"/>
  <outline>
    <contour>
      <point x="349" y="271" type="line"/>
      <point x="349" y="284" type="line"/>
      <point x="212" y="459" type="line"/>
      <point x="194" y="449" type="line"/>
      <point x="314" y="278" type="line"/>
      <point x="194" y="108" type="line"/>
      <point x="212" y="98" type="line"/>
    </contour>
    <contour>
      <point x="194" y="271" type="line"/>
      <point x="194" y="284" type="line"/>
      <point x="57" y="459" type="line"/>
      <point x="39" y="449" type="line"/>
      <point x="159" y="278" type="line"/>
      <point x="39" y="108" type="line"/>
      <point x="57" y="98" type="line"/>
    </contour>
  </outline>
</glyph>
<glyph name="guillemotright" format="2">
  <advance width="397"/>
  <unicode hex="00BB"/>
  <outline>
    <contour>
      <point x="358" y="271" type="line"/>
      <point x="358" y="284" type="line"/>
      <point x="217" y="459" type="line"/>
      <point x="199" y="449" type="line"/>
      <point x="323" y="278" type="line"/>
      <point x="199" y="108" type="line"/>
      <point x="217" y="98" type="line"/>
    </contour>
    <contour>
      <point x="199" y="271" type="line"/>
      <point x="199" y="284" type="line"/>
      <point x="58" y="459" type="line"/>
      <point x="40" y="449" type="line"/>
      <point x="164" y="278" type="line"/>
      <point x="40" y="108" type="line"/>
      <point x="58" y="98" type="line"/>
    </contour>
  </outline>
</glyph>
<glyph name="onequarter.mono" format="2">
  <advance width="500"/>
  <unicode hex="00BC"/>
  <outline>
    <contour>
      <point x="78" y="0" type="line"/>
      <point x="106" y="0" type="line"/>
      <point x="413" y="714" type="line"/>
      <point x="385" y="714" type="line"/>
    </contour>
    <contour>
      <point x="32" y="367" type="line"/>
      <point x="200" y="367" type="line"/>
      <point x="200" y="386" type="line"/>
      <point x="128" y="391" type="line"/>
      <point x="105" y="391" type="line"/>
      <point x="32" y="386" type="line"/>
    </contour>
    <contour>
      <point x="398" y="0" type="line"/>
      <point x="421" y="0" type="line"/>
      <point x="421" y="96" type="line"/>
      <point x="471" y="96" type="line"/>
      <point x="471" y="120" type="line"/>
      <point x="421" y="120" type="line"/>
      <point x="421" y="349" type="line"/>
      <point x="395" y="349" type="line"/>
      <point x="258" y="114" type="line"/>
      <point x="258" y="96" type="line"/>
      <point x="398" y="96" type="line"/>
    </contour>
    <contour>
      <point x="288" y="120" type="line"/>
      <point x="372" y="268" type="line" smooth="yes"/>
      <point x="384" y="289"/>
      <point x="389" y="298"/>
      <point x="399" y="320" type="curve"/>
      <point x="398" y="294"/>
      <point x="398" y="269"/>
      <point x="398" y="237" type="curve" smooth="yes"/>
      <point x="398" y="120" type="line"/>
    </contour>
    <contour>
      <point x="105" y="566" type="curve" smooth="yes"/>
      <point x="105" y="367" type="line"/>
      <point x="129" y="367" type="line"/>
      <point x="129" y="714" type="line"/>
      <point x="110" y="714" type="line"/>
      <point x="15" y="652" type="line"/>
      <point x="26" y="630" type="line"/>
      <point x="48" y="644" type="line" smooth="yes"/>
      <point x="74" y="661"/>
      <point x="88" y="670"/>
      <point x="106" y="685" type="curve"/>
      <point x="105" y="649"/>
      <point x="105" y="604"/>
    </contour>
  </outline>
</glyph>
<glyph name="onehalf.mono" format="2">
  <advance width="500"/>
  <unicode hex="00BD"/>
  <outline>
    <contour>
      <point x="78" y="0" type="line"/>
      <point x="106" y="0" type="line"/>
      <point x="413" y="714" type="line"/>
      <point x="385" y="714" type="line"/>
    </contour>
    <contour>
      <point x="32" y="367" type="line"/>
      <point x="200" y="367" type="line"/>
      <point x="200" y="386" type="line"/>
      <point x="128" y="391" type="line"/>
      <point x="105" y="391" type="line"/>
      <point x="32" y="386" type="line"/>
    </contour>
    <contour>
      <point x="287" y="0" type="line"/>
      <point x="476" y="0" type="line"/>
      <point x="476" y="25" type="line"/>
      <point x="321" y="25" type="line"/>
      <point x="384" y="104" type="line" smooth="yes"/>
      <point x="436" y="170"/>
      <point x="469" y="206"/>
      <point x="469" y="263" type="curve" smooth="yes"/>
      <point x="469" y="316"/>
      <point x="437" y="355"/>
      <point x="383" y="355" type="curve" smooth="yes"/>
      <point x="351" y="355"/>
      <point x="322" y="342"/>
      <point x="297" y="317" type="curve"/>
      <point x="310" y="297" type="line"/>
      <point x="333" y="320"/>
      <point x="356" y="330"/>
      <point x="383" y="330" type="curve" smooth="yes"/>
      <point x="422" y="330"/>
      <point x="443" y="302"/>
      <point x="443" y="263" type="curve" smooth="yes"/>
      <point x="443" y="215"/>
      <point x="415" y="180"/>
      <point x="368" y="121" type="curve" smooth="yes"/>
      <point x="288" y="21" type="line"/>
    </contour>
    <contour>
      <point x="105" y="566" type="curve" smooth="yes"/>
      <point x="105" y="367" type="line"/>
      <point x="129" y="367" type="line"/>
      <point x="129" y="714" type="line"/>
      <point x="110" y="714" type="line"/>
      <point x="15" y="652" type="line"/>
      <point x="26" y="630" type="line"/>
      <point x="48" y="644" type="line" smooth="yes"/>
      <point x="74" y="661"/>
      <point x="88" y="670"/>
      <point x="106" y="685" type="curve"/>
      <point x="105" y="649"/>
      <point x="105" y="604"/>
    </contour>
  </outline>
</glyph>
<glyph name="threequarters.mono" format="2">
  <advance width="500"/>
  <unicode hex="00BE"/>
  <outline>
    <contour>
      <point x="79" y="0" type="line"/>
      <point x="107" y="0" type="line"/>
      <point x="414" y="714" type="line"/>
      <point x="386" y="714" type="line"/>
    </contour>
    <contour>
      <point x="399" y="0" type="line"/>
      <point x="422" y="0" type="line"/>
      <point x="422" y="96" type="line"/>
      <point x="471" y="96" type="line"/>
      <point x="471" y="120" type="line"/>
      <point x="422" y="120" type="line"/>
      <point x="422" y="349" type="line"/>
      <point x="396" y="349" type="line"/>
      <point x="258" y="114" type="line"/>
      <point x="258" y="96" type="line"/>
      <point x="399" y="96" type="line"/>
    </contour>
    <contour>
      <point x="288" y="120" type="line"/>
      <point x="372" y="268" type="line" smooth="yes"/>
      <point x="384" y="289"/>
      <point x="389" y="298"/>
      <point x="399" y="320" type="curve"/>
      <point x="399" y="294"/>
      <point x="399" y="269"/>
      <point x="399" y="237" type="curve" smooth="yes"/>
      <point x="399" y="120" type="line"/>
    </contour>
    <contour>
      <point x="103" y="361" type="curve" smooth="yes"/>
      <point x="170" y="361"/>
      <point x="208" y="400"/>
      <point x="208" y="467" type="curve" smooth="yes"/>
      <point x="208" y="513"/>
      <point x="190" y="541"/>
      <point x="150" y="552" type="curve"/>
      <point x="150" y="554" type="line"/>
      <point x="180" y="562"/>
      <point x="202" y="592"/>
      <point x="202" y="636" type="curve" smooth="yes"/>
      <point x="202" y="691"/>
      <point x="169" y="723"/>
      <point x="116" y="723" type="curve" smooth="yes"/>
      <point x="81" y="723"/>
      <point x="51" y="710"/>
      <point x="26" y="690" type="curve"/>
      <point x="36" y="668" type="line"/>
      <point x="60" y="686"/>
      <point x="85" y="698"/>
      <point x="115" y="698" type="curve" smooth="yes"/>
      <point x="155" y="698"/>
      <point x="177" y="675"/>
      <point x="177" y="634" type="curve" smooth="yes"/>
      <point x="177" y="590"/>
      <point x="148" y="562"/>
      <point x="97" y="562" type="curve" smooth="yes"/>
      <point x="63" y="562" type="line"/>
      <point x="63" y="540" type="line"/>
      <point x="97" y="540" type="line" smooth="yes"/>
      <point x="155" y="540"/>
      <point x="184" y="516"/>
      <point x="184" y="468" type="curve" smooth="yes"/>
      <point x="184" y="417"/>
      <point x="156" y="386"/>
      <point x="104" y="386" type="curve" smooth="yes"/>
      <point x="74" y="386"/>
      <point x="48" y="395"/>
      <point x="21" y="410" type="curve"/>
      <point x="21" y="382" type="line"/>
      <point x="44" y="369"/>
      <point x="74" y="361"/>
    </contour>
  </outline>
</glyph>
<glyph name="Aring.serif" format="2">
  <advance width="499"/>
  <unicode hex="00C5"/>
  <anchor x="250" y="0" name="bottom"/>
  <anchor x="250" y="891" name="top"/>
  <outline>
    <contour>
      <point x="-2" y="0" type="line"/>
      <point x="165" y="0" type="line"/>
      <point x="165" y="20" type="line"/>
      <point x="143" y="20" type="line" smooth="yes"/>
      <point x="100" y="20"/>
      <point x="89" y="28"/>
      <point x="89" y="46" type="curve" smooth="yes"/>
      <point x="89" y="61"/>
      <point x="101" y="101"/>
      <point x="109" y="128" type="curve" smooth="yes"/>
      <point x="144" y="251" type="line"/>
      <point x="358" y="251" type="line"/>
      <point x="398" y="111" type="line" smooth="yes"/>
      <point x="405" y="86"/>
      <point x="414" y="58"/>
      <point x="414" y="48" type="curve" smooth="yes"/>
      <point x="414" y="27"/>
      <point x="406" y="20"/>
      <point x="362" y="20" type="curve" smooth="yes"/>
      <point x="342" y="20" type="line"/>
      <point x="342" y="0" type="line"/>
      <point x="499" y="0" type="line"/>
      <point x="499" y="20" type="line"/>
      <point x="492" y="20" type="line" smooth="yes"/>
      <point x="458" y="20"/>
      <point x="450" y="25"/>
      <point x="442" y="55" type="curve" smooth="yes"/>
      <point x="270" y="675" type="line"/>
      <point x="311" y="684"/>
      <point x="341" y="720"/>
      <point x="341" y="782" type="curve" smooth="yes"/>
      <point x="341" y="853"/>
      <point x="301" y="891"/>
      <point x="250" y="891" type="curve" smooth="yes"/>
      <point x="199" y="891"/>
      <point x="159" y="853"/>
      <point x="159" y="782" type="curve" smooth="yes"/>
      <point x="159" y="719"/>
      <point x="191" y="682"/>
      <point x="233" y="674" type="curve"/>
      <point x="74" y="104" type="line" smooth="yes"/>
      <point x="54" y="32"/>
      <point x="47" y="20"/>
      <point x="13" y="20" type="curve" smooth="yes"/>
      <point x="-2" y="20" type="line"/>
    </contour>
    <contour>
      <point x="152" y="276" type="line"/>
      <point x="214" y="509" type="line" smooth="yes"/>
      <point x="229" y="567"/>
      <point x="245" y="619"/>
      <point x="251" y="653" type="curve"/>
      <point x="259" y="620"/>
      <point x="272" y="570"/>
      <point x="293" y="493" type="curve" smooth="yes"/>
      <point x="352" y="276" type="line"/>
    </contour>
    <contour>
      <point x="251" y="698" type="curve" smooth="yes"/>
      <point x="215" y="698"/>
      <point x="187" y="720"/>
      <point x="187" y="782" type="curve" smooth="yes"/>
      <point x="187" y="845"/>
      <point x="215" y="868"/>
      <point x="251" y="868" type="curve" smooth="yes"/>
      <point x="284" y="868"/>
      <point x="313" y="845"/>
      <point x="313" y="782" type="curve" smooth="yes"/>
      <point x="313" y="720"/>
      <point x="284" y="698"/>
    </contour>
  </outline>
</glyph>
<glyph name="AE.serif" format="2">
  <advance width="687"/>
  <unicode hex="00C6"/>
  <anchor x="344" y="0" name="bottom"/>
  <anchor x="344" y="714" name="top"/>
  <outline>
    <contour>
      <point x="-2" y="0" type="line"/>
      <point x="176" y="0" type="line"/>
      <point x="176" y="20" type="line"/>
      <point x="139" y="20" type="line" smooth="yes"/>
      <point x="102" y="20"/>
      <point x="89" y="28"/>
      <point x="89" y="45" type="curve" smooth="yes"/>
      <point x="89" y="63"/>
      <point x="97" y="83"/>
      <point x="113" y="124" type="curve" smooth="yes"/>
      <point x="164" y="251" type="line"/>
      <point x="347" y="251" type="line"/>
      <point x="347" y="101" type="line" smooth="yes"/>
      <point x="347" y="31"/>
      <point x="341" y="20"/>
      <point x="288" y="20" type="curve" smooth="yes"/>
      <point x="274" y="20" type="line"/>
      <point x="274" y="0" type="line"/>
      <point x="644" y="0" type="line"/>
      <point x="648" y="164" type="line"/>
      <point x="628" y="164" type="line"/>
      <point x="624" y="94" type="line" smooth="yes"/>
      <point x="620" y="40"/>
      <point x="618" y="25"/>
      <point x="564" y="25" type="curve" smooth="yes"/>
      <point x="373" y="25" type="line"/>
      <point x="375" y="362" type="line"/>
      <point x="565" y="362" type="line"/>
      <point x="565" y="387" type="line"/>
      <point x="375" y="387" type="line"/>
      <point x="375" y="689" type="line"/>
      <point x="525" y="689" type="line" smooth="yes"/>
      <point x="591" y="689"/>
      <point x="598" y="682"/>
      <point x="601" y="600" type="curve" smooth="yes"/>
      <point x="603" y="550" type="line"/>
      <point x="623" y="550" type="line"/>
      <point x="618" y="714" type="line"/>
      <point x="246" y="714" type="line"/>
      <point x="246" y="694" type="line"/>
      <point x="311" y="692" type="line"/>
      <point x="80" y="107" type="line" smooth="yes"/>
      <point x="49" y="26"/>
      <point x="46" y="20"/>
      <point x="11" y="20" type="curve" smooth="yes"/>
      <point x="-2" y="20" type="line"/>
    </contour>
    <contour>
      <point x="174" y="276" type="line"/>
      <point x="339" y="689" type="line"/>
      <point x="347" y="689" type="line"/>
      <point x="347" y="276" type="line"/>
    </contour>
  </outline>
</glyph>
<glyph name="Eth.serif" format="2">
  <advance width="522"/>
  <unicode hex="00D0"/>
  <anchor x="261" y="0" name="bottom"/>
  <anchor x="261" y="714" name="top"/>
  <outline>
    <contour>
      <point x="36" y="0" type="line"/>
      <point x="234" y="0" type="line" smooth="yes"/>
      <point x="403" y="0"/>
      <point x="477" y="124"/>
      <point x="477" y="343" type="curve" smooth="yes"/>
      <point x="477" y="576"/>
      <point x="395" y="714"/>
      <point x="235" y="714" type="curve" smooth="yes"/>
      <point x="36" y="714" type="line"/>
      <point x="36" y="694" type="line"/>
      <point x="49" y="694" type="line" smooth="yes"/>
      <point x="102" y="694"/>
      <point x="110" y="686"/>
      <point x="110" y="609" type="curve" smooth="yes"/>
      <point x="110" y="386" type="line"/>
      <point x="29" y="386" type="line"/>
      <point x="29" y="361" type="line"/>
      <point x="110" y="361" type="line"/>
      <point x="110" y="110" type="line" smooth="yes"/>
      <point x="110" y="27"/>
      <point x="102" y="20"/>
      <point x="48" y="20" type="curve" smooth="yes"/>
      <point x="36" y="20" type="line"/>
    </contour>
    <contour>
      <point x="234" y="25" type="curve" smooth="yes"/>
      <point x="138" y="25" type="line"/>
      <point x="138" y="361" type="line"/>
      <point x="306" y="361" type="line"/>
      <point x="306" y="386" type="line"/>
      <point x="138" y="386" type="line"/>
      <point x="138" y="689" type="line"/>
      <point x="235" y="689" type="line" smooth="yes"/>
      <point x="378" y="689"/>
      <point x="449" y="557"/>
      <point x="449" y="343" type="curve" smooth="yes"/>
      <point x="449" y="128"/>
      <point x="378" y="25"/>
    </contour>
  </outline>
</glyph>
<glyph name="Oslash.mono" format="2">
  <advance width="500"/>
  <unicode hex="00D8"/>
  <anchor x="250" y="0" name="bottom"/>
  <anchor x="250" y="714" name="top"/>
  <outline>
    <contour>
      <point x="41" y="-28" type="line"/>
      <point x="470" y="724" type="line"/>
      <point x="449" y="737" type="line"/>
      <point x="19" y="-15" type="line"/>
    </contour>
    <component base="O"/>
  </outline>
</glyph>
<glyph name="Oslash.serif" format="2">
  <advance width="529"/>
  <unicode hex="00D8"/>
  <anchor x="265" y="0" name="bottom"/>
  <anchor x="265" y="714" name="top"/>
  <outline>
    <contour>
      <point x="120" y="59" type="curve"/>
      <point x="77" y="-40" type="line"/>
      <point x="104" y="-40" type="line"/>
      <point x="139" y="39" type="line"/>
      <point x="172" y="7"/>
      <point x="213" y="-10"/>
      <point x="264" y="-10" type="curve" smooth="yes"/>
      <point x="404" y="-10"/>
      <point x="485" y="125"/>
      <point x="485" y="358" type="curve" smooth="yes"/>
      <point x="485" y="503"/>
      <point x="461" y="603"/>
      <point x="413" y="661" type="curve"/>
      <point x="454" y="755" type="line"/>
      <point x="426" y="755" type="line"/>
      <point x="394" y="681" type="line"/>
      <point x="360" y="711"/>
      <point x="317" y="725"/>
      <point x="265" y="725" type="curve" smooth="yes"/>
      <point x="118" y="725"/>
      <point x="44" y="596"/>
      <point x="44" y="359" type="curve" smooth="yes"/>
      <point x="44" y="228"/>
      <point x="69" y="123"/>
    </contour>
    <contour>
      <point x="264" y="15" type="curve" smooth="yes"/>
      <point x="218" y="15"/>
      <point x="180" y="33"/>
      <point x="151" y="66" type="curve"/>
      <point x="400" y="633" type="line"/>
      <point x="440" y="575"/>
      <point x="457" y="481"/>
      <point x="457" y="358" type="curve" smooth="yes"/>
      <point x="457" y="146"/>
      <point x="392" y="15"/>
    </contour>
    <contour>
      <point x="382" y="655" type="curve"/>
      <point x="133" y="88" type="line"/>
      <point x="93" y="148"/>
      <point x="72" y="243"/>
      <point x="72" y="358" type="curve" smooth="yes"/>
      <point x="72" y="574"/>
      <point x="131" y="700"/>
      <point x="265" y="700" type="curve" smooth="yes"/>
      <point x="315" y="700"/>
      <point x="353" y="684"/>
    </contour>
  </outline>
</glyph>
<glyph name="Thorn.mono" format="2">
  <advance width="500"/>
  <unicode hex="00DE"/>
  <anchor x="250" y="0" name="bottom"/>
  <anchor x="250" y="714" name="top"/>
  <outline>
    <contour>
      <point x="95" y="0" type="line"/>
      <point x="121" y="0" type="line"/>
      <point x="121" y="176" type="line"/>
      <point x="250" y="176" type="line" smooth="yes"/>
      <point x="385" y="176"/>
      <point x="455" y="242"/>
      <point x="455" y="385" type="curve" smooth="yes"/>
      <point x="455" y="533"/>
      <point x="378" y="584"/>
      <point x="243" y="584" type="curve" smooth="yes"/>
      <point x="121" y="584" type="line"/>
      <point x="121" y="714" type="line"/>
      <point x="95" y="714" type="line"/>
    </contour>
    <contour>
      <point x="241" y="201" type="curve" smooth="yes"/>
      <point x="121" y="201" type="line"/>
      <point x="121" y="559" type="line"/>
      <point x="234" y="559" type="line" smooth="yes"/>
      <point x="367" y="559"/>
      <point x="428" y="515"/>
      <point x="428" y="386" type="curve" smooth="yes"/>
      <point x="428" y="255"/>
      <point x="366" y="201"/>
    </contour>
  </outline>
</glyph>
<glyph name="Thorn.serif" format="2">
  <advance width="434"/>
  <unicode hex="00DE"/>
  <anchor x="217" y="0" name="bottom"/>
  <anchor x="217" y="714" name="top"/>
  <outline>
    <contour>
      <point x="36" y="0" type="line"/>
      <point x="216" y="0" type="line"/>
      <point x="216" y="20" type="line"/>
      <point x="196" y="20" type="line" smooth="yes"/>
      <point x="146" y="20"/>
      <point x="140" y="31"/>
      <point x="140" y="108" type="curve" smooth="yes"/>
      <point x="140" y="169" type="line"/>
      <point x="202" y="169" type="line" smooth="yes"/>
      <point x="333" y="169"/>
      <point x="397" y="214"/>
      <point x="397" y="364" type="curve" smooth="yes"/>
      <point x="397" y="499"/>
      <point x="344" y="555"/>
      <point x="219" y="555" type="curve" smooth="yes"/>
      <point x="140" y="555" type="line"/>
      <point x="140" y="606" type="line" smooth="yes"/>
      <point x="140" y="683"/>
      <point x="146" y="694"/>
      <point x="196" y="694" type="curve" smooth="yes"/>
      <point x="216" y="694" type="line"/>
      <point x="216" y="714" type="line"/>
      <point x="36" y="714" type="line"/>
      <point x="36" y="694" type="line"/>
      <point x="56" y="694" type="line" smooth="yes"/>
      <point x="106" y="694"/>
      <point x="112" y="683"/>
      <point x="112" y="606" type="curve" smooth="yes"/>
      <point x="112" y="108" type="line" smooth="yes"/>
      <point x="112" y="31"/>
      <point x="106" y="20"/>
      <point x="56" y="20" type="curve" smooth="yes"/>
      <point x="36" y="20" type="line"/>
    </contour>
    <contour>
      <point x="204" y="194" type="curve" smooth="yes"/>
      <point x="140" y="194" type="line"/>
      <point x="140" y="530" type="line"/>
      <point x="217" y="530" type="line" smooth="yes"/>
      <point x="328" y="530"/>
      <point x="369" y="485"/>
      <point x="369" y="360" type="curve" smooth="yes"/>
      <point x="369" y="232"/>
      <point x="320" y="194"/>
    </contour>
  </outline>
</glyph>
<glyph name="germandbls.serif" format="2">
  <advance width="448"/>
  <unicode hex="00DF"/>
  <anchor x="224" y="0" name="bottom"/>
  <anchor x="224" y="755" name="top"/>
  <outline>
    <contour>
      <point x="299" y="-10" type="curve" smooth="yes"/>
      <point x="368" y="-10"/>
      <point x="410" y="42"/>
      <point x="410" y="133" type="curve" smooth="yes"/>
      <point x="410" y="194"/>
      <point x="393" y="243"/>
      <point x="320" y="291" type="curve" smooth="yes"/>
      <point x="253" y="335"/>
      <point x="237" y="376"/>
      <point x="237" y="404" type="curve" smooth="yes"/>
      <point x="237" y="451"/>
      <point x="251" y="504"/>
      <point x="330" y="504" type="curve" smooth="yes"/>
      <point x="371" y="504" type="line"/>
      <point x="370" y="660"/>
      <point x="345" y="755"/>
      <point x="234" y="755" type="curve" smooth="yes"/>
      <point x="159" y="755"/>
      <point x="103" y="703"/>
      <point x="103" y="590" type="curve" smooth="yes"/>
      <point x="103" y="536" type="line"/>
      <point x="33" y="536" type="line"/>
      <point x="33" y="511" type="line"/>
      <point x="103" y="511" type="line"/>
      <point x="103" y="103" type="line" smooth="yes"/>
      <point x="103" y="29"/>
      <point x="97" y="20"/>
      <point x="47" y="20" type="curve" smooth="yes"/>
      <point x="30" y="20" type="line"/>
      <point x="30" y="0" type="line"/>
      <point x="131" y="0" type="line"/>
      <point x="131" y="588" type="line" smooth="yes"/>
      <point x="131" y="662"/>
      <point x="155" y="730"/>
      <point x="231" y="730" type="curve" smooth="yes"/>
      <point x="321" y="730"/>
      <point x="343" y="649"/>
      <point x="343" y="529" type="curve"/>
      <point x="242" y="532"/>
      <point x="209" y="472"/>
      <point x="209" y="405" type="curve" smooth="yes"/>
      <point x="209" y="344"/>
      <point x="251" y="300"/>
      <point x="311" y="264" type="curve" smooth="yes"/>
      <point x="368" y="226"/>
      <point x="382" y="191"/>
      <point x="382" y="133" type="curve" smooth="yes"/>
      <point x="382" y="58"/>
      <point x="353" y="15"/>
      <point x="299" y="15" type="curve" smooth="yes"/>
      <point x="236" y="15"/>
      <point x="212" y="62"/>
      <point x="214" y="156" type="curve"/>
      <point x="207" y="156"/>
      <point x="193" y="148"/>
      <point x="193" y="99" type="curve" smooth="yes"/>
      <point x="193" y="43"/>
      <point x="223" y="-10"/>
    </contour>
  </outline>
</glyph>
<glyph name="ae.serif" format="2">
  <advance width="609"/>
  <unicode hex="00E6"/>
  <anchor x="305" y="0" name="bottom"/>
  <anchor x="305" y="536" name="top"/>
  <outline>
    <contour>
      <point x="155" y="-10" type="curve" smooth="yes"/>
      <point x="238" y="-10"/>
      <point x="282" y="61"/>
      <point x="297" y="138" type="curve"/>
      <point x="314" y="42"/>
      <point x="363" y="-10"/>
      <point x="435" y="-10" type="curve" smooth="yes"/>
      <point x="508" y="-10"/>
      <point x="551" y="44"/>
      <point x="551" y="77" type="curve" smooth="yes"/>
      <point x="551" y="88"/>
      <point x="549" y="95"/>
      <point x="542" y="99" type="curve"/>
      <point x="522" y="47"/>
      <point x="487" y="15"/>
      <point x="435" y="15" type="curve" smooth="yes"/>
      <point x="362" y="15"/>
      <point x="309" y="82"/>
      <point x="308" y="270" type="curve"/>
      <point x="566" y="270" type="line"/>
      <point x="566" y="295" type="line" smooth="yes"/>
      <point x="566" y="459"/>
      <point x="512" y="542"/>
      <point x="425" y="542" type="curve" smooth="yes"/>
      <point x="369" y="542"/>
      <point x="326" y="507"/>
      <point x="303" y="441" type="curve"/>
      <point x="289" y="514"/>
      <point x="251" y="542"/>
      <point x="192" y="542" type="curve" smooth="yes"/>
      <point x="116" y="542"/>
      <point x="73" y="495"/>
      <point x="73" y="440" type="curve" smooth="yes"/>
      <point x="73" y="411"/>
      <point x="81" y="395"/>
      <point x="94" y="395" type="curve"/>
      <point x="94" y="471"/>
      <point x="118" y="517"/>
      <point x="190" y="517" type="curve" smooth="yes"/>
      <point x="265" y="517"/>
      <point x="280" y="461"/>
      <point x="280" y="371" type="curve" smooth="yes"/>
      <point x="280" y="306" type="line"/>
      <point x="218" y="303" type="line" smooth="yes"/>
      <point x="99" y="298"/>
      <point x="42" y="250"/>
      <point x="42" y="146" type="curve" smooth="yes"/>
      <point x="42" y="40"/>
      <point x="86" y="-10"/>
    </contour>
    <contour>
      <point x="155" y="15" type="curve" smooth="yes"/>
      <point x="98" y="15"/>
      <point x="70" y="67"/>
      <point x="70" y="146" type="curve" smooth="yes"/>
      <point x="70" y="230"/>
      <point x="113" y="276"/>
      <point x="219" y="280" type="curve" smooth="yes"/>
      <point x="280" y="283" type="line"/>
      <point x="281" y="192" type="line" smooth="yes"/>
      <point x="282" y="91"/>
      <point x="228" y="15"/>
    </contour>
    <contour>
      <point x="538" y="295" type="curve"/>
      <point x="308" y="295" type="line"/>
      <point x="308" y="446"/>
      <point x="358" y="517"/>
      <point x="427" y="517" type="curve" smooth="yes"/>
      <point x="499" y="517"/>
      <point x="538" y="439"/>
    </contour>
  </outline>
</glyph>
<glyph name="eth.serif" format="2">
  <advance width="410"/>
  <unicode hex="00F0"/>
  <anchor x="205" y="0" name="bottom"/>
  <anchor x="205" y="762" name="top"/>
  <outline>
    <contour>
      <point x="206" y="-10" type="curve" smooth="yes"/>
      <point x="310" y="-10"/>
      <point x="362" y="67"/>
      <point x="362" y="276" type="curve" smooth="yes"/>
      <point x="362" y="433"/>
      <point x="323" y="557"/>
      <point x="249" y="654" type="curve"/>
      <point x="333" y="730" type="line"/>
      <point x="333" y="762" type="line"/>
      <point x="234" y="672" type="line"/>
      <point x="196" y="710"/>
      <point x="168" y="735"/>
      <point x="120" y="761" type="curve"/>
      <point x="120" y="733" type="line"/>
      <point x="155" y="713"/>
      <point x="180" y="691"/>
      <point x="213" y="653" type="curve"/>
      <point x="142" y="589" type="line"/>
      <point x="142" y="556" type="line"/>
      <point x="229" y="635" type="line"/>
      <point x="271" y="582"/>
      <point x="298" y="516"/>
      <point x="321" y="427" type="curve"/>
      <point x="294" y="468"/>
      <point x="255" y="491"/>
      <point x="206" y="491" type="curve" smooth="yes"/>
      <point x="98" y="491"/>
      <point x="48" y="414"/>
      <point x="48" y="242" type="curve" smooth="yes"/>
      <point x="48" y="83"/>
      <point x="97" y="-10"/>
    </contour>
    <contour>
      <point x="206" y="15" type="curve" smooth="yes"/>
      <point x="117" y="15"/>
      <point x="77" y="93"/>
      <point x="77" y="243" type="curve" smooth="yes"/>
      <point x="77" y="385"/>
      <point x="109" y="466"/>
      <point x="205" y="466" type="curve" smooth="yes"/>
      <point x="300" y="466"/>
      <point x="333" y="389"/>
      <point x="333" y="243" type="curve" smooth="yes"/>
      <point x="333" y="93"/>
      <point x="293" y="15"/>
    </contour>
  </outline>
</glyph>
<glyph name="oslash.serif" format="2">
  <advance width="410"/>
  <unicode hex="00F8"/>
  <anchor x="205" y="0" name="bottom"/>
  <anchor x="205" y="536" name="top"/>
  <outline>
    <contour>
      <point x="91" y="53" type="curve"/>
      <point x="46" y="-40" type="line"/>
      <point x="72" y="-40" type="line"/>
      <point x="107" y="32" type="line"/>
      <point x="132" y="4"/>
      <point x="165" y="-10"/>
      <point x="205" y="-10" type="curve" smooth="yes"/>
      <point x="308" y="-10"/>
      <point x="362" y="73"/>
      <point x="362" y="267" type="curve" smooth="yes"/>
      <point x="362" y="361"/>
      <point x="349" y="431"/>
      <point x="322" y="477" type="curve"/>
      <point x="370" y="576" type="line"/>
      <point x="344" y="576" type="line"/>
      <point x="307" y="499" type="line"/>
      <point x="282" y="528"/>
      <point x="249" y="542"/>
      <point x="207" y="542" type="curve" smooth="yes"/>
      <point x="97" y="542"/>
      <point x="48" y="451"/>
      <point x="48" y="267" type="curve" smooth="yes"/>
      <point x="48" y="169"/>
      <point x="63" y="99"/>
    </contour>
    <contour>
      <point x="206" y="14" type="curve" smooth="yes"/>
      <point x="168" y="14"/>
      <point x="139" y="28"/>
      <point x="119" y="56" type="curve"/>
      <point x="308" y="449" type="line"/>
      <point x="327" y="407"/>
      <point x="334" y="347"/>
      <point x="334" y="267" type="curve" smooth="yes"/>
      <point x="334" y="102"/>
      <point x="301" y="14"/>
    </contour>
    <contour>
      <point x="294" y="474" type="curve"/>
      <point x="104" y="81" type="line"/>
      <point x="84" y="123"/>
      <point x="76" y="186"/>
      <point x="76" y="267" type="curve" smooth="yes"/>
      <point x="76" y="434"/>
      <point x="110" y="517"/>
      <point x="205" y="517" type="curve" smooth="yes"/>
      <point x="245" y="517"/>
      <point x="274" y="503"/>
    </contour>
  </outline>
</glyph>
<glyph name="dcroat.serif" format="2">
  <advance width="439"/>
  <unicode hex="0111"/>
  <anchor x="220" y="0" name="bottom"/>
  <anchor x="220" y="760" name="top"/>
  <outline>
    <contour>
      <point x="198" y="-10" type="curve" smooth="yes"/>
      <point x="260" y="-10"/>
      <point x="299" y="31"/>
      <point x="322" y="95" type="curve"/>
      <point x="324" y="95" type="line"/>
      <point x="328" y="0" type="line"/>
      <point x="425" y="0" type="line"/>
      <point x="425" y="20" type="line"/>
      <point x="415" y="20" type="line" smooth="yes"/>
      <point x="361" y="20"/>
      <point x="352" y="27"/>
      <point x="352" y="86" type="curve" smooth="yes"/>
      <point x="352" y="617" type="line"/>
      <point x="422" y="617" type="line"/>
      <point x="422" y="642" type="line"/>
      <point x="352" y="642" type="line"/>
      <point x="352" y="760" type="line"/>
      <point x="257" y="760" type="line"/>
      <point x="257" y="740" type="line"/>
      <point x="262" y="740" type="line" smooth="yes"/>
      <point x="318" y="740"/>
      <point x="324" y="735"/>
      <point x="324" y="656" type="curve" smooth="yes"/>
      <point x="324" y="642" type="line"/>
      <point x="183" y="642" type="line"/>
      <point x="183" y="617" type="line"/>
      <point x="324" y="617" type="line"/>
      <point x="324" y="544" type="line" smooth="yes"/>
      <point x="324" y="509"/>
      <point x="325" y="476"/>
      <point x="329" y="445" type="curve"/>
      <point x="325" y="445" type="line"/>
      <point x="302" y="504"/>
      <point x="266" y="544"/>
      <point x="202" y="544" type="curve" smooth="yes"/>
      <point x="112" y="544"/>
      <point x="49" y="476"/>
      <point x="49" y="267" type="curve" smooth="yes"/>
      <point x="49" y="60"/>
      <point x="106" y="-10"/>
    </contour>
    <contour>
      <point x="199" y="15" type="curve" smooth="yes"/>
      <point x="121" y="15"/>
      <point x="77" y="87"/>
      <point x="77" y="265" type="curve" smooth="yes"/>
      <point x="77" y="452"/>
      <point x="126" y="519"/>
      <point x="204" y="519" type="curve" smooth="yes"/>
      <point x="294" y="519"/>
      <point x="325" y="429"/>
      <point x="325" y="265" type="curve" smooth="yes"/>
      <point x="325" y="103"/>
      <point x="281" y="15"/>
    </contour>
  </outline>
</glyph>
<glyph name="eogonek.mono" format="2">
  <advance width="500"/>
  <unicode hex="0119"/>
  <anchor x="260" y="-217" name="bottom"/>
  <anchor x="250" y="528" name="top"/>
  <outline>
    <contour>
      <point x="357" y="-217" type="curve" smooth="yes"/>
      <point x="376" y="-217"/>
      <point x="395" y="-213"/>
      <point x="406" y="-209" type="curve"/>
      <point x="406" y="-185" type="line"/>
      <point x="395" y="-189"/>
      <point x="376" y="-192"/>
      <point x="361" y="-192" type="curve" smooth="yes"/>
      <point x="319" y="-192"/>
      <point x="300" y="-170"/>
      <point x="300" y="-132" type="curve" smooth="yes"/>
      <point x="300" y="-66"/>
      <point x="361" y="-16"/>
      <point x="419" y="23" type="curve"/>
      <point x="401" y="34" type="line"/>
      <point x="333" y="-13"/>
      <point x="274" y="-65"/>
      <point x="274" y="-132" type="curve" smooth="yes"/>
      <point x="274" y="-191"/>
      <point x="310" y="-217"/>
    </contour>
    <component base="e"/>
  </outline>
</glyph>
<glyph name="eogonek.serif" format="2">
  <advance width="379"/>
  <unicode hex="0119"/>
  <anchor x="190" y="-228" name="bottom"/>
  <anchor x="190" y="536" name="top"/>
  <outline>
    <contour>
      <point x="257" y="-228" type="curve" smooth="yes"/>
      <point x="278" y="-228"/>
      <point x="290" y="-224"/>
      <point x="306" y="-215" type="curve"/>
      <point x="306" y="-189" type="line"/>
      <point x="288" y="-200"/>
      <point x="276" y="-203"/>
      <point x="258" y="-203" type="curve" smooth="yes"/>
      <point x="226" y="-203"/>
      <point x="206" y="-180"/>
      <point x="206" y="-127" type="curve" smooth="yes"/>
      <point x="206" y="-54"/>
      <point x="251" y="-12"/>
      <point x="290" y="20" type="curve" smooth="yes"/>
      <point x="304" y="32"/>
      <point x="321" y="57"/>
      <point x="321" y="77" type="curve" smooth="yes"/>
      <point x="321" y="90"/>
      <point x="317" y="96"/>
      <point x="312" y="99" type="curve"/>
      <point x="296" y="57"/>
      <point x="263" y="15"/>
      <point x="205" y="15" type="curve" smooth="yes"/>
      <point x="125" y="15"/>
      <point x="76" y="97"/>
      <point x="76" y="270" type="curve"/>
      <point x="336" y="270" type="line"/>
      <point x="336" y="291" type="line" smooth="yes"/>
      <point x="336" y="445"/>
      <point x="289" y="542"/>
      <point x="197" y="542" type="curve" smooth="yes"/>
      <point x="102" y="542"/>
      <point x="48" y="450"/>
      <point x="48" y="262" type="curve" smooth="yes"/>
      <point x="48" y="88"/>
      <point x="109" y="-10"/>
      <point x="205" y="-10" type="curve" smooth="yes"/>
      <point x="218" y="-10"/>
      <point x="230" y="-8"/>
      <point x="241" y="-5" type="curve"/>
      <point x="212" y="-24"/>
      <point x="178" y="-66"/>
      <point x="178" y="-130" type="curve" smooth="yes"/>
      <point x="178" y="-200"/>
      <point x="213" y="-228"/>
    </contour>
    <contour>
      <point x="308" y="295" type="curve"/>
      <point x="76" y="295" type="line"/>
      <point x="80" y="431"/>
      <point x="119" y="517"/>
      <point x="197" y="517" type="curve" smooth="yes"/>
      <point x="276" y="517"/>
      <point x="306" y="427"/>
    </contour>
  </outline>
</glyph>
<glyph name="hbar.serif" format="2">
  <advance width="457"/>
  <unicode hex="0127"/>
  <anchor x="229" y="0" name="bottom"/>
  <anchor x="229" y="760" name="top"/>
  <outline>
    <contour>
      <point x="12" y="0" type="line"/>
      <point x="187" y="0" type="line"/>
      <point x="187" y="20" type="line"/>
      <point x="182" y="20" type="line" smooth="yes"/>
      <point x="122" y="20"/>
      <point x="116" y="26"/>
      <point x="116" y="96" type="curve" smooth="yes"/>
      <point x="116" y="333" type="line" smooth="yes"/>
      <point x="116" y="459"/>
      <point x="157" y="517"/>
      <point x="233" y="517" type="curve" smooth="yes"/>
      <point x="311" y="517"/>
      <point x="338" y="462"/>
      <point x="338" y="364" type="curve" smooth="yes"/>
      <point x="338" y="0" type="line"/>
      <point x="435" y="0" type="line"/>
      <point x="435" y="20" type="line"/>
      <point x="427" y="20" type="line" smooth="yes"/>
      <point x="371" y="20"/>
      <point x="366" y="29"/>
      <point x="366" y="94" type="curve" smooth="yes"/>
      <point x="366" y="364" type="line" smooth="yes"/>
      <point x="366" y="482"/>
      <point x="318" y="542"/>
      <point x="239" y="542" type="curve" smooth="yes"/>
      <point x="171" y="542"/>
      <point x="133" y="498"/>
      <point x="115" y="451" type="curve"/>
      <point x="113" y="451" type="line"/>
      <point x="115" y="469"/>
      <point x="116" y="483"/>
      <point x="116" y="495" type="curve" smooth="yes"/>
      <point x="116" y="617" type="line"/>
      <point x="257" y="617" type="line"/>
      <point x="257" y="642" type="line"/>
      <point x="116" y="642" type="line"/>
      <point x="116" y="760" type="line"/>
      <point x="15" y="760" type="line"/>
      <point x="15" y="740" type="line"/>
      <point x="31" y="740" type="line" smooth="yes"/>
      <point x="81" y="740"/>
      <point x="88" y="731"/>
      <point x="88" y="664" type="curve" smooth="yes"/>
      <point x="88" y="642" type="line"/>
      <point x="16" y="642" type="line"/>
      <point x="16" y="617" type="line"/>
      <point x="88" y="617" type="line"/>
      <point x="88" y="96" type="line" smooth="yes"/>
      <point x="88" y="26"/>
      <point x="82" y="20"/>
      <point x="21" y="20" type="curve" smooth="yes"/>
      <point x="12" y="20" type="line"/>
    </contour>
  </outline>
</glyph>
<glyph name="idotless.serif" format="2">
  <advance width="219"/>
  <unicode hex="0131"/>
  <anchor x="110" y="0" name="bottom"/>
  <anchor x="110" y="536" name="top"/>
  <outline>
    <contour>
      <point x="22" y="0" type="line"/>
      <point x="212" y="0" type="line"/>
      <point x="212" y="20" type="line"/>
      <point x="199" y="20" type="line" smooth="yes"/>
      <point x="139" y="20"/>
      <point x="133" y="26"/>
      <point x="133" y="96" type="curve" smooth="yes"/>
      <point x="133" y="536" type="line"/>
      <point x="37" y="536" type="line"/>
      <point x="37" y="516" type="line"/>
      <point x="43" y="516" type="line" smooth="yes"/>
      <point x="101" y="516"/>
      <point x="105" y="508"/>
      <point x="105" y="437" type="curve" smooth="yes"/>
      <point x="105" y="96" type="line" smooth="yes"/>
      <point x="105" y="26"/>
      <point x="99" y="20"/>
      <point x="38" y="20" type="curve" smooth="yes"/>
      <point x="22" y="20" type="line"/>
    </contour>
  </outline>
</glyph>
<glyph name="Lslash.mono" format="2">
  <advance width="500"/>
  <unicode hex="0141"/>
  <anchor x="307" y="0" name="bottom"/>
  <anchor x="155" y="714" name="top"/>
  <outline>
    <contour>
      <point x="69" y="279" type="line"/>
      <point x="337" y="448" type="line"/>
      <point x="323" y="469" type="line"/>
      <point x="56" y="299" type="line"/>
    </contour>
    <component base="L" xOffset="50"/>
  </outline>
</glyph>
<glyph name="Lslash.serif" format="2">
  <advance width="448"/>
  <unicode hex="0141"/>
  <anchor x="224" y="0" name="bottom"/>
  <anchor x="224" y="714" name="top"/>
  <outline>
    <contour>
      <point x="36" y="0" type="line"/>
      <point x="406" y="0" type="line"/>
      <point x="410" y="205" type="line"/>
      <point x="390" y="205" type="line"/>
      <point x="387" y="94" type="line" smooth="yes"/>
      <point x="386" y="39"/>
      <point x="380" y="25"/>
      <point x="328" y="25" type="curve" smooth="yes"/>
      <point x="138" y="25" type="line"/>
      <point x="138" y="320" type="line"/>
      <point x="271" y="418" type="line"/>
      <point x="271" y="452" type="line"/>
      <point x="138" y="352" type="line"/>
      <point x="138" y="606" type="line" smooth="yes"/>
      <point x="138" y="683"/>
      <point x="144" y="694"/>
      <point x="194" y="694" type="curve" smooth="yes"/>
      <point x="216" y="694" type="line"/>
      <point x="216" y="714" type="line"/>
      <point x="36" y="714" type="line"/>
      <point x="36" y="694" type="line"/>
      <point x="54" y="694" type="line" smooth="yes"/>
      <point x="104" y="694"/>
      <point x="110" y="683"/>
      <point x="110" y="606" type="curve" smooth="yes"/>
      <point x="110" y="331" type="line"/>
      <point x="29" y="270" type="line"/>
      <point x="29" y="239" type="line"/>
      <point x="110" y="299" type="line"/>
      <point x="110" y="108" type="line" smooth="yes"/>
      <point x="110" y="31"/>
      <point x="104" y="20"/>
      <point x="54" y="20" type="curve" smooth="yes"/>
      <point x="36" y="20" type="line"/>
    </contour>
  </outline>
</glyph>
<glyph name="lslash.serif" format="2">
  <advance width="224"/>
  <unicode hex="0142"/>
  <anchor x="112" y="0" name="bottom"/>
  <anchor x="112" y="760" name="top"/>
  <outline>
    <contour>
      <point x="30" y="0" type="line"/>
      <point x="219" y="0" type="line"/>
      <point x="219" y="20" type="line"/>
      <point x="215" y="20" type="line" smooth="yes"/>
      <point x="142" y="20"/>
      <point x="138" y="24"/>
      <point x="138" y="94" type="curve" smooth="yes"/>
      <point x="138" y="315" type="line"/>
      <point x="217" y="371" type="line"/>
      <point x="217" y="403" type="line"/>
      <point x="138" y="347" type="line"/>
      <point x="138" y="760" type="line"/>
      <point x="30" y="760" type="line"/>
      <point x="30" y="740" type="line"/>
      <point x="43" y="740" type="line" smooth="yes"/>
      <point x="103" y="740"/>
      <point x="110" y="736"/>
      <point x="110" y="662" type="curve" smooth="yes"/>
      <point x="110" y="326" type="line"/>
      <point x="38" y="275" type="line"/>
      <point x="38" y="245" type="line"/>
      <point x="110" y="296" type="line"/>
      <point x="110" y="94" type="line" smooth="yes"/>
      <point x="110" y="24"/>
      <point x="106" y="20"/>
      <point x="33" y="20" type="curve" smooth="yes"/>
      <point x="30" y="20" type="line"/>
    </contour>
  </outline>
</glyph>
<glyph name="Eng.mono" format="2">
  <advance width="500"/>
  <unicode hex="014A"/>
  <anchor x="285" y="-175" name="bottom"/>
  <anchor x="255" y="714" name="top"/>
  <outline>
    <contour>
      <point x="312" y="-175" type="curve" smooth="yes"/>
      <point x="393" y="-175"/>
      <point x="435" y="-125"/>
      <point x="435" y="-2" type="curve" smooth="yes"/>
      <point x="435" y="42" type="line"/>
      <point x="410" y="42" type="line"/>
      <point x="410" y="0" type="line" smooth="yes"/>
      <point x="410" y="-106"/>
      <point x="378" y="-150"/>
      <point x="310" y="-150" type="curve" smooth="yes"/>
      <point x="287" y="-150"/>
      <point x="260" y="-144"/>
      <point x="243" y="-137" type="curve"/>
      <point x="243" y="-162" type="line"/>
      <point x="257" y="-169"/>
      <point x="286" y="-175"/>
    </contour>
    <component base="N"/>
  </outline>
</glyph>
<glyph name="eng.mono" format="2">
  <advance width="500"/>
  <unicode hex="014B"/>
  <anchor x="260" y="-241" name="bottom"/>
  <anchor x="255" y="528" name="top"/>
  <anchor x="480" y="528" name="topright"/>
  <outline>
    <contour>
      <point x="321" y="-241" type="curve" smooth="yes"/>
      <point x="380" y="-241"/>
      <point x="420" y="-202"/>
      <point x="420" y="-116" type="curve" smooth="yes"/>
      <point x="420" y="271" type="line" smooth="yes"/>
      <point x="394" y="265" type="line"/>
      <point x="394" y="-114" type="line" smooth="yes"/>
      <point x="394" y="-178"/>
      <point x="371" y="-216"/>
      <point x="321" y="-216" type="curve" smooth="yes"/>
      <point x="304" y="-216"/>
      <point x="281" y="-214"/>
      <point x="266" y="-207" type="curve"/>
      <point x="266" y="-233" type="line"/>
      <point x="278" y="-238"/>
      <point x="299" y="-241"/>
    </contour>
    <component base="n"/>
  </outline>
</glyph>
<glyph name="eng.serif" format="2">
  <advance width="457"/>
  <unicode hex="014B"/>
  <anchor x="229" y="-240" name="bottom"/>
  <anchor x="229" y="536" name="top"/>
  <anchor x="453" y="536" name="topright"/>
  <outline>
    <contour>
      <point x="272" y="-240" type="line"/>
      <point x="280" y="-240" type="line" smooth="yes"/>
      <point x="338" y="-240"/>
      <point x="381" y="-205"/>
      <point x="381" y="-20" type="curve" smooth="yes"/>
      <point x="381" y="363" type="line" smooth="yes"/>
      <point x="381" y="486"/>
      <point x="343" y="542"/>
      <point x="252" y="542" type="curve" smooth="yes"/>
      <point x="189" y="542"/>
      <point x="157" y="508"/>
      <point x="132" y="459" type="curve"/>
      <point x="130" y="459" type="line"/>
      <point x="127" y="536" type="line"/>
      <point x="31" y="536" type="line"/>
      <point x="31" y="516" type="line"/>
      <point x="36" y="516" type="line" smooth="yes"/>
      <point x="97" y="516"/>
      <point x="103" y="511"/>
      <point x="103" y="441" type="curve" smooth="yes"/>
      <point x="103" y="96" type="line" smooth="yes"/>
      <point x="103" y="26"/>
      <point x="97" y="20"/>
      <point x="36" y="20" type="curve" smooth="yes"/>
      <point x="28" y="20" type="line"/>
      <point x="28" y="0" type="line"/>
      <point x="203" y="0" type="line"/>
      <point x="203" y="20" type="line"/>
      <point x="197" y="20" type="line" smooth="yes"/>
      <point x="137" y="20"/>
      <point x="131" y="26"/>
      <point x="131" y="96" type="curve" smooth="yes"/>
      <point x="131" y="333" type="line" smooth="yes"/>
      <point x="131" y="467"/>
      <point x="186" y="517"/>
      <point x="254" y="517" type="curve" smooth="yes"/>
      <point x="326" y="517"/>
      <point x="353" y="457"/>
      <point x="353" y="364" type="curve" smooth="yes"/>
      <point x="353" y="-20" type="line" smooth="yes"/>
      <point x="353" y="-171"/>
      <point x="326" y="-215"/>
      <point x="277" y="-215" type="curve" smooth="yes"/>
      <point x="272" y="-215" type="line"/>
    </contour>
  </outline>
</glyph>
<glyph name="OE.serif" format="2">
  <advance width="683"/>
  <unicode hex="0152"/>
  <anchor x="342" y="0" name="bottom"/>
  <anchor x="342" y="714" name="top"/>
  <outline>
    <contour>
      <point x="264" y="-10" type="curve" smooth="yes"/>
      <point x="293" y="-10"/>
      <point x="319" y="-7"/>
      <point x="342" y="0" type="curve"/>
      <point x="639" y="0" type="line"/>
      <point x="643" y="164" type="line"/>
      <point x="623" y="164" type="line"/>
      <point x="619" y="94" type="line" smooth="yes"/>
      <point x="615" y="33"/>
      <point x="612" y="25"/>
      <point x="547" y="25" type="curve" smooth="yes"/>
      <point x="368" y="25" type="line"/>
      <point x="370" y="362" type="line"/>
      <point x="560" y="362" type="line"/>
      <point x="560" y="387" type="line"/>
      <point x="370" y="387" type="line"/>
      <point x="370" y="689" type="line"/>
      <point x="520" y="689" type="line" smooth="yes"/>
      <point x="588" y="689"/>
      <point x="592" y="682"/>
      <point x="596" y="600" type="curve" smooth="yes"/>
      <point x="598" y="550" type="line"/>
      <point x="618" y="550" type="line"/>
      <point x="613" y="714" type="line"/>
      <point x="342" y="714" type="line"/>
      <point x="320" y="721"/>
      <point x="295" y="725"/>
      <point x="265" y="725" type="curve" smooth="yes"/>
      <point x="118" y="725"/>
      <point x="44" y="596"/>
      <point x="44" y="359" type="curve" smooth="yes"/>
      <point x="44" y="137"/>
      <point x="116" y="-10"/>
    </contour>
    <contour>
      <point x="264" y="15" type="curve" smooth="yes"/>
      <point x="137" y="15"/>
      <point x="72" y="153"/>
      <point x="72" y="358" type="curve" smooth="yes"/>
      <point x="72" y="574"/>
      <point x="131" y="700"/>
      <point x="265" y="700" type="curve" smooth="yes"/>
      <point x="295" y="700"/>
      <point x="321" y="695"/>
      <point x="342" y="687" type="curve"/>
      <point x="342" y="27" type="line"/>
      <point x="320" y="20"/>
      <point x="295" y="15"/>
    </contour>
  </outline>
</glyph>
<glyph name="oe.serif" format="2">
  <advance width="665"/>
  <unicode hex="0153"/>
  <anchor x="333" y="0" name="bottom"/>
  <anchor x="333" y="536" name="top"/>
  <outline>
    <contour>
      <point x="205" y="-10" type="curve" smooth="yes"/>
      <point x="278" y="-10"/>
      <point x="327" y="32"/>
      <point x="349" y="133" type="curve"/>
      <point x="374" y="38"/>
      <point x="423" y="-10"/>
      <point x="489" y="-10" type="curve" smooth="yes"/>
      <point x="566" y="-10"/>
      <point x="607" y="46"/>
      <point x="607" y="77" type="curve" smooth="yes"/>
      <point x="607" y="90"/>
      <point x="602" y="96"/>
      <point x="599" y="99" type="curve"/>
      <point x="580" y="52"/>
      <point x="544" y="15"/>
      <point x="491" y="15" type="curve" smooth="yes"/>
      <point x="416" y="15"/>
      <point x="360" y="93"/>
      <point x="361" y="270" type="curve"/>
      <point x="622" y="270" type="line"/>
      <point x="622" y="294" type="line" smooth="yes"/>
      <point x="622" y="458"/>
      <point x="568" y="542"/>
      <point x="483" y="542" type="curve" smooth="yes"/>
      <point x="419" y="542"/>
      <point x="370" y="501"/>
      <point x="348" y="397" type="curve"/>
      <point x="327" y="501"/>
      <point x="276" y="542"/>
      <point x="207" y="542" type="curve" smooth="yes"/>
      <point x="100" y="542"/>
      <point x="48" y="456"/>
      <point x="48" y="267" type="curve" smooth="yes"/>
      <point x="48" y="80"/>
      <point x="103" y="-10"/>
    </contour>
    <contour>
      <point x="206" y="14" type="curve" smooth="yes"/>
      <point x="112" y="14"/>
      <point x="76" y="101"/>
      <point x="76" y="267" type="curve" smooth="yes"/>
      <point x="76" y="434"/>
      <point x="111" y="517"/>
      <point x="205" y="517" type="curve" smooth="yes"/>
      <point x="299" y="517"/>
      <point x="334" y="434"/>
      <point x="334" y="267" type="curve" smooth="yes"/>
      <point x="334" y="101"/>
      <point x="299" y="14"/>
    </contour>
    <contour>
      <point x="594" y="295" type="curve"/>
      <point x="362" y="295" type="line"/>
      <point x="365" y="437"/>
      <point x="409" y="517"/>
      <point x="481" y="517" type="curve" smooth="yes"/>
      <point x="565" y="517"/>
      <point x="592" y="421"/>
    </contour>
  </outline>
</glyph>
<glyph name="tbar.display" format="2">
  <advance width="209"/>
  <unicode hex="0167"/>
  <anchor x="130" y="0" name="bottom"/>
  <anchor x="83" y="656" name="top"/>
  <outline>
    <contour>
      <point x="23" y="285" type="line"/>
      <point x="198" y="285" type="line"/>
      <point x="198" y="310" type="line"/>
      <point x="23" y="310" type="line"/>
    </contour>
    <component base="t"/>
  </outline>
</glyph>
<glyph name="tbar.serif" format="2">
  <advance width="229"/>
  <unicode hex="0167"/>
  <anchor x="115" y="0" name="bottom"/>
  <anchor x="115" y="657" name="top"/>
  <outline>
    <contour>
      <point x="21" y="304" type="line"/>
      <point x="176" y="304" type="line"/>
      <point x="176" y="329" type="line"/>
      <point x="21" y="329" type="line"/>
    </contour>
    <component base="t"/>
  </outline>
</glyph>
<glyph name="Uogonek.display" format="2">
  <advance width="486"/>
  <unicode hex="0172"/>
  <anchor x="236" y="-217" name="bottom"/>
  <anchor x="236" y="714" name="top"/>
  <outline>
    <contour>
      <point x="246" y="-139" type="curve" smooth="yes"/>
      <point x="246" y="-82"/>
      <point x="294" y="-21"/>
      <point x="344" y="27" type="curve"/>
      <point x="311" y="14" type="line"/>
      <point x="253" y="-31"/>
      <point x="220" y="-88"/>
      <point x="220" y="-140" type="curve" smooth="yes"/>
      <point x="220" y="-192"/>
      <point x="253" y="-217"/>
      <point x="299" y="-217" type="curve" smooth="yes"/>
      <point x="314" y="-217"/>
      <point x="327" y="-214"/>
      <point x="335" y="-211" type="curve"/>
      <point x="335" y="-188" type="line"/>
      <point x="329" y="-190"/>
      <point x="314" y="-193"/>
      <point x="300" y="-193" type="curve" smooth="yes"/>
      <point x="264" y="-193"/>
      <point x="246" y="-174"/>
    </contour>
    <component base="U"/>
  </outline>
</glyph>
<glyph name="Uogonek.mono" format="2">
  <advance width="500"/>
  <unicode hex="0172"/>
  <anchor x="275" y="-217" name="bottom"/>
  <anchor x="250" y="714" name="top"/>
  <outline>
    <contour>
      <point x="273" y="-217" type="curve" smooth="yes"/>
      <point x="288" y="-217"/>
      <point x="304" y="-214"/>
      <point x="313" y="-210" type="curve"/>
      <point x="313" y="-187" type="line"/>
      <point x="305" y="-190"/>
      <point x="287" y="-193"/>
      <point x="274" y="-193" type="curve" smooth="yes"/>
      <point x="238" y="-193"/>
      <point x="221" y="-172"/>
      <point x="221" y="-135" type="curve" smooth="yes"/>
      <point x="221" y="-79"/>
      <point x="266" y="-32"/>
      <point x="337" y="13" type="curve"/>
      <point x="309" y="20" type="line"/>
      <point x="228" y="-31"/>
      <point x="194" y="-84"/>
      <point x="194" y="-138" type="curve" smooth="yes"/>
      <point x="194" y="-190"/>
      <point x="226" y="-217"/>
    </contour>
    <component base="U"/>
  </outline>
</glyph>
